CooperHighContrast.ufo
<glyph name="exclam" format="2">
  <advance width="334"/>
  <unicode hex="0021"/>
  <outline>
    <contour>
      <point x="164.0" y="-2.0" type="curve" smooth="yes"/>
      <point x="236.0" y="-2.0"/>
      <point x="294.0" y="55"/>
      <point x="294.0" y="125" type="curve" smooth="yes"/>
      <point x="294.0" y="195"/>
      <point x="236.0" y="251"/>
      <point x="164.0" y="251" type="curve" smooth="yes"/>
      <point x="92.0" y="251"/>
      <point x="34.0" y="195"/>
      <point x="34.0" y="125" type="curve" smooth="yes"/>
      <point x="34.0" y="55"/>
      <point x="92.0" y="-2.0"/>
    </contour>
    <contour identifier="PJSld4tCVi">
      <point x="136.0" y="295.0"/>
      <point x="20.0" y="514"/>
      <point x="20.0" y="607" type="curve" smooth="yes"/>
      <point x="20.0" y="698"/>
      <point x="81.0" y="781"/>
      <point x="165.0" y="781" type="curve" smooth="yes"/>
      <point x="250.0" y="781"/>
      <point x="314.0" y="698"/>
      <point x="314.0" y="607" type="curve" smooth="yes"/>
      <point x="314.0" y="512"/>
      <point x="197.0" y="295.0"/>
      <point x="165.0" y="295.0" type="curve" smooth="yes"/>
    </contour>
  </outline>
</glyph>
<glyph name="quotedbl" format="2">
  <advance width="510"/>
  <unicode hex="0022"/>
  <outline>
    <contour identifier="PJSld4tCVi">
      <point x="91" y="350.0"/>
      <point x="5" y="557.0"/>
      <point x="5" y="629.0" type="curve" smooth="yes"/>
      <point x="5" y="701.0"/>
      <point x="53" y="764.0"/>
      <point x="119" y="764.0" type="curve" smooth="yes"/>
      <point x="185" y="764.0"/>
      <point x="234" y="701"/>
      <point x="234" y="629.0" type="curve" smooth="yes"/>
      <point x="234" y="555.0"/>
      <point x="145" y="350"/>
      <point x="117" y="350.0" type="curve" smooth="yes"/>
    </contour>
    <contour>
      <point x="362" y="350.0"/>
      <point x="276" y="557.0"/>
      <point x="276" y="629.0" type="curve" smooth="yes"/>
      <point x="276" y="701.0"/>
      <point x="324" y="764.0"/>
      <point x="390" y="764.0" type="curve" smooth="yes"/>
      <point x="456" y="764.0"/>
      <point x="505" y="701"/>
      <point x="505" y="629.0" type="curve" smooth="yes"/>
      <point x="505" y="555.0"/>
      <point x="416" y="350"/>
      <point x="388" y="350.0" type="curve" smooth="yes"/>
    </contour>
  </outline>
</glyph>
<glyph name="dollar" format="2">
  <advance width="627"/>
  <unicode hex="0024"/>
  <outline>
    <contour>
      <point x="373" y="22" type="curve"/>
      <point x="541" y="45"/>
      <point x="584" y="138"/>
      <point x="584" y="217" type="curve" smooth="yes"/>
      <point x="584" y="337"/>
      <point x="520" y="384"/>
      <point x="418" y="441" type="curve" smooth="yes"/>
      <point x="339" y="485"/>
      <point x="243" y="508"/>
      <point x="245" y="560" type="curve" smooth="yes"/>
      <point x="246" y="589"/>
      <point x="260" y="607"/>
      <point x="298" y="607" type="curve" smooth="yes"/>
      <point x="387" y="607"/>
      <point x="492" y="480"/>
      <point x="524" y="480" type="curve" smooth="yes"/>
      <point x="542" y="480"/>
      <point x="560" y="493"/>
      <point x="560" y="527" type="curve" smooth="yes"/>
      <point x="560" y="592"/>
      <point x="528" y="703"/>
      <point x="490" y="703" type="curve" smooth="yes"/>
      <point x="453" y="703"/>
      <point x="439" y="678"/>
      <point x="423" y="682" type="curve" smooth="yes"/>
      <point x="410" y="685"/>
      <point x="399" y="692"/>
      <point x="377" y="696" type="curve" smooth="yes"/>
      <point x="368" y="698"/>
      <point x="366" y="697"/>
      <point x="366" y="707" type="curve" smooth="yes"/>
      <point x="366" y="775" type="line" smooth="yes"/>
      <point x="366" y="789"/>
      <point x="362" y="791"/>
      <point x="345" y="791" type="curve" smooth="yes"/>
      <point x="250" y="791" type="line" smooth="yes"/>
      <point x="234" y="791"/>
      <point x="230" y="785"/>
      <point x="230" y="774" type="curve" smooth="yes"/>
      <point x="230" y="709" type="line" smooth="yes"/>
      <point x="230" y="700"/>
      <point x="208" y="699"/>
      <point x="198" y="696" type="curve" smooth="yes"/>
      <point x="93" y="670"/>
      <point x="46" y="576"/>
      <point x="46" y="511" type="curve" smooth="yes"/>
      <point x="46" y="404"/>
      <point x="131" y="323"/>
      <point x="217" y="273" type="curve" smooth="yes"/>
      <point x="309" y="219"/>
      <point x="385" y="227"/>
      <point x="377" y="167" type="curve" smooth="yes"/>
      <point x="373" y="137"/>
      <point x="334" y="114"/>
      <point x="259" y="137" type="curve" smooth="yes"/>
      <point x="160" y="165"/>
      <point x="116" y="293"/>
      <point x="82" y="293" type="curve" smooth="yes"/>
      <point x="39" y="293"/>
      <point x="38" y="234"/>
      <point x="38" y="217" type="curve" smooth="yes"/>
      <point x="38" y="188"/>
      <point x="62" y="80"/>
      <point x="110" y="52" type="curve" smooth="yes"/>
      <point x="128" y="42"/>
      <point x="170" y="29"/>
      <point x="218" y="22" type="curve"/>
      <point x="228" y="18"/>
      <point x="230" y="11"/>
      <point x="230" y="1" type="curve" smooth="yes"/>
      <point x="230" y="-63" type="line" smooth="yes"/>
      <point x="230.0" y="-77.0"/>
      <point x="234" y="-79"/>
      <point x="251" y="-79" type="curve" smooth="yes"/>
      <point x="346" y="-79" type="line" smooth="yes"/>
      <point x="362" y="-79"/>
      <point x="366.0" y="-73.0"/>
      <point x="366" y="-62" type="curve" smooth="yes"/>
      <point x="366" y="-1" type="line" smooth="yes"/>
      <point x="366" y="9"/>
      <point x="367" y="16"/>
    </contour>
  </outline>
</glyph>
<glyph name="ampersand" format="2">
  <advance width="1007"/>
  <unicode hex="0026"/>
  <outline>
    <contour>
      <point x="996" y="552" type="curve"/>
      <point x="992" y="455"/>
      <point x="842" y="367"/>
      <point x="813" y="351" type="curve" smooth="yes"/>
      <point x="793" y="340"/>
      <point x="784" y="329"/>
      <point x="784" y="317" type="curve" smooth="yes"/>
      <point x="784" y="304"/>
      <point x="805" y="288"/>
      <point x="820" y="271" type="curve" smooth="yes"/>
      <point x="837" y="251"/>
      <point x="856" y="225"/>
      <point x="856" y="165" type="curve" smooth="yes"/>
      <point x="856" y="38"/>
      <point x="659" y="-80"/>
      <point x="457" y="-80" type="curve" smooth="yes"/>
      <point x="182" y="-80"/>
      <point x="45" y="28"/>
      <point x="45" y="170" type="curve" smooth="yes"/>
      <point x="45" y="282"/>
      <point x="121" y="330"/>
      <point x="158" y="352" type="curve" smooth="yes"/>
      <point x="164" y="356"/>
      <point x="179" y="358"/>
      <point x="178" y="371" type="curve" smooth="yes"/>
      <point x="177" y="381"/>
      <point x="171" y="382"/>
      <point x="164" y="386" type="curve" smooth="yes"/>
      <point x="121" y="409"/>
      <point x="82" y="444"/>
      <point x="75" y="530" type="curve" smooth="yes"/>
      <point x="63" y="677"/>
      <point x="192" y="753"/>
      <point x="344" y="766" type="curve" smooth="yes"/>
      <point x="509" y="779"/>
      <point x="623" y="721"/>
      <point x="631" y="613" type="curve" smooth="yes"/>
      <point x="636" y="558"/>
      <point x="595" y="491"/>
      <point x="516" y="485" type="curve" smooth="yes"/>
      <point x="456" y="480"/>
      <point x="384" y="522"/>
      <point x="380" y="572" type="curve" smooth="yes"/>
      <point x="377" y="614"/>
      <point x="394" y="633"/>
      <point x="392" y="653" type="curve" smooth="yes"/>
      <point x="390" y="677"/>
      <point x="374" y="678"/>
      <point x="360" y="677" type="curve" smooth="yes"/>
      <point x="314" y="672"/>
      <point x="293" y="602"/>
      <point x="298" y="541" type="curve" smooth="yes"/>
      <point x="304" y="470"/>
      <point x="332" y="428"/>
      <point x="363" y="416" type="curve" smooth="yes"/>
      <point x="385" y="407"/>
      <point x="393" y="402"/>
      <point x="394" y="376" type="curve" smooth="yes"/>
      <point x="395" y="349"/>
      <point x="377" y="342"/>
      <point x="360" y="333" type="curve" smooth="yes"/>
      <point x="319" y="312"/>
      <point x="274" y="243"/>
      <point x="280" y="179" type="curve" smooth="yes"/>
      <point x="286" y="101"/>
      <point x="365" y="67"/>
      <point x="442" y="67" type="curve" smooth="yes"/>
      <point x="555" y="67"/>
      <point x="627" y="122"/>
      <point x="627" y="165" type="curve" smooth="yes"/>
      <point x="627" y="203"/>
      <point x="612" y="227"/>
      <point x="567" y="227" type="curve" smooth="yes"/>
      <point x="508" y="227"/>
      <point x="501" y="153"/>
      <point x="461" y="153" type="curve" smooth="yes"/>
      <point x="441" y="153"/>
      <point x="429" y="186"/>
      <point x="428" y="201" type="curve" smooth="yes"/>
      <point x="423" y="264"/>
      <point x="468" y="380"/>
      <point x="624" y="431" type="curve" smooth="yes"/>
      <point x="737" y="468"/>
      <point x="817" y="505"/>
      <point x="817" y="536" type="curve" smooth="yes"/>
      <point x="817" y="551"/>
      <point x="805" y="571"/>
      <point x="786" y="571" type="curve" smooth="yes"/>
      <point x="766" y="571"/>
      <point x="742" y="536"/>
      <point x="725" y="536" type="curve" smooth="yes"/>
      <point x="716" y="536"/>
      <point x="699" y="554"/>
      <point x="708" y="585" type="curve" smooth="yes"/>
      <point x="720" y="627"/>
      <point x="772" y="677"/>
      <point x="859" y="677" type="curve" smooth="yes"/>
      <point x="951" y="677"/>
      <point x="997" y="621"/>
    </contour>
  </outline>
</glyph>
<glyph name="quotesingle" format="2">
  <advance width="299"/>
  <unicode hex="0027"/>
  <outline>
    <contour identifier="PJSld4tCVi">
      <point x="112" y="350.0"/>
      <point x="26" y="557.0"/>
      <point x="26" y="629.0" type="curve" smooth="yes"/>
      <point x="26" y="701.0"/>
      <point x="74" y="764.0"/>
      <point x="140" y="764.0" type="curve" smooth="yes"/>
      <point x="206" y="764.0"/>
      <point x="255" y="701"/>
      <point x="255" y="629.0" type="curve" smooth="yes"/>
      <point x="255" y="555.0"/>
      <point x="166" y="350"/>
      <point x="138" y="350.0" type="curve" smooth="yes"/>
    </contour>
  </outline>
</glyph>
<glyph name="parenleft" format="2">
  <advance width="502"/>
  <unicode hex="0028"/>
  <outline>
    <contour>
      <point x="251" y="342" type="curve" smooth="yes"/>
      <point x="251" y="667"/>
      <point x="286" y="726"/>
      <point x="365" y="726" type="curve" smooth="yes"/>
      <point x="388" y="726"/>
      <point x="428" y="711"/>
      <point x="446" y="711" type="curve" smooth="yes"/>
      <point x="471" y="711"/>
      <point x="480" y="724"/>
      <point x="480" y="754" type="curve" smooth="yes"/>
      <point x="480" y="811"/>
      <point x="398" y="830"/>
      <point x="345" y="830" type="curve" smooth="yes"/>
      <point x="131" y="830"/>
      <point x="21" y="693"/>
      <point x="22" y="342" type="curve" smooth="yes"/>
      <point x="23" y="80"/>
      <point x="134" y="-53"/>
      <point x="351" y="-48" type="curve" smooth="yes"/>
      <point x="398" y="-47"/>
      <point x="479" y="-11"/>
      <point x="479" y="27" type="curve" smooth="yes"/>
      <point x="479" y="50"/>
      <point x="468" y="81"/>
      <point x="447" y="81" type="curve" smooth="yes"/>
      <point x="421" y="81"/>
      <point x="406" y="72"/>
      <point x="364" y="72" type="curve" smooth="yes"/>
      <point x="274" y="72"/>
      <point x="251" y="129"/>
    </contour>
  </outline>
</glyph>
<glyph name="parenright" format="2">
  <advance width="502"/>
  <unicode hex="0029"/>
  <outline>
    <contour>
      <point x="251" y="342" type="curve" smooth="yes"/>
      <point x="251" y="667"/>
      <point x="216" y="726"/>
      <point x="137" y="726" type="curve" smooth="yes"/>
      <point x="114" y="726"/>
      <point x="74" y="711"/>
      <point x="56" y="711" type="curve" smooth="yes"/>
      <point x="31" y="711"/>
      <point x="22" y="724"/>
      <point x="22" y="754" type="curve" smooth="yes"/>
      <point x="22" y="811"/>
      <point x="104" y="830"/>
      <point x="157" y="830" type="curve" smooth="yes"/>
      <point x="371" y="830"/>
      <point x="481" y="693"/>
      <point x="480" y="342" type="curve" smooth="yes"/>
      <point x="479" y="80"/>
      <point x="368" y="-53"/>
      <point x="151" y="-48" type="curve" smooth="yes"/>
      <point x="104" y="-47"/>
      <point x="22" y="-21"/>
      <point x="22" y="17" type="curve" smooth="yes"/>
      <point x="22" y="40"/>
      <point x="30" y="80"/>
      <point x="51" y="80" type="curve" smooth="yes"/>
      <point x="77" y="80"/>
      <point x="92" y="71"/>
      <point x="134" y="71" type="curve" smooth="yes"/>
      <point x="224" y="71"/>
      <point x="251" y="129"/>
    </contour>
  </outline>
</glyph>
<glyph name="asterisk" format="2">
  <advance width="469"/>
  <unicode hex="002A"/>
  <outline>
    <contour>
      <point x="169.31315836509094" y="716.0" type="curve" smooth="yes"/>
      <point x="169.31315836509094" y="757.0"/>
      <point x="197.31315836509094" y="764.0"/>
      <point x="234.31315836509094" y="764.0" type="curve" smooth="yes"/>
      <point x="272.31315836509094" y="764.0"/>
      <point x="300.31315836509094" y="757.0"/>
      <point x="300.31315836509094" y="716.0" type="curve" smooth="yes"/>
      <point x="300.31315836509094" y="684.0"/>
      <point x="260.31315836509094" y="561.0"/>
      <point x="250.31315836509094" y="550.0" type="curve" smooth="yes"/>
      <point x="244.31315836509094" y="543.0"/>
      <point x="225.31315836509094" y="543.0"/>
      <point x="218.31315836509094" y="550.0" type="curve" smooth="yes"/>
      <point x="207.31315836509094" y="561.0"/>
      <point x="169.31315836509094" y="684.0"/>
    </contour>
    <contour>
      <point x="355" y="674" type="curve" smooth="yes"/>
      <point x="392" y="692"/>
      <point x="410" y="671"/>
      <point x="426" y="637" type="curve" smooth="yes"/>
      <point x="443" y="603"/>
      <point x="448" y="572"/>
      <point x="412" y="555" type="curve" smooth="yes"/>
      <point x="382" y="541"/>
      <point x="254" y="525"/>
      <point x="240" y="529" type="curve" smooth="yes"/>
      <point x="232" y="533"/>
      <point x="223" y="550"/>
      <point x="227" y="559" type="curve" smooth="yes"/>
      <point x="232" y="573"/>
      <point x="326" y="661"/>
    </contour>
    <contour>
      <point x="113" y="670" type="curve" smooth="yes"/>
      <point x="141" y="657"/>
      <point x="239" y="573"/>
      <point x="245" y="560" type="curve" smooth="yes"/>
      <point x="248" y="551"/>
      <point x="240" y="534"/>
      <point x="232" y="531" type="curve" smooth="yes"/>
      <point x="218" y="526"/>
      <point x="90" y="537"/>
      <point x="60" y="551" type="curve" smooth="yes"/>
      <point x="22" y="568"/>
      <point x="26" y="597"/>
      <point x="42" y="631" type="curve"/>
      <point x="57" y="664"/>
      <point x="74" y="688"/>
    </contour>
    <contour>
      <point x="380" y="446" type="curve" smooth="yes"/>
      <point x="402" y="411"/>
      <point x="383" y="390"/>
      <point x="350" y="370" type="curve" smooth="yes"/>
      <point x="317" y="350"/>
      <point x="290" y="342"/>
      <point x="269" y="377" type="curve" smooth="yes"/>
      <point x="253" y="405"/>
      <point x="222" y="530"/>
      <point x="223" y="544" type="curve" smooth="yes"/>
      <point x="227" y="553"/>
      <point x="242" y="564"/>
      <point x="252" y="561" type="curve" smooth="yes"/>
      <point x="268" y="557"/>
      <point x="364" y="473"/>
    </contour>
    <contour>
      <point x="197" y="376" type="curve" smooth="yes"/>
      <point x="173" y="340"/>
      <point x="147" y="350"/>
      <point x="115" y="370" type="curve" smooth="yes"/>
      <point x="83" y="390"/>
      <point x="65" y="414"/>
      <point x="89" y="448" type="curve" smooth="yes"/>
      <point x="107" y="476"/>
      <point x="210" y="553"/>
      <point x="225" y="558" type="curve" smooth="yes"/>
      <point x="233" y="559"/>
      <point x="249" y="548"/>
      <point x="250" y="539" type="curve" smooth="yes"/>
      <point x="254" y="524"/>
      <point x="214" y="401"/>
    </contour>
  </outline>
</glyph>
<glyph name="plus" format="2">
  <advance width="612"/>
  <unicode hex="002B"/>
  <outline>
    <contour>
      <point x="87.0" y="481" type="curve" smooth="yes"/>
      <point x="160.0" y="481"/>
      <point x="370.0" y="476"/>
      <point x="438.0" y="476" type="curve" smooth="yes"/>
      <point x="469.0" y="476"/>
      <point x="539.0" y="481"/>
      <point x="562.0" y="481" type="curve" smooth="yes"/>
      <point x="592.0" y="481"/>
      <point x="589.0" y="460"/>
      <point x="588.0" y="440" type="curve" smooth="yes"/>
      <point x="584.0" y="378"/>
      <point x="558.0" y="300"/>
      <point x="520.0" y="300" type="curve" smooth="yes"/>
      <point x="491.0" y="300"/>
      <point x="503.0" y="302"/>
      <point x="474.0" y="302" type="curve" smooth="yes"/>
      <point x="402.0" y="302"/>
      <point x="144.0" y="299"/>
      <point x="54.0" y="299" type="curve" smooth="yes"/>
      <point x="31.0" y="299"/>
      <point x="21.0" y="322"/>
      <point x="24.0" y="344" type="curve" smooth="yes"/>
      <point x="31.0" y="406"/>
      <point x="50.0" y="481"/>
    </contour>
    <contour>
      <point x="393" y="157.0" type="curve" smooth="yes"/>
      <point x="393" y="119.0"/>
      <point x="320" y="105.0"/>
      <point x="259" y="98.0" type="curve" smooth="yes"/>
      <point x="238" y="95.0"/>
      <point x="216" y="104.0"/>
      <point x="216" y="128.0" type="curve" smooth="yes"/>
      <point x="216" y="220.0"/>
      <point x="219" y="485.0"/>
      <point x="219" y="559.0" type="curve" smooth="yes"/>
      <point x="219" y="589.0"/>
      <point x="216" y="577.0"/>
      <point x="216" y="607.0" type="curve" smooth="yes"/>
      <point x="216" y="646.0"/>
      <point x="290" y="673.0"/>
      <point x="354" y="677.0" type="curve" smooth="yes"/>
      <point x="373" y="678.0"/>
      <point x="393" y="682.0"/>
      <point x="393" y="651.0" type="curve" smooth="yes"/>
      <point x="393" y="627.0"/>
      <point x="389" y="556.0"/>
      <point x="389" y="523.0" type="curve" smooth="yes"/>
      <point x="389" y="453.0"/>
      <point x="393" y="231.0"/>
    </contour>
  </outline>
</glyph>
<glyph name="comma" format="2">
  <advance width="299"/>
  <unicode hex="002C"/>
  <outline>
    <contour identifier="PJSld4tCVi">
      <point x="124" y="-1" type="curve" smooth="yes"/>
      <point x="77" y="3"/>
      <point x="26" y="56"/>
      <point x="26" y="128" type="curve" smooth="yes"/>
      <point x="26" y="200"/>
      <point x="78" y="263"/>
      <point x="150" y="263" type="curve" smooth="yes"/>
      <point x="222" y="263"/>
      <point x="276" y="200"/>
      <point x="275" y="128" type="curve" smooth="yes"/>
      <point x="274.0" y="37"/>
      <point x="201" y="-94"/>
      <point x="180" y="-121" type="curve" smooth="yes"/>
      <point x="166" y="-140"/>
      <point x="149" y="-151"/>
      <point x="125" y="-151" type="curve" smooth="yes"/>
      <point x="99" y="-151"/>
      <point x="77" y="-130"/>
      <point x="82" y="-111" type="curve" smooth="yes"/>
      <point x="85" y="-100"/>
      <point x="107" y="-73"/>
      <point x="127" y="-41" type="curve" smooth="yes"/>
      <point x="144" y="-14"/>
      <point x="139" y="-2"/>
    </contour>
  </outline>
</glyph>
<glyph name="hyphen" format="2">
  <advance width="435"/>
  <unicode hex="002D"/>
  <outline>
    <contour>
      <point x="89.51770471977645" y="487" type="curve" smooth="yes"/>
      <point x="165.51770471977645" y="487"/>
      <point x="242.51770471977645" y="482"/>
      <point x="314.5177047197765" y="482" type="curve" smooth="yes"/>
      <point x="346.5177047197765" y="482"/>
      <point x="360.5177047197765" y="487"/>
      <point x="384.5177047197765" y="487" type="curve" smooth="yes"/>
      <point x="416.5177047197765" y="487"/>
      <point x="413.5177047197765" y="461"/>
      <point x="412.5177047197765" y="438" type="curve" smooth="yes"/>
      <point x="408.5177047197765" y="361"/>
      <point x="381.5177047197765" y="264"/>
      <point x="340.5177047197765" y="264" type="curve" smooth="yes"/>
      <point x="310.5177047197765" y="264"/>
      <point x="272.5177047197765" y="272"/>
      <point x="241.51770471977645" y="272" type="curve" smooth="yes"/>
      <point x="166.51770471977645" y="272"/>
      <point x="148.51770471977645" y="266"/>
      <point x="53.517704719776454" y="266" type="curve" smooth="yes"/>
      <point x="29.517704719776454" y="266"/>
      <point x="19.517704719776454" y="292"/>
      <point x="22.517704719776454" y="320" type="curve" smooth="yes"/>
      <point x="30.517704719776454" y="395"/>
      <point x="50.517704719776454" y="487"/>
    </contour>
  </outline>
</glyph>
<glyph name="period" format="2">
  <advance width="300"/>
  <unicode hex="002E"/>
  <outline>
    <contour>
      <point x="150.0" y="-2" type="curve" smooth="yes"/>
      <point x="222.0" y="-2"/>
      <point x="280.0" y="56"/>
      <point x="280.0" y="128" type="curve" smooth="yes"/>
      <point x="280.0" y="200"/>
      <point x="222.0" y="258"/>
      <point x="150.0" y="258" type="curve" smooth="yes"/>
      <point x="78.0" y="258"/>
      <point x="20.0" y="200"/>
      <point x="20.0" y="128" type="curve" smooth="yes"/>
      <point x="20.0" y="56"/>
      <point x="78.0" y="-2"/>
    </contour>
  </outline>
</glyph>
<glyph name="slash" format="2">
  <advance width="565"/>
  <unicode hex="002F"/>
  <outline>
    <contour>
      <point x="251" y="-88" type="curve" smooth="yes"/>
      <point x="282" y="-19"/>
      <point x="480" y="608"/>
      <point x="510" y="673" type="curve" smooth="yes"/>
      <point x="523" y="703"/>
      <point x="544" y="746"/>
      <point x="545" y="769" type="curve" smooth="yes"/>
      <point x="547.0" y="804"/>
      <point x="477.0" y="810"/>
      <point x="439.0" y="810" type="curve" smooth="yes"/>
      <point x="392.0" y="810"/>
      <point x="339.0" y="814"/>
      <point x="324.0" y="780" type="curve" smooth="yes"/>
      <point x="312.0" y="753"/>
      <point x="301.0" y="701"/>
      <point x="289.0" y="673" type="curve" smooth="yes"/>
      <point x="258.0" y="605"/>
      <point x="40" y="-36"/>
      <point x="27" y="-81" type="curve" smooth="yes"/>
      <point x="8" y="-147"/>
      <point x="98" y="-148"/>
      <point x="157" y="-145" type="curve" smooth="yes"/>
      <point x="237" y="-141"/>
      <point x="244" y="-102"/>
    </contour>
  </outline>
</glyph>
<glyph name="zero" format="2">
  <advance width="703"/>
  <unicode hex="0030"/>
  <outline>
    <contour>
      <point x="277.0" y="550"/>
      <point x="287.0" y="662"/>
      <point x="328.0" y="662" type="curve" smooth="yes"/>
      <point x="408.0" y="662"/>
      <point x="435.0" y="441"/>
      <point x="435.0" y="264" type="curve" smooth="yes"/>
      <point x="435.0" y="181"/>
      <point x="422.0" y="103"/>
      <point x="376.0" y="103" type="curve" smooth="yes"/>
      <point x="309.0" y="103"/>
      <point x="277.0" y="292"/>
      <point x="277.0" y="472" type="curve" smooth="yes"/>
    </contour>
    <contour>
      <point x="170.0" y="773"/>
      <point x="29.0" y="629"/>
      <point x="29.0" y="409" type="curve" smooth="yes"/>
      <point x="29.0" y="129"/>
      <point x="183.0" y="-25.0"/>
      <point x="361.0" y="-25.0" type="curve" smooth="yes"/>
      <point x="519.0" y="-25.0"/>
      <point x="673.0" y="67"/>
      <point x="673.0" y="326" type="curve" smooth="yes"/>
      <point x="673.0" y="519"/>
      <point x="588.0" y="773"/>
      <point x="339.0" y="773" type="curve" smooth="yes"/>
    </contour>
  </outline>
</glyph>
<glyph name="one" format="2">
  <advance width="497"/>
  <unicode hex="0031"/>
  <outline>
    <contour>
      <point x="148" y="581" type="curve" smooth="yes"/>
      <point x="148.00904754474766" y="94" type="line" smooth="yes"/>
      <point x="148" y="67"/>
      <point x="62.01809508949532" y="93"/>
      <point x="54.01809508949532" y="43" type="curve" smooth="yes"/>
      <point x="49.01809508949532" y="12"/>
      <point x="118.01809508949532" y="-7"/>
      <point x="242.01809508949532" y="-7" type="curve" smooth="yes"/>
      <point x="405.0180950894953" y="-7"/>
      <point x="472.00904754474766" y="4"/>
      <point x="470.0180950894953" y="35" type="curve" smooth="yes"/>
      <point x="467.0180950894953" y="80"/>
      <point x="391" y="71"/>
      <point x="391.0180950894953" y="93" type="curve" smooth="yes"/>
      <point x="391" y="660" type="line" smooth="yes"/>
      <point x="391" y="711"/>
      <point x="438" y="702"/>
      <point x="437" y="747" type="curve" smooth="yes"/>
      <point x="436" y="793"/>
      <point x="316" y="769"/>
      <point x="223" y="742" type="curve" smooth="yes"/>
      <point x="110" y="709"/>
      <point x="28" y="658"/>
      <point x="29" y="633" type="curve" smooth="yes"/>
      <point x="30" y="603"/>
      <point x="66.0" y="592"/>
      <point x="114" y="608" type="curve" smooth="yes"/>
      <point x="138.0" y="616"/>
      <point x="148" y="605"/>
    </contour>
  </outline>
</glyph>
<glyph name="two" format="2">
  <advance width="648"/>
  <unicode hex="0032"/>
  <outline>
    <contour>
      <point x="203.22341665066537" y="355"/>
      <point x="368.2234166506654" y="458"/>
      <point x="369.2234166506654" y="571" type="curve" smooth="yes"/>
      <point x="370.2234166506654" y="680"/>
      <point x="316.2234166506654" y="683"/>
      <point x="292.2234166506654" y="683" type="curve" smooth="yes"/>
      <point x="266.2234166506654" y="683"/>
      <point x="251.22341665066537" y="669"/>
      <point x="251.22341665066537" y="657" type="curve" smooth="yes"/>
      <point x="251.22341665066537" y="634"/>
      <point x="271.2234166506654" y="625"/>
      <point x="271.2234166506654" y="583" type="curve" smooth="yes"/>
      <point x="271.2234166506654" y="521"/>
      <point x="232.22341665066537" y="468"/>
      <point x="145.22341665066537" y="468" type="curve" smooth="yes"/>
      <point x="73.22341665066537" y="468"/>
      <point x="39.22341665066537" y="528"/>
      <point x="39.22341665066537" y="585" type="curve" smooth="yes"/>
      <point x="39.22341665066537" y="650"/>
      <point x="137.22341665066537" y="780"/>
      <point x="311.2234166506654" y="780" type="curve" smooth="yes"/>
      <point x="479.2234166506654" y="780"/>
      <point x="605.2234166506654" y="687"/>
      <point x="605.2234166506654" y="531" type="curve" smooth="yes"/>
      <point x="605.2234166506654" y="358"/>
      <point x="331.2234166506654" y="250"/>
      <point x="331.2234166506654" y="197" type="curve" smooth="yes"/>
      <point x="331.2234166506654" y="174"/>
      <point x="369.2234166506654" y="175"/>
      <point x="408.2234166506654" y="175" type="curve" smooth="yes"/>
      <point x="449.2234166506654" y="175"/>
      <point x="504.2234166506654" y="200"/>
      <point x="518.2234166506654" y="238" type="curve" smooth="yes"/>
      <point x="532.2234166506654" y="275"/>
      <point x="531.2234166506654" y="282"/>
      <point x="556.2234166506654" y="282" type="curve" smooth="yes"/>
      <point x="600.2234166506654" y="281"/>
      <point x="619.2234166506654" y="219"/>
      <point x="622.2234166506654" y="172" type="curve" smooth="yes"/>
      <point x="625.2234166506654" y="123"/>
      <point x="590.2234166506654" y="-9"/>
      <point x="535.2234166506654" y="-9" type="curve"/>
      <point x="506.2234166506654" y="-9"/>
      <point x="506.2234166506654" y="0"/>
      <point x="453.2234166506654" y="0" type="curve" smooth="yes"/>
      <point x="145.22341665066537" y="0" type="line" smooth="yes"/>
      <point x="90.22341665066537" y="0"/>
      <point x="37.22341665066537" y="20"/>
      <point x="28.223416650665374" y="73" type="curve" smooth="yes"/>
      <point x="21.223416650665374" y="114"/>
      <point x="44.22341665066537" y="183"/>
      <point x="98.22341665066537" y="241" type="curve" smooth="yes"/>
    </contour>
  </outline>
</glyph>
<glyph name="three" format="2">
  <advance width="655"/>
  <unicode hex="0033"/>
  <outline>
    <contour>
      <point x="312" y="636" type="curve" smooth="yes"/>
      <point x="349" y="623"/>
      <point x="368" y="562"/>
      <point x="368" y="504" type="curve" smooth="yes"/>
      <point x="368" y="435"/>
      <point x="344" y="410"/>
      <point x="319" y="391" type="curve" smooth="yes"/>
      <point x="284" y="361"/>
      <point x="283" y="316"/>
      <point x="311" y="285" type="curve" smooth="yes"/>
      <point x="340" y="253"/>
      <point x="376" y="217"/>
      <point x="376" y="156" type="curve" smooth="yes"/>
      <point x="376" y="81"/>
      <point x="344" y="29"/>
      <point x="327" y="11" type="curve" smooth="yes"/>
      <point x="305" y="-11"/>
      <point x="267" y="2"/>
      <point x="268" y="23" type="curve" smooth="yes"/>
      <point x="269" y="43"/>
      <point x="304" y="51"/>
      <point x="304" y="132" type="curve" smooth="yes"/>
      <point x="304" y="195"/>
      <point x="236" y="248"/>
      <point x="163" y="248" type="curve" smooth="yes"/>
      <point x="69" y="248"/>
      <point x="21" y="165"/>
      <point x="21" y="106" type="curve" smooth="yes"/>
      <point x="21" y="-6"/>
      <point x="142" y="-74"/>
      <point x="306" y="-74" type="curve" smooth="yes"/>
      <point x="497" y="-74"/>
      <point x="609" y="11"/>
      <point x="609" y="146" type="curve" smooth="yes"/>
      <point x="609" y="261"/>
      <point x="550" y="317"/>
      <point x="512" y="333" type="curve" smooth="yes"/>
      <point x="506" y="335"/>
      <point x="500" y="338"/>
      <point x="500" y="350" type="curve" smooth="yes"/>
      <point x="500" y="359"/>
      <point x="506" y="363"/>
      <point x="512" y="366" type="curve" smooth="yes"/>
      <point x="551" y="392"/>
      <point x="578" y="426"/>
      <point x="578" y="510" type="curve" smooth="yes"/>
      <point x="578" y="650"/>
      <point x="456" y="714"/>
      <point x="305" y="714" type="curve" smooth="yes"/>
      <point x="142" y="714"/>
      <point x="35" y="650"/>
      <point x="35" y="538" type="curve" smooth="yes"/>
      <point x="35" y="481"/>
      <point x="84" y="417"/>
      <point x="167" y="417" type="curve" smooth="yes"/>
      <point x="231" y="417"/>
      <point x="297" y="466"/>
      <point x="298" y="518" type="curve" smooth="yes"/>
      <point x="299" y="597"/>
      <point x="260" y="590"/>
      <point x="260" y="614" type="curve" smooth="yes"/>
      <point x="259" y="637"/>
      <point x="288" y="644"/>
    </contour>
  </outline>
</glyph>
<glyph name="four" format="2">
  <advance width="656"/>
  <unicode hex="0034"/>
  <outline>
    <contour>
      <point x="320.92235237688595" y="94" type="curve" smooth="yes"/>
      <point x="320.92235237688595" y="35" type="line" smooth="yes"/>
      <point x="320.92235237688595" y="5"/>
      <point x="334.92235237688595" y="-12"/>
      <point x="367.92235237688595" y="-12" type="curve" smooth="yes"/>
      <point x="496.92235237688595" y="-12" type="line" smooth="yes"/>
      <point x="527.922352376886" y="-12"/>
      <point x="546.922352376886" y="8"/>
      <point x="546.922352376886" y="36" type="curve" smooth="yes"/>
      <point x="548.922352376886" y="724" type="line" smooth="yes"/>
      <point x="549.922352376886" y="759"/>
      <point x="499.922352376886" y="831"/>
      <point x="431.92235237688595" y="745" type="curve" smooth="yes"/>
      <point x="43.92235237688597" y="260" type="line" smooth="yes"/>
      <point x="-3.077647623114032" y="202"/>
      <point x="-1.0776476231140322" y="131"/>
      <point x="48.92235237688597" y="131" type="curve" smooth="yes"/>
      <point x="284.92235237688595" y="131" type="line" smooth="yes"/>
      <point x="311.92235237688595" y="131"/>
      <point x="320.92235237688595" y="123"/>
    </contour>
    <contour>
      <point x="285.92235237688595" y="258" type="curve" smooth="yes"/>
      <point x="180.92235237688595" y="258" type="line" smooth="yes"/>
      <point x="161.92235237688595" y="258"/>
      <point x="156.92235237688595" y="272"/>
      <point x="166.92235237688595" y="284" type="curve" smooth="yes"/>
      <point x="299.92235237688595" y="455" type="line" smooth="yes"/>
      <point x="308.92235237688595" y="466"/>
      <point x="320.92235237688595" y="462"/>
      <point x="320.92235237688595" y="442" type="curve" smooth="yes"/>
      <point x="320.92235237688595" y="291" type="line" smooth="yes"/>
      <point x="320.92235237688595" y="269"/>
      <point x="310.92235237688595" y="258"/>
    </contour>
    <contour>
      <point x="577.922352376886" y="131" type="curve" smooth="yes"/>
      <point x="612.922352376886" y="131" type="line" smooth="yes"/>
      <point x="623.922352376886" y="131"/>
      <point x="628.922352376886" y="135"/>
      <point x="628.922352376886" y="146" type="curve" smooth="yes"/>
      <point x="628.922352376886" y="246" type="line" smooth="yes"/>
      <point x="628.922352376886" y="257"/>
      <point x="621.922352376886" y="262"/>
      <point x="611.922352376886" y="262" type="curve" smooth="yes"/>
      <point x="577.922352376886" y="262" type="line" smooth="yes"/>
      <point x="561.922352376886" y="262"/>
      <point x="547.922352376886" y="271"/>
      <point x="547.922352376886" y="292" type="curve" smooth="yes"/>
      <point x="547.922352376886" y="309" type="line"/>
      <point x="526.922352376886" y="296" type="line"/>
      <point x="528.922352376886" y="79" type="line"/>
      <point x="546.922352376886" y="81" type="line"/>
      <point x="546.922352376886" y="97" type="line" smooth="yes"/>
      <point x="546.922352376886" y="118"/>
      <point x="560.922352376886" y="131"/>
    </contour>
  </outline>
</glyph>
<glyph name="five" format="2">
  <advance width="695"/>
  <unicode hex="0035"/>
  <outline>
    <contour>
      <point x="317" y="473" type="curve" smooth="yes"/>
      <point x="289" y="479"/>
      <point x="249" y="490"/>
      <point x="239" y="502" type="curve" smooth="yes"/>
      <point x="229" y="513"/>
      <point x="229" y="530"/>
      <point x="241" y="541" type="curve" smooth="yes"/>
      <point x="264" y="562"/>
      <point x="310" y="562"/>
      <point x="365" y="556" type="curve" smooth="yes"/>
      <point x="487" y="543"/>
      <point x="552" y="450"/>
      <point x="601" y="475" type="curve" smooth="yes"/>
      <point x="655" y="503"/>
      <point x="623.0" y="693.0"/>
      <point x="554" y="693" type="curve" smooth="yes"/>
      <point x="195" y="693" type="line" smooth="yes"/>
      <point x="140" y="693"/>
      <point x="96" y="669"/>
      <point x="91" y="621" type="curve" smooth="yes"/>
      <point x="73" y="430" type="line" smooth="yes"/>
      <point x="66" y="360"/>
      <point x="77" y="340"/>
      <point x="126" y="334" type="curve" smooth="yes"/>
      <point x="237" y="321"/>
      <point x="392" y="266"/>
      <point x="391" y="150" type="curve" smooth="yes"/>
      <point x="390" y="57"/>
      <point x="357" y="35"/>
      <point x="343" y="25" type="curve" smooth="yes"/>
      <point x="317" y="7"/>
      <point x="293" y="24"/>
      <point x="300" y="41" type="curve" smooth="yes"/>
      <point x="306" y="55"/>
      <point x="333" y="62"/>
      <point x="333" y="132" type="curve" smooth="yes"/>
      <point x="333" y="195"/>
      <point x="256" y="261"/>
      <point x="183" y="261" type="curve" smooth="yes"/>
      <point x="77" y="261"/>
      <point x="31" y="173"/>
      <point x="31" y="114" type="curve" smooth="yes"/>
      <point x="31" y="-14"/>
      <point x="146" y="-77"/>
      <point x="323" y="-77" type="curve" smooth="yes"/>
      <point x="510" y="-77"/>
      <point x="644" y="44"/>
      <point x="646" y="179" type="curve" smooth="yes"/>
      <point x="649" y="381"/>
      <point x="500" y="434"/>
    </contour>
  </outline>
</glyph>
<glyph name="six" format="2">
  <advance width="628"/>
  <unicode hex="0036"/>
  <outline>
    <contour>
      <point x="282" y="365.0"/>
      <point x="273" y="307.0"/>
      <point x="273" y="266.0" type="curve" smooth="yes"/>
      <point x="273" y="172.0"/>
      <point x="299" y="73.0"/>
      <point x="353" y="73.0" type="curve" smooth="yes"/>
      <point x="390" y="73.0"/>
      <point x="400" y="114.0"/>
      <point x="400" y="156.0" type="curve" smooth="yes"/>
      <point x="400" y="251.0"/>
      <point x="377" y="365.0"/>
      <point x="316" y="365.0" type="curve" smooth="yes"/>
    </contour>
    <contour>
      <point x="229" y="705" type="curve" smooth="yes"/>
      <point x="253" y="729"/>
      <point x="272" y="732"/>
      <point x="301" y="725" type="curve" smooth="yes"/>
      <point x="340" y="715.0"/>
      <point x="370" y="704"/>
      <point x="391" y="689" type="curve" smooth="yes"/>
      <point x="403" y="681"/>
      <point x="406" y="665"/>
      <point x="399" y="652" type="curve" smooth="yes"/>
      <point x="384" y="624"/>
      <point x="324" y="534"/>
      <point x="323" y="510.0" type="curve" smooth="yes"/>
      <point x="322" y="488"/>
      <point x="342" y="471"/>
      <point x="382" y="469.0" type="curve" smooth="yes"/>
      <point x="535" y="463"/>
      <point x="608" y="330"/>
      <point x="608" y="209.0" type="curve" smooth="yes"/>
      <point x="608" y="60"/>
      <point x="500" y="-25.0"/>
      <point x="338" y="-25.0" type="curve" smooth="yes"/>
      <point x="176" y="-25"/>
      <point x="38" y="71.0"/>
      <point x="38" y="245.0" type="curve" smooth="yes"/>
      <point x="38" y="412.0"/>
      <point x="153" y="630"/>
    </contour>
  </outline>
</glyph>
<glyph name="seven" format="2">
  <advance width="625"/>
  <unicode hex="0037"/>
  <outline>
    <contour>
      <point x="602" y="672" type="line" smooth="yes"/>
      <point x="615" y="719"/>
      <point x="565" y="762"/>
      <point x="510" y="762" type="curve" smooth="yes"/>
      <point x="197" y="762" type="line" smooth="yes"/>
      <point x="145" y="762"/>
      <point x="145" y="770"/>
      <point x="115" y="770" type="curve" smooth="yes"/>
      <point x="60.0" y="770.0"/>
      <point x="24" y="647"/>
      <point x="27" y="602" type="curve" smooth="yes"/>
      <point x="30" y="559"/>
      <point x="44" y="485"/>
      <point x="103" y="485" type="curve" smooth="yes"/>
      <point x="141" y="485"/>
      <point x="149" y="502"/>
      <point x="164" y="537" type="curve" smooth="yes"/>
      <point x="178" y="572"/>
      <point x="176" y="612"/>
      <point x="259" y="612" type="curve" smooth="yes"/>
      <point x="350" y="612"/>
      <point x="344" y="569"/>
      <point x="325" y="519" type="curve" smooth="yes"/>
      <point x="168" y="101" type="line" smooth="yes"/>
      <point x="156" y="70"/>
      <point x="165" y="24"/>
      <point x="206" y="15" type="curve" smooth="yes"/>
      <point x="334" y="-12" type="line" smooth="yes"/>
      <point x="377" y="-21"/>
      <point x="412" y="-5"/>
      <point x="425" y="40" type="curve" smooth="yes"/>
    </contour>
  </outline>
</glyph>
<glyph name="eight" format="2">
  <advance width="678"/>
  <unicode hex="0038"/>
  <outline>
    <contour>
      <point x="342" y="780.0" type="curve" smooth="yes"/>
      <point x="622" y="780.0"/>
      <point x="675" y="557.0"/>
      <point x="542" y="407.0" type="curve" smooth="yes"/>
      <point x="514" y="375"/>
      <point x="486" y="368.0"/>
      <point x="464" y="381.0" type="curve" smooth="yes"/>
      <point x="417" y="409"/>
      <point x="386" y="418"/>
      <point x="425" y="483.0" type="curve" smooth="yes"/>
      <point x="458" y="538.0"/>
      <point x="443" y="661.0"/>
      <point x="334" y="661.0" type="curve" smooth="yes"/>
      <point x="287" y="661"/>
      <point x="275" y="641.0"/>
      <point x="274" y="606.0" type="curve" smooth="yes"/>
      <point x="272" y="544.0"/>
      <point x="375" y="511.0"/>
      <point x="463" y="458.0" type="curve" smooth="yes"/>
      <point x="577" y="392.0"/>
      <point x="656" y="332.0"/>
      <point x="656" y="203.0" type="curve" smooth="yes"/>
      <point x="656" y="96.0"/>
      <point x="609" y="-33.0"/>
      <point x="352" y="-33.0" type="curve" smooth="yes"/>
      <point x="111" y="-33.0"/>
      <point x="23" y="93.0"/>
      <point x="23" y="218.0" type="curve" smooth="yes"/>
      <point x="23" y="363.0"/>
      <point x="210" y="444.0"/>
      <point x="230" y="423.0" type="curve" smooth="yes"/>
      <point x="243" y="409.0"/>
      <point x="294" y="319"/>
      <point x="246" y="280.0" type="curve" smooth="yes"/>
      <point x="201" y="243"/>
      <point x="191" y="156.0"/>
      <point x="292" y="121.0" type="curve" smooth="yes"/>
      <point x="377" y="92"/>
      <point x="421" y="109"/>
      <point x="423" y="144.0" type="curve" smooth="yes"/>
      <point x="427" y="213.0"/>
      <point x="354" y="207.0"/>
      <point x="250" y="275.0" type="curve" smooth="yes"/>
      <point x="156" y="337"/>
      <point x="50" y="422.0"/>
      <point x="50" y="549.0" type="curve" smooth="yes"/>
      <point x="50" y="617.0"/>
      <point x="95" y="780.0"/>
    </contour>
  </outline>
</glyph>
<glyph name="nine" format="2">
  <advance width="626"/>
  <unicode hex="0039"/>
  <outline>
    <contour>
      <point x="356" y="344.0"/>
      <point x="366" y="402.0"/>
      <point x="368" y="443.0" type="curve" smooth="yes"/>
      <point x="370" y="538.0"/>
      <point x="343" y="637.0"/>
      <point x="285" y="638.0" type="curve" smooth="yes"/>
      <point x="246" y="639.0"/>
      <point x="235" y="598.0"/>
      <point x="234" y="556.0" type="curve" smooth="yes"/>
      <point x="231" y="460.0"/>
      <point x="254" y="346.0"/>
      <point x="319" y="344.0" type="curve" smooth="yes"/>
    </contour>
    <contour>
      <point x="374.37399337287843" y="2" type="curve" smooth="yes"/>
      <point x="349.37399337287843" y="-20"/>
      <point x="330.37399337287843" y="-22"/>
      <point x="301.37399337287843" y="-14" type="curve" smooth="yes"/>
      <point x="263.37399337287843" y="-2"/>
      <point x="234.37399337287846" y="11"/>
      <point x="213.37399337287846" y="27" type="curve" smooth="yes"/>
      <point x="202.37399337287846" y="36"/>
      <point x="200.37399337287846" y="52"/>
      <point x="207.37399337287846" y="64" type="curve" smooth="yes"/>
      <point x="224.37399337287846" y="91"/>
      <point x="289.37399337287843" y="178"/>
      <point x="291.37399337287843" y="202" type="curve" smooth="yes"/>
      <point x="293.37399337287843" y="224"/>
      <point x="274.37399337287843" y="242"/>
      <point x="234.37399337287846" y="246" type="curve" smooth="yes"/>
      <point x="82.37399337287846" y="260"/>
      <point x="16.37399337287846" y="397"/>
      <point x="22.37399337287846" y="518" type="curve" smooth="yes"/>
      <point x="30.37399337287846" y="667"/>
      <point x="143.37399337287846" y="746"/>
      <point x="304.37399337287843" y="737" type="curve" smooth="yes"/>
      <point x="466.37399337287843" y="728"/>
      <point x="599.3739933728784" y="625"/>
      <point x="590.3739933728784" y="451" type="curve" smooth="yes"/>
      <point x="581.3739933728784" y="285"/>
      <point x="454.37399337287843" y="73"/>
    </contour>
  </outline>
</glyph>
<glyph name="colon" format="2">
  <advance width="300"/>
  <unicode hex="003A"/>
  <outline>
    <contour>
      <point x="150.0" y="-2.0" type="curve" smooth="yes"/>
      <point x="222.0" y="-2.0"/>
      <point x="280.0" y="55"/>
      <point x="280.0" y="125" type="curve" smooth="yes"/>
      <point x="280.0" y="195"/>
      <point x="222.0" y="251"/>
      <point x="150.0" y="251" type="curve" smooth="yes"/>
      <point x="78.0" y="251"/>
      <point x="20.0" y="195"/>
      <point x="20.0" y="125" type="curve" smooth="yes"/>
      <point x="20.0" y="55"/>
      <point x="78.0" y="-2.0"/>
    </contour>
    <contour>
      <point x="150.0" y="347" type="curve" smooth="yes"/>
      <point x="222.0" y="347"/>
      <point x="280.0" y="404"/>
      <point x="280.0" y="474" type="curve" smooth="yes"/>
      <point x="280.0" y="544"/>
      <point x="222.0" y="600"/>
      <point x="150.0" y="600" type="curve" smooth="yes"/>
      <point x="78.0" y="600"/>
      <point x="20.0" y="544"/>
      <point x="20.0" y="474" type="curve" smooth="yes"/>
      <point x="20.0" y="404"/>
      <point x="78.0" y="347"/>
    </contour>
  </outline>
</glyph>
<glyph name="semicolon" format="2">
  <advance width="299"/>
  <unicode hex="003B"/>
  <outline>
    <contour identifier="PJSld4tCVi">
      <point x="124" y="-1" type="curve" smooth="yes"/>
      <point x="77" y="3"/>
      <point x="26" y="56"/>
      <point x="26" y="128" type="curve" smooth="yes"/>
      <point x="26" y="200"/>
      <point x="78" y="263"/>
      <point x="150" y="263" type="curve" smooth="yes"/>
      <point x="222" y="263"/>
      <point x="276" y="200"/>
      <point x="275" y="128" type="curve" smooth="yes"/>
      <point x="274.0" y="37"/>
      <point x="201" y="-94"/>
      <point x="180" y="-121" type="curve" smooth="yes"/>
      <point x="166" y="-140"/>
      <point x="149" y="-151"/>
      <point x="125" y="-151" type="curve" smooth="yes"/>
      <point x="99" y="-151"/>
      <point x="77" y="-130"/>
      <point x="82" y="-111" type="curve" smooth="yes"/>
      <point x="85" y="-100"/>
      <point x="107" y="-73"/>
      <point x="127" y="-41" type="curve" smooth="yes"/>
      <point x="144" y="-14"/>
      <point x="139" y="-2"/>
    </contour>
    <contour>
      <point x="150.0" y="347" type="curve" smooth="yes"/>
      <point x="222.0" y="347"/>
      <point x="280.0" y="404"/>
      <point x="280.0" y="474" type="curve" smooth="yes"/>
      <point x="280.0" y="544"/>
      <point x="222.0" y="600"/>
      <point x="150.0" y="600" type="curve" smooth="yes"/>
      <point x="78.0" y="600"/>
      <point x="20.0" y="544"/>
      <point x="20.0" y="474" type="curve" smooth="yes"/>
      <point x="20.0" y="404"/>
      <point x="78.0" y="347"/>
    </contour>
  </outline>
</glyph>
<glyph name="question" format="2">
  <advance width="635"/>
  <unicode hex="003F"/>
  <outline>
    <contour>
      <point x="374" y="642.0" type="curve" smooth="yes"/>
      <point x="374" y="687.0"/>
      <point x="365" y="729"/>
      <point x="313" y="729.0" type="curve" smooth="yes"/>
      <point x="286" y="729.0"/>
      <point x="275" y="713.0"/>
      <point x="275" y="701.0" type="curve" smooth="yes"/>
      <point x="275" y="688.0"/>
      <point x="289" y="675.0"/>
      <point x="289" y="646.0" type="curve" smooth="yes"/>
      <point x="289" y="593.0"/>
      <point x="232" y="542.0"/>
      <point x="171" y="542.0" type="curve" smooth="yes"/>
      <point x="99" y="542.0"/>
      <point x="45" y="598.0"/>
      <point x="45" y="650.0" type="curve" smooth="yes"/>
      <point x="45" y="721.0"/>
      <point x="105" y="794.0"/>
      <point x="310" y="794.0" type="curve" smooth="yes"/>
      <point x="454" y="794.0"/>
      <point x="581" y="740.0"/>
      <point x="581" y="591.0" type="curve" smooth="yes"/>
      <point x="581" y="493.0"/>
      <point x="472.0" y="418"/>
      <point x="411.0" y="369" type="curve" smooth="yes"/>
      <point x="391.0" y="353"/>
      <point x="382.0" y="333"/>
      <point x="378.0" y="322" type="curve" smooth="yes"/>
      <point x="368.0" y="293"/>
      <point x="347.0" y="285"/>
      <point x="301.0" y="286" type="curve" smooth="yes"/>
      <point x="262.0" y="286"/>
      <point x="226.0" y="278"/>
      <point x="226.0" y="380" type="curve" smooth="yes"/>
      <point x="226.0" y="466"/>
      <point x="375" y="547.0"/>
    </contour>
    <contour>
      <point x="311.0" y="-2.0" type="curve" smooth="yes"/>
      <point x="383.0" y="-2.0"/>
      <point x="441.0" y="55"/>
      <point x="441.0" y="125" type="curve" smooth="yes"/>
      <point x="441.0" y="195"/>
      <point x="383.0" y="251"/>
      <point x="311.0" y="251" type="curve" smooth="yes"/>
      <point x="239.0" y="251"/>
      <point x="181.0" y="195"/>
      <point x="181.0" y="125" type="curve" smooth="yes"/>
      <point x="181.0" y="55"/>
      <point x="239.0" y="-2.0"/>
    </contour>
  </outline>
</glyph>
<glyph name="at" format="2">
  <advance width="985"/>
  <unicode hex="0040"/>
  <outline>
    <contour>
      <point x="449" y="165.0" type="curve" smooth="yes"/>
      <point x="424" y="169.0"/>
      <point x="401" y="215.0"/>
      <point x="426" y="346.0" type="curve" smooth="yes"/>
      <point x="448" y="472.0"/>
      <point x="474" y="518.0"/>
      <point x="505" y="517.0" type="curve" smooth="yes"/>
      <point x="533" y="516.0"/>
      <point x="531" y="479"/>
      <point x="527" y="456.0" type="curve" smooth="yes"/>
      <point x="484" y="209.0" type="line" smooth="yes"/>
      <point x="481" y="191"/>
      <point x="465" y="163.0"/>
    </contour>
    <contour>
      <point x="667" y="167" type="curve" smooth="yes"/>
      <point x="725" y="485" type="line" smooth="yes"/>
      <point x="734" y="536"/>
      <point x="758" y="572"/>
      <point x="749" y="581" type="curve" smooth="yes"/>
      <point x="722" y="608"/>
      <point x="680" y="576"/>
      <point x="658" y="576" type="curve" smooth="yes"/>
      <point x="637" y="576"/>
      <point x="592" y="606"/>
      <point x="508" y="606" type="curve" smooth="yes"/>
      <point x="395" y="606"/>
      <point x="248" y="529"/>
      <point x="213" y="336" type="curve" smooth="yes"/>
      <point x="190" y="207"/>
      <point x="227" y="64"/>
      <point x="355" y="64" type="curve" smooth="yes"/>
      <point x="428.0" y="64.0"/>
      <point x="452" y="117"/>
      <point x="493" y="76" type="curve" smooth="yes"/>
      <point x="509" y="60" type="line" smooth="yes"/>
      <point x="559" y="10"/>
      <point x="600" y="4"/>
      <point x="651" y="3" type="curve" smooth="yes"/>
      <point x="802" y="1"/>
      <point x="956" y="140"/>
      <point x="959" y="351" type="curve" smooth="yes"/>
      <point x="962" y="558"/>
      <point x="845" y="796"/>
      <point x="505" y="794" type="curve" smooth="yes"/>
      <point x="220" y="792"/>
      <point x="32" y="530"/>
      <point x="32" y="310" type="curve" smooth="yes"/>
      <point x="32" y="-25"/>
      <point x="288" y="-147"/>
      <point x="521" y="-147" type="curve" smooth="yes"/>
      <point x="848" y="-147"/>
      <point x="931" y="-31"/>
      <point x="931" y="10" type="curve" smooth="yes"/>
      <point x="931" y="39"/>
      <point x="912" y="48"/>
      <point x="894" y="48" type="curve" smooth="yes"/>
      <point x="879" y="48"/>
      <point x="863" y="32"/>
      <point x="854" y="28" type="curve" smooth="yes"/>
      <point x="771" y="-13"/>
      <point x="704" y="-43"/>
      <point x="546" y="-44" type="curve" smooth="yes"/>
      <point x="352" y="-44"/>
      <point x="145" y="30"/>
      <point x="145" y="298" type="curve" smooth="yes"/>
      <point x="145" y="510"/>
      <point x="327" y="694"/>
      <point x="505" y="695" type="curve" smooth="yes"/>
      <point x="721" y="696"/>
      <point x="855" y="578"/>
      <point x="855" y="350" type="curve" smooth="yes"/>
      <point x="855" y="237"/>
      <point x="780" y="101"/>
      <point x="692" y="101" type="curve" smooth="yes"/>
      <point x="674" y="101"/>
      <point x="660" y="127"/>
    </contour>
  </outline>
</glyph>
<glyph name="A" format="2">
  <advance width="803"/>
  <unicode hex="0041"/>
  <outline>
    <contour>
      <point x="606" y="-16" type="curve" smooth="yes"/>
      <point x="677" y="-16"/>
      <point x="782" y="-5"/>
      <point x="782" y="20" type="curve" smooth="yes"/>
      <point x="782" y="48"/>
      <point x="750" y="42"/>
      <point x="741" y="68" type="curve" smooth="yes"/>
      <point x="543" y="622" type="line" smooth="yes"/>
      <point x="509" y="718"/>
      <point x="469" y="773"/>
      <point x="330" y="773" type="curve" smooth="yes"/>
      <point x="272" y="773"/>
      <point x="212" y="735"/>
      <point x="212" y="688" type="curve" smooth="yes"/>
      <point x="212" y="642"/>
      <point x="233" y="650"/>
      <point x="217" y="592" type="curve" smooth="yes"/>
      <point x="76" y="72" type="line" smooth="yes"/>
      <point x="68" y="44"/>
      <point x="18" y="59"/>
      <point x="18" y="18" type="curve" smooth="yes"/>
      <point x="18" y="-3"/>
      <point x="76" y="-16"/>
      <point x="164" y="-16" type="curve" smooth="yes"/>
      <point x="285" y="-16"/>
      <point x="317" y="-8"/>
      <point x="317" y="19" type="curve" smooth="yes"/>
      <point x="317" y="51"/>
      <point x="229" y="41.0"/>
      <point x="236" y="73.0" type="curve" smooth="yes"/>
      <point x="297" y="363.0" type="line" smooth="yes"/>
      <point x="311" y="426.0"/>
      <point x="313" y="472.0"/>
      <point x="341" y="472.0" type="curve" smooth="yes"/>
      <point x="366" y="472.0"/>
      <point x="368" y="430"/>
      <point x="386" y="364" type="curve" smooth="yes"/>
      <point x="461" y="70" type="line" smooth="yes"/>
      <point x="469" y="42"/>
      <point x="421" y="51"/>
      <point x="421" y="19" type="curve" smooth="yes"/>
      <point x="421" y="-9"/>
      <point x="536" y="-16"/>
    </contour>
    <contour>
      <point x="280" y="284.0" type="curve" smooth="yes"/>
      <point x="284" y="302.0" type="line"/>
      <point x="232" y="311.0" type="line"/>
      <point x="243" y="195.0" type="line"/>
      <point x="258" y="180.0" type="line"/>
      <point x="261" y="194.0" type="line" smooth="yes"/>
      <point x="263" y="205.0"/>
      <point x="269" y="213.0"/>
      <point x="281" y="213.0" type="curve" smooth="yes"/>
      <point x="407" y="213" type="line" smooth="yes"/>
      <point x="417" y="213"/>
      <point x="426" y="208"/>
      <point x="430" y="195" type="curve" smooth="yes"/>
      <point x="434" y="179" type="line"/>
      <point x="480" y="208" type="line"/>
      <point x="444" y="320" type="line"/>
      <point x="402" y="302" type="line"/>
      <point x="406" y="284" type="line" smooth="yes"/>
      <point x="408" y="278"/>
      <point x="404" y="275"/>
      <point x="398" y="275" type="curve" smooth="yes"/>
      <point x="291" y="275.0" type="line" smooth="yes"/>
      <point x="283" y="275.0"/>
      <point x="279" y="278.0"/>
    </contour>
  </outline>
</glyph>
<glyph name="B" format="2">
  <advance width="700"/>
  <unicode hex="0042"/>
  <outline>
    <contour>
      <point x="438" y="-2.0" type="curve" smooth="yes"/>
      <point x="192" y="-2" type="line" smooth="yes"/>
      <point x="71" y="-2"/>
      <point x="45" y="15"/>
      <point x="45" y="38" type="curve" smooth="yes"/>
      <point x="45" y="68"/>
      <point x="74" y="62"/>
      <point x="74" y="84" type="curve" smooth="yes"/>
      <point x="74" y="657" type="line" smooth="yes"/>
      <point x="74" y="665"/>
      <point x="40" y="689"/>
      <point x="40" y="709" type="curve" smooth="yes"/>
      <point x="40" y="729"/>
      <point x="78" y="753"/>
      <point x="179" y="753" type="curve" smooth="yes"/>
      <point x="431" y="753.0" type="line" smooth="yes"/>
      <point x="522" y="753.0"/>
      <point x="636" y="691.0"/>
      <point x="636" y="555.0" type="curve" smooth="yes"/>
      <point x="636" y="474.0"/>
      <point x="606" y="440.0"/>
      <point x="565" y="417.0" type="curve" smooth="yes"/>
      <point x="559" y="414.0"/>
      <point x="553" y="409.0"/>
      <point x="553" y="400.0" type="curve" smooth="yes"/>
      <point x="553" y="389.0"/>
      <point x="559" y="385.0"/>
      <point x="565" y="383.0" type="curve" smooth="yes"/>
      <point x="609" y="368.0"/>
      <point x="667" y="313.0"/>
      <point x="667" y="201.0" type="curve"/>
      <point x="667" y="69.0"/>
      <point x="545" y="-2.0"/>
    </contour>
    <contour>
      <point x="328.0" y="657" type="curve" smooth="yes"/>
      <point x="313" y="653"/>
      <point x="306.0" y="630"/>
      <point x="306.0" y="543" type="curve" smooth="yes"/>
      <point x="306.0" y="464"/>
      <point x="313" y="434"/>
      <point x="328.0" y="429" type="curve" smooth="yes"/>
      <point x="343" y="424"/>
      <point x="353" y="425"/>
      <point x="362.0" y="429" type="curve" smooth="yes"/>
      <point x="385" y="439"/>
      <point x="416.0" y="483"/>
      <point x="416.0" y="542" type="curve" smooth="yes"/>
      <point x="416.0" y="607"/>
      <point x="389" y="651"/>
      <point x="362.0" y="657" type="curve" smooth="yes"/>
      <point x="352" y="659"/>
      <point x="340" y="660"/>
    </contour>
    <contour>
      <point x="328.0" y="336" type="curve" smooth="yes"/>
      <point x="313" y="332"/>
      <point x="306.0" y="304"/>
      <point x="306.0" y="217" type="curve" smooth="yes"/>
      <point x="306.0" y="138"/>
      <point x="311" y="102"/>
      <point x="327.0" y="97" type="curve" smooth="yes"/>
      <point x="340" y="93"/>
      <point x="355" y="94"/>
      <point x="362.0" y="97" type="curve" smooth="yes"/>
      <point x="385" y="107"/>
      <point x="416.0" y="157"/>
      <point x="416.0" y="216" type="curve" smooth="yes"/>
      <point x="416.0" y="281"/>
      <point x="389" y="330"/>
      <point x="362.0" y="336" type="curve" smooth="yes"/>
      <point x="352" y="338"/>
      <point x="340" y="339"/>
    </contour>
  </outline>
</glyph>
<glyph name="C" format="2">
  <advance width="754"/>
  <unicode hex="0043"/>
  <outline>
    <contour>
      <point x="475" y="-25"/>
      <point x="551" y="27"/>
      <point x="564" y="26" type="curve" smooth="yes"/>
      <point x="591" y="24"/>
      <point x="638" y="63"/>
      <point x="646" y="134" type="curve" smooth="yes"/>
      <point x="650" y="169"/>
      <point x="648" y="236"/>
      <point x="601" y="236" type="curve" smooth="yes"/>
      <point x="561" y="236"/>
      <point x="524" y="112"/>
      <point x="425" y="112" type="curve" smooth="yes"/>
      <point x="332" y="112"/>
      <point x="275" y="310"/>
      <point x="277" y="463" type="curve" smooth="yes"/>
      <point x="279" y="603"/>
      <point x="320" y="660"/>
      <point x="365" y="660" type="curve" smooth="yes"/>
      <point x="394" y="660"/>
      <point x="430" y="653"/>
      <point x="477" y="616" type="curve" smooth="yes"/>
      <point x="513" y="588"/>
      <point x="549" y="505"/>
      <point x="610" y="505" type="curve" smooth="yes"/>
      <point x="639" y="505"/>
      <point x="659" y="531"/>
      <point x="659" y="558" type="curve" smooth="yes"/>
      <point x="659" y="620"/>
      <point x="614" y="763"/>
      <point x="551" y="763" type="curve" smooth="yes"/>
      <point x="522" y="763"/>
      <point x="493" y="739"/>
      <point x="476" y="746" type="curve" smooth="yes"/>
      <point x="454" y="755"/>
      <point x="418" y="774"/>
      <point x="380" y="774" type="curve" smooth="yes"/>
      <point x="191" y="774"/>
      <point x="27" y="645"/>
      <point x="27" y="410" type="curve" smooth="yes"/>
      <point x="27" y="130"/>
      <point x="202" y="-25"/>
      <point x="405" y="-25" type="curve" smooth="yes"/>
    </contour>
  </outline>
</glyph>
<glyph name="D" format="2">
  <advance width="738"/>
  <unicode hex="0044"/>
  <outline>
    <contour>
      <point x="179" y="754" type="curve"/>
      <point x="78" y="754"/>
      <point x="40" y="730"/>
      <point x="40" y="710" type="curve" smooth="yes"/>
      <point x="40" y="690"/>
      <point x="74.0" y="670.0"/>
      <point x="74" y="662" type="curve" smooth="yes"/>
      <point x="74" y="84.0" type="line" smooth="yes"/>
      <point x="74" y="65"/>
      <point x="40" y="65"/>
      <point x="40" y="37" type="curve"/>
      <point x="40" y="14"/>
      <point x="100" y="-8"/>
      <point x="179" y="-5" type="curve" smooth="yes"/>
      <point x="249" y="-2"/>
      <point x="352" y="-3"/>
      <point x="433" y="-5" type="curve" smooth="yes"/>
      <point x="594" y="-9"/>
      <point x="701" y="147"/>
      <point x="701" y="395" type="curve" smooth="yes"/>
      <point x="701" y="584"/>
      <point x="569" y="758"/>
      <point x="422" y="754" type="curve" smooth="yes"/>
      <point x="343" y="752"/>
      <point x="254" y="755"/>
    </contour>
    <contour>
      <point x="342" y="630" type="curve" smooth="yes"/>
      <point x="355" y="630" type="line" smooth="yes"/>
      <point x="394.0" y="630.0"/>
      <point x="443" y="482"/>
      <point x="443" y="377" type="curve" smooth="yes"/>
      <point x="443" y="219"/>
      <point x="393.0" y="110.0"/>
      <point x="352" y="110" type="curve" smooth="yes"/>
      <point x="336" y="110" type="line" smooth="yes"/>
      <point x="318" y="110"/>
      <point x="312" y="152"/>
      <point x="312" y="389" type="curve" smooth="yes"/>
      <point x="312" y="586"/>
      <point x="322" y="630"/>
    </contour>
  </outline>
</glyph>
<glyph name="E" format="2">
  <advance width="652"/>
  <unicode hex="0045"/>
  <guideline x="220" y="665" angle="0" identifier="0mbWre9nhW"/>
  <outline>
    <contour>
      <point x="313" y="142" type="curve" smooth="yes"/>
      <point x="313" y="615" type="line" smooth="yes"/>
      <point x="313" y="641"/>
      <point x="326" y="657"/>
      <point x="348" y="657" type="curve" smooth="yes"/>
      <point x="392" y="657"/>
      <point x="397" y="662"/>
      <point x="435" y="649" type="curve" smooth="yes"/>
      <point x="472" y="636"/>
      <point x="523" y="533"/>
      <point x="577" y="533" type="curve" smooth="yes"/>
      <point x="602" y="533"/>
      <point x="612" y="551"/>
      <point x="612" y="578" type="curve" smooth="yes"/>
      <point x="612" y="640"/>
      <point x="563" y="766"/>
      <point x="507" y="766" type="curve" smooth="yes"/>
      <point x="481" y="766"/>
      <point x="455" y="752"/>
      <point x="439" y="750" type="curve" smooth="yes"/>
      <point x="412" y="747"/>
      <point x="238" y="754"/>
      <point x="186" y="754" type="curve" smooth="yes"/>
      <point x="86" y="754"/>
      <point x="40" y="731"/>
      <point x="40" y="711" type="curve" smooth="yes"/>
      <point x="40" y="694"/>
      <point x="74" y="673"/>
      <point x="74" y="665" type="curve" smooth="yes"/>
      <point x="74" y="83" type="line" smooth="yes"/>
      <point x="74" y="61"/>
      <point x="41" y="67"/>
      <point x="41" y="38" type="curve"/>
      <point x="41" y="15"/>
      <point x="98" y="-7"/>
      <point x="190" y="-6" type="curve" smooth="yes"/>
      <point x="218" y="-6"/>
      <point x="452" y="-1"/>
      <point x="464" y="-1" type="curve" smooth="yes"/>
      <point x="484" y="-1"/>
      <point x="514" y="-6"/>
      <point x="533" y="-6" type="curve" smooth="yes"/>
      <point x="547" y="-6"/>
      <point x="558" y="-3"/>
      <point x="565" y="4" type="curve" smooth="yes"/>
      <point x="583" y="23"/>
      <point x="630" y="136"/>
      <point x="630" y="200" type="curve" smooth="yes"/>
      <point x="630" y="243"/>
      <point x="603" y="261"/>
      <point x="589" y="261" type="curve" smooth="yes"/>
      <point x="528" y="261"/>
      <point x="499" y="128"/>
      <point x="466" y="116" type="curve" smooth="yes"/>
      <point x="429" y="102"/>
      <point x="419" y="102"/>
      <point x="350" y="102" type="curve" smooth="yes"/>
      <point x="323" y="102"/>
      <point x="313" y="122"/>
    </contour>
    <contour>
      <point x="339" y="446" type="line" smooth="yes"/>
      <point x="325" y="446"/>
      <point x="313" y="459"/>
      <point x="313" y="481" type="curve"/>
      <point x="313" y="329" type="line"/>
      <point x="313" y="347"/>
      <point x="324" y="357"/>
      <point x="339" y="357" type="curve" smooth="yes"/>
      <point x="399" y="357" type="line" smooth="yes"/>
      <point x="409.0" y="357.0"/>
      <point x="422" y="347"/>
      <point x="422" y="319" type="curve" smooth="yes"/>
      <point x="422" y="284"/>
      <point x="441" y="251"/>
      <point x="464" y="251" type="curve" smooth="yes"/>
      <point x="499" y="251"/>
      <point x="517" y="334"/>
      <point x="517" y="400" type="curve" smooth="yes"/>
      <point x="517" y="452"/>
      <point x="499" y="543"/>
      <point x="463" y="543" type="curve" smooth="yes"/>
      <point x="441" y="543"/>
      <point x="422" y="510"/>
      <point x="422" y="476" type="curve" smooth="yes"/>
      <point x="422" y="454"/>
      <point x="404.0" y="446.0"/>
      <point x="394" y="446" type="curve" smooth="yes"/>
    </contour>
  </outline>
</glyph>
<glyph name="F" format="2">
  <advance width="665"/>
  <unicode hex="0046"/>
  <outline>
    <contour>
      <point x="341" y="442.0" type="line" smooth="yes"/>
      <point x="325" y="442.0"/>
      <point x="313" y="455"/>
      <point x="313" y="477" type="curve"/>
      <point x="313" y="318" type="line"/>
      <point x="313" y="336"/>
      <point x="324" y="346.0"/>
      <point x="341" y="346.0" type="curve" smooth="yes"/>
      <point x="407" y="346.0" type="line" smooth="yes"/>
      <point x="419" y="346.0"/>
      <point x="433" y="336.0"/>
      <point x="433" y="308.0" type="curve" smooth="yes"/>
      <point x="433" y="273.0"/>
      <point x="455" y="240.0"/>
      <point x="481" y="240.0" type="curve" smooth="yes"/>
      <point x="521" y="240.0"/>
      <point x="542" y="272.0"/>
      <point x="542" y="393.0" type="curve" smooth="yes"/>
      <point x="542" y="501.0"/>
      <point x="521" y="539.0"/>
      <point x="480" y="539.0" type="curve" smooth="yes"/>
      <point x="455" y="539.0"/>
      <point x="433" y="506.0"/>
      <point x="433" y="472.0" type="curve" smooth="yes"/>
      <point x="433" y="450.0"/>
      <point x="412" y="442.0"/>
      <point x="402" y="442.0" type="curve" smooth="yes"/>
    </contour>
    <contour>
      <point x="313" y="85" type="curve"/>
      <point x="313" y="610" type="line" smooth="yes"/>
      <point x="313" y="636"/>
      <point x="326" y="652.0"/>
      <point x="352" y="652.0" type="curve" smooth="yes"/>
      <point x="402" y="652.0"/>
      <point x="405" y="654.0"/>
      <point x="447" y="641.0" type="curve" smooth="yes"/>
      <point x="490" y="628.0"/>
      <point x="539" y="525.0"/>
      <point x="600" y="525.0" type="curve" smooth="yes"/>
      <point x="629" y="525.0"/>
      <point x="649" y="551.0"/>
      <point x="649" y="578.0" type="curve" smooth="yes"/>
      <point x="649" y="640.0"/>
      <point x="604" y="766.0"/>
      <point x="541" y="766.0" type="curve" smooth="yes"/>
      <point x="512" y="766.0"/>
      <point x="473" y="752.0"/>
      <point x="455" y="750.0" type="curve" smooth="yes"/>
      <point x="424" y="747.0"/>
      <point x="238" y="754"/>
      <point x="186" y="754" type="curve" smooth="yes"/>
      <point x="61" y="754"/>
      <point x="33" y="731"/>
      <point x="33" y="711" type="curve" smooth="yes"/>
      <point x="33" y="694"/>
      <point x="67" y="673"/>
      <point x="67" y="665" type="curve" smooth="yes"/>
      <point x="67" y="84" type="line"/>
      <point x="67.0" y="62.0"/>
      <point x="35" y="62"/>
      <point x="37" y="35" type="curve" smooth="yes"/>
      <point x="38" y="12"/>
      <point x="59" y="-5"/>
      <point x="185" y="-5" type="curve" smooth="yes"/>
      <point x="306" y="-5"/>
      <point x="348.0" y="8"/>
      <point x="348.0" y="35" type="curve" smooth="yes"/>
      <point x="348.0" y="63"/>
      <point x="313.0" y="62.0"/>
    </contour>
  </outline>
</glyph>
<glyph name="G" format="2">
  <advance width="760"/>
  <unicode hex="0047"/>
  <outline>
    <contour>
      <point x="477" y="616" type="curve" smooth="yes"/>
      <point x="513" y="588"/>
      <point x="549" y="505"/>
      <point x="610" y="505" type="curve" smooth="yes"/>
      <point x="639" y="505"/>
      <point x="659" y="531"/>
      <point x="659" y="558" type="curve" smooth="yes"/>
      <point x="659" y="620"/>
      <point x="614" y="763"/>
      <point x="551" y="763" type="curve" smooth="yes"/>
      <point x="522" y="763"/>
      <point x="493" y="739"/>
      <point x="476" y="746" type="curve" smooth="yes"/>
      <point x="454" y="755"/>
      <point x="402" y="775"/>
      <point x="349" y="775" type="curve" smooth="yes"/>
      <point x="184" y="775"/>
      <point x="27" y="645"/>
      <point x="27" y="410" type="curve" smooth="yes"/>
      <point x="27" y="130"/>
      <point x="174" y="-25"/>
      <point x="377" y="-25" type="curve" smooth="yes"/>
      <point x="531" y="-25"/>
      <point x="640" y="69"/>
      <point x="680" y="218" type="curve" smooth="yes"/>
      <point x="694" y="269"/>
      <point x="702" y="290"/>
      <point x="711" y="297" type="curve" smooth="yes"/>
      <point x="725" y="308"/>
      <point x="742" y="320"/>
      <point x="742" y="346" type="curve" smooth="yes"/>
      <point x="742" y="386"/>
      <point x="700" y="408"/>
      <point x="579" y="408" type="curve" smooth="yes"/>
      <point x="471" y="408"/>
      <point x="406" y="383"/>
      <point x="406" y="342" type="curve" smooth="yes"/>
      <point x="406" y="317"/>
      <point x="431" y="299"/>
      <point x="465" y="299" type="curve" smooth="yes"/>
      <point x="504" y="299"/>
      <point x="502" y="252"/>
      <point x="502" y="209" type="curve" smooth="yes"/>
      <point x="502" y="163"/>
      <point x="475" y="112"/>
      <point x="425" y="112" type="curve" smooth="yes"/>
      <point x="332" y="112"/>
      <point x="300" y="319"/>
      <point x="300" y="472" type="curve" smooth="yes"/>
      <point x="300" y="611"/>
      <point x="331" y="658"/>
      <point x="376" y="658" type="curve" smooth="yes"/>
      <point x="405" y="658"/>
      <point x="430" y="653"/>
    </contour>
  </outline>
</glyph>
<glyph name="H" format="2">
  <advance width="766"/>
  <unicode hex="0048"/>
  <outline>
    <contour>
      <point x="324" y="469.0" type="curve"/>
      <point x="324" y="376.5" type="line"/>
      <point x="324" y="380.5"/>
      <point x="327" y="390"/>
      <point x="339" y="390.0" type="curve" smooth="yes"/>
      <point x="431" y="390" type="line" smooth="yes"/>
      <point x="441.0" y="390.0"/>
      <point x="444" y="383"/>
      <point x="444" y="377" type="curve"/>
      <point x="444" y="469.0" type="line"/>
      <point x="444" y="466.0"/>
      <point x="440.0" y="459.0"/>
      <point x="430" y="459" type="curve" smooth="yes"/>
      <point x="336" y="459.0" type="line" smooth="yes"/>
      <point x="331" y="459"/>
      <point x="324" y="463.0"/>
    </contour>
    <contour>
      <point x="78" y="670" type="curve" smooth="yes"/>
      <point x="78" y="75" type="line" smooth="yes"/>
      <point x="78.0" y="53.0"/>
      <point x="46" y="53"/>
      <point x="48" y="26" type="curve" smooth="yes"/>
      <point x="49" y="3"/>
      <point x="117" y="-9"/>
      <point x="196" y="-7" type="curve" smooth="yes"/>
      <point x="269" y="-5"/>
      <point x="359.0" y="-1"/>
      <point x="359.0" y="26" type="curve" smooth="yes"/>
      <point x="359.0" y="54"/>
      <point x="324.0" y="53.0"/>
      <point x="324" y="75" type="curve" smooth="yes"/>
      <point x="324" y="670" type="line" smooth="yes"/>
      <point x="324" y="691"/>
      <point x="361" y="689"/>
      <point x="360" y="719" type="curve" smooth="yes"/>
      <point x="359" y="745"/>
      <point x="269" y="752"/>
      <point x="191" y="752" type="curve" smooth="yes"/>
      <point x="118" y="752"/>
      <point x="40" y="744"/>
      <point x="40" y="717" type="curve" smooth="yes"/>
      <point x="40" y="689"/>
      <point x="78" y="691"/>
    </contour>
    <contour>
      <point x="444" y="670" type="curve" smooth="yes"/>
      <point x="444" y="75" type="line" smooth="yes"/>
      <point x="444.0" y="53.0"/>
      <point x="414" y="54"/>
      <point x="414" y="26" type="curve" smooth="yes"/>
      <point x="414" y="0"/>
      <point x="487" y="-6"/>
      <point x="566" y="-6" type="curve" smooth="yes"/>
      <point x="643" y="-6"/>
      <point x="725.0" y="-1"/>
      <point x="725.0" y="26" type="curve" smooth="yes"/>
      <point x="725.0" y="54"/>
      <point x="690.0" y="53.0"/>
      <point x="690" y="75" type="curve" smooth="yes"/>
      <point x="690" y="670" type="line" smooth="yes"/>
      <point x="690" y="691"/>
      <point x="727" y="689"/>
      <point x="726" y="719" type="curve" smooth="yes"/>
      <point x="725" y="745"/>
      <point x="639" y="752"/>
      <point x="557" y="752" type="curve" smooth="yes"/>
      <point x="484" y="752"/>
      <point x="406" y="744"/>
      <point x="406" y="717" type="curve" smooth="yes"/>
      <point x="406" y="689"/>
      <point x="444" y="691"/>
    </contour>
  </outline>
</glyph>
<glyph name="I" format="2">
  <advance width="400"/>
  <unicode hex="0049"/>
  <outline>
    <contour>
      <point x="78" y="660" type="curve" smooth="yes"/>
      <point x="78" y="82" type="line" smooth="yes"/>
      <point x="78.0" y="60.0"/>
      <point x="46" y="60"/>
      <point x="48" y="33" type="curve" smooth="yes"/>
      <point x="49" y="10"/>
      <point x="70" y="-7"/>
      <point x="196" y="-7" type="curve" smooth="yes"/>
      <point x="317" y="-7"/>
      <point x="359.0" y="6"/>
      <point x="359.0" y="33" type="curve" smooth="yes"/>
      <point x="359.0" y="61"/>
      <point x="324.0" y="60.0"/>
      <point x="324" y="82" type="curve" smooth="yes"/>
      <point x="324" y="660" type="line" smooth="yes"/>
      <point x="324" y="681"/>
      <point x="360" y="686"/>
      <point x="360" y="714" type="curve" smooth="yes"/>
      <point x="360" y="740"/>
      <point x="322" y="752"/>
      <point x="191" y="752" type="curve" smooth="yes"/>
      <point x="71" y="752"/>
      <point x="40" y="739"/>
      <point x="40" y="712" type="curve" smooth="yes"/>
      <point x="40" y="681"/>
      <point x="78" y="681"/>
    </contour>
  </outline>
</glyph>
<glyph name="J" format="2">
  <advance width="612"/>
  <unicode hex="004A"/>
  <outline>
    <contour>
      <point x="290" y="126" type="curve" smooth="yes"/>
      <point x="290" y="660" type="line" smooth="yes"/>
      <point x="290" y="681"/>
      <point x="252" y="681"/>
      <point x="252" y="712" type="curve" smooth="yes"/>
      <point x="252" y="739"/>
      <point x="283" y="752"/>
      <point x="403" y="752" type="curve" smooth="yes"/>
      <point x="534" y="752"/>
      <point x="572" y="740"/>
      <point x="572" y="714" type="curve" smooth="yes"/>
      <point x="572" y="686"/>
      <point x="536" y="681"/>
      <point x="536" y="660" type="curve" smooth="yes"/>
      <point x="536.0" y="189" type="line" smooth="yes"/>
      <point x="536.0" y="102.0"/>
      <point x="496" y="-27"/>
      <point x="284" y="-26" type="curve" smooth="yes"/>
      <point x="140" y="-25"/>
      <point x="27" y="43"/>
      <point x="27" y="181" type="curve" smooth="yes"/>
      <point x="27" y="248"/>
      <point x="69" y="310"/>
      <point x="143" y="310" type="curve" smooth="yes"/>
      <point x="205" y="310"/>
      <point x="268" y="281"/>
      <point x="268" y="205" type="curve" smooth="yes"/>
      <point x="268" y="124"/>
      <point x="213" y="134"/>
      <point x="213" y="101" type="curve" smooth="yes"/>
      <point x="213" y="85"/>
      <point x="234" y="77"/>
      <point x="253" y="77" type="curve" smooth="yes"/>
      <point x="279" y="77"/>
      <point x="290.0" y="92.0"/>
    </contour>
  </outline>
</glyph>
<glyph name="K" format="2">
  <advance width="792"/>
  <unicode hex="004B"/>
  <outline>
    <contour>
      <point x="273" y="371.0" type="line"/>
      <point x="396" y="341.0" type="line"/>
      <point x="612" y="646.0" type="line" smooth="yes"/>
      <point x="649" y="698"/>
      <point x="739" y="668.0"/>
      <point x="738" y="717.0" type="curve" smooth="yes"/>
      <point x="737" y="744"/>
      <point x="665" y="753"/>
      <point x="555" y="753.0" type="curve" smooth="yes"/>
      <point x="455" y="753.0"/>
      <point x="414" y="741"/>
      <point x="414" y="715.0" type="curve" smooth="yes"/>
      <point x="414" y="696"/>
      <point x="486" y="681"/>
      <point x="466" y="655.0" type="curve" smooth="yes"/>
      <point x="371" y="528.0" type="line" smooth="yes"/>
      <point x="353" y="504"/>
      <point x="323" y="528.0"/>
      <point x="324" y="556.0" type="curve"/>
      <point x="293" y="543.0" type="line"/>
      <point x="293" y="543.0" type="line"/>
    </contour>
    <contour>
      <point x="534.0" y="433" type="line" smooth="yes"/>
      <point x="520" y="458"/>
      <point x="499" y="484"/>
      <point x="515.0" y="508" type="curve" smooth="yes"/>
      <point x="534.0" y="536" type="line"/>
      <point x="272" y="365.0" type="line"/>
      <point x="321" y="243.0" type="line"/>
      <point x="321" y="253.0" type="line" smooth="yes"/>
      <point x="321" y="293"/>
      <point x="341" y="302"/>
      <point x="361" y="264.0" type="curve" smooth="yes"/>
      <point x="476" y="44.0" type="line" smooth="yes"/>
      <point x="496" y="6"/>
      <point x="528" y="-9"/>
      <point x="614" y="-9.0" type="curve" smooth="yes"/>
      <point x="696" y="-9.0"/>
      <point x="778" y="-4"/>
      <point x="778.0" y="27" type="curve" smooth="yes"/>
      <point x="778" y="59"/>
      <point x="739" y="57"/>
      <point x="730.0" y="74" type="curve" smooth="yes"/>
    </contour>
    <contour>
      <point x="78" y="660" type="curve" smooth="yes"/>
      <point x="78" y="82" type="line" smooth="yes"/>
      <point x="78.0" y="60.0"/>
      <point x="46" y="60"/>
      <point x="48" y="33" type="curve" smooth="yes"/>
      <point x="49" y="10"/>
      <point x="70" y="-7"/>
      <point x="196" y="-7" type="curve" smooth="yes"/>
      <point x="317" y="-7"/>
      <point x="359.0" y="6"/>
      <point x="359.0" y="33" type="curve" smooth="yes"/>
      <point x="359.0" y="61"/>
      <point x="324.0" y="60.0"/>
      <point x="324" y="82" type="curve" smooth="yes"/>
      <point x="324" y="660" type="line" smooth="yes"/>
      <point x="324" y="681"/>
      <point x="360" y="686"/>
      <point x="360" y="714" type="curve" smooth="yes"/>
      <point x="360" y="740"/>
      <point x="322" y="752"/>
      <point x="191" y="752" type="curve" smooth="yes"/>
      <point x="81" y="752"/>
      <point x="46" y="739"/>
      <point x="46" y="712" type="curve" smooth="yes"/>
      <point x="46" y="681"/>
      <point x="78" y="681"/>
    </contour>
  </outline>
</glyph>
<glyph name="L" format="2">
  <advance width="699"/>
  <unicode hex="004C"/>
  <outline>
    <contour>
      <point x="627" y="276.0" type="curve" smooth="yes"/>
      <point x="651" y="276.0"/>
      <point x="681" y="251.0"/>
      <point x="681" y="208.0" type="curve" smooth="yes"/>
      <point x="681" y="118.0"/>
      <point x="641" y="-6.0"/>
      <point x="585" y="-6.0" type="curve" smooth="yes"/>
      <point x="565" y="-6.0"/>
      <point x="538" y="3.0"/>
      <point x="517" y="3.0" type="curve" smooth="yes"/>
      <point x="496" y="3.0"/>
      <point x="483" y="-1.0"/>
      <point x="472" y="-1.0" type="curve" smooth="yes"/>
      <point x="202" y="-4" type="line" smooth="yes"/>
      <point x="76" y="-5"/>
      <point x="48" y="13"/>
      <point x="48" y="36" type="curve" smooth="yes"/>
      <point x="48" y="69"/>
      <point x="78" y="66"/>
      <point x="78" y="88" type="curve" smooth="yes"/>
      <point x="78" y="660" type="line" smooth="yes"/>
      <point x="78" y="681"/>
      <point x="40" y="681"/>
      <point x="40" y="712" type="curve" smooth="yes"/>
      <point x="40" y="739"/>
      <point x="77" y="752"/>
      <point x="197" y="752" type="curve" smooth="yes"/>
      <point x="328" y="752"/>
      <point x="366" y="740"/>
      <point x="366" y="714" type="curve" smooth="yes"/>
      <point x="366" y="686"/>
      <point x="330" y="681"/>
      <point x="330" y="660" type="curve" smooth="yes"/>
      <point x="330" y="178.0" type="line" smooth="yes"/>
      <point x="330" y="108.0"/>
      <point x="366" y="93"/>
      <point x="414" y="93.0" type="curve" smooth="yes"/>
      <point x="520" y="93.0"/>
      <point x="549" y="218.0"/>
      <point x="587" y="260.0" type="curve" smooth="yes"/>
      <point x="595" y="269.0"/>
      <point x="616" y="276.0"/>
    </contour>
  </outline>
</glyph>
<glyph name="M" format="2">
  <advance width="934"/>
  <unicode hex="004D"/>
  <outline>
    <contour>
      <point x="639" y="82" type="line" smooth="yes"/>
      <point x="639" y="60"/>
      <point x="600" y="60"/>
      <point x="602" y="33" type="curve" smooth="yes"/>
      <point x="603" y="10"/>
      <point x="650" y="-7"/>
      <point x="758" y="-7" type="curve" smooth="yes"/>
      <point x="862" y="-7"/>
      <point x="904" y="6"/>
      <point x="904" y="33" type="curve" smooth="yes"/>
      <point x="904" y="61"/>
      <point x="869" y="60"/>
      <point x="869" y="82" type="curve" smooth="yes"/>
      <point x="869" y="656" type="line" smooth="yes"/>
      <point x="869" y="677"/>
      <point x="905" y="686"/>
      <point x="905" y="714" type="curve" smooth="yes"/>
      <point x="905" y="740"/>
      <point x="904" y="754"/>
      <point x="731" y="754" type="curve" smooth="yes"/>
      <point x="657" y="754"/>
      <point x="633" y="724"/>
      <point x="609" y="668" type="curve" smooth="yes"/>
      <point x="519" y="460" type="line" smooth="yes"/>
      <point x="504" y="426"/>
      <point x="477" y="429"/>
      <point x="459" y="462" type="curve" smooth="yes"/>
      <point x="349" y="667" type="line" smooth="yes"/>
      <point x="309" y="741"/>
      <point x="253" y="752"/>
      <point x="225" y="752" type="curve" smooth="yes"/>
      <point x="45" y="752"/>
      <point x="30" y="746"/>
      <point x="30" y="708" type="curve" smooth="yes"/>
      <point x="30" y="679"/>
      <point x="97" y="665"/>
      <point x="97" y="645" type="curve" smooth="yes"/>
      <point x="99" y="80" type="line" smooth="yes"/>
      <point x="99" y="50"/>
      <point x="37" y="68"/>
      <point x="37" y="28" type="curve" smooth="yes"/>
      <point x="37" y="7"/>
      <point x="92" y="-7"/>
      <point x="172" y="-7" type="curve" smooth="yes"/>
      <point x="282" y="-7"/>
      <point x="315" y="2"/>
      <point x="314" y="29" type="curve" smooth="yes"/>
      <point x="313" y="65"/>
      <point x="241" y="49"/>
      <point x="241" y="81" type="curve" smooth="yes"/>
      <point x="241" y="301" type="line" smooth="yes"/>
      <point x="241" y="335"/>
      <point x="256" y="354"/>
      <point x="272" y="323" type="curve" smooth="yes"/>
      <point x="417" y="39" type="line" smooth="yes"/>
      <point x="442" y="-11"/>
      <point x="489" y="-10"/>
      <point x="507" y="39" type="curve" smooth="yes"/>
      <point x="609" y="312" type="line" smooth="yes"/>
      <point x="613" y="323"/>
      <point x="620" y="329"/>
      <point x="625" y="329" type="curve" smooth="yes"/>
      <point x="638" y="329"/>
      <point x="639" y="316"/>
      <point x="639" y="291" type="curve" smooth="yes"/>
    </contour>
  </outline>
</glyph>
<glyph name="N" format="2">
  <advance width="757"/>
  <unicode hex="004E"/>
  <outline>
    <contour>
      <point x="99" y="80" type="line" smooth="yes"/>
      <point x="99" y="50"/>
      <point x="37" y="68"/>
      <point x="37" y="28" type="curve" smooth="yes"/>
      <point x="37" y="7"/>
      <point x="92" y="-7"/>
      <point x="172" y="-7" type="curve" smooth="yes"/>
      <point x="282" y="-7"/>
      <point x="315" y="2"/>
      <point x="314" y="29" type="curve" smooth="yes"/>
      <point x="313" y="65"/>
      <point x="241" y="49"/>
      <point x="241" y="81" type="curve" smooth="yes"/>
      <point x="241" y="301" type="line" smooth="yes"/>
      <point x="241.0" y="335.0"/>
      <point x="247" y="352"/>
      <point x="272" y="323" type="curve" smooth="yes"/>
      <point x="501" y="62" type="line" smooth="yes"/>
      <point x="525" y="34"/>
      <point x="560" y="0"/>
      <point x="596" y="0" type="curve" smooth="yes"/>
      <point x="633" y="0"/>
      <point x="667.0" y="23.0"/>
      <point x="667" y="119" type="curve" smooth="yes"/>
      <point x="667" y="667" type="line" smooth="yes"/>
      <point x="667" y="695"/>
      <point x="724" y="682"/>
      <point x="727" y="719" type="curve" smooth="yes"/>
      <point x="729" y="740"/>
      <point x="676" y="754"/>
      <point x="596" y="754" type="curve" smooth="yes"/>
      <point x="486" y="754"/>
      <point x="453" y="745"/>
      <point x="454" y="718" type="curve" smooth="yes"/>
      <point x="455" y="682"/>
      <point x="534" y="698"/>
      <point x="534" y="666" type="curve" smooth="yes"/>
      <point x="534.0" y="460" type="line" smooth="yes"/>
      <point x="534.0" y="440.0"/>
      <point x="522" y="413"/>
      <point x="484" y="456" type="curve" smooth="yes"/>
      <point x="296" y="667" type="line" smooth="yes"/>
      <point x="239" y="730"/>
      <point x="221" y="747"/>
      <point x="193" y="748" type="curve" smooth="yes"/>
      <point x="84" y="751"/>
      <point x="30" y="744"/>
      <point x="30" y="717" type="curve" smooth="yes"/>
      <point x="30" y="688"/>
      <point x="97" y="674"/>
      <point x="97" y="654" type="curve" smooth="yes"/>
    </contour>
  </outline>
</glyph>
<glyph name="O" format="2">
  <advance width="709"/>
  <unicode hex="004F"/>
  <outline>
    <contour>
      <point x="301.64118978722445" y="607" type="curve" smooth="yes"/>
      <point x="354.64118978722445" y="615"/>
      <point x="417.64118978722445" y="522"/>
      <point x="442.64118978722445" y="398" type="curve" smooth="yes"/>
      <point x="470.64118978722445" y="261"/>
      <point x="457.64118978722445" y="163"/>
      <point x="403.64118978722445" y="155" type="curve" smooth="yes"/>
      <point x="346.64118978722445" y="147"/>
      <point x="293.64118978722445" y="240"/>
      <point x="265.64118978722445" y="370" type="curve" smooth="yes"/>
      <point x="242.64118978722445" y="477"/>
      <point x="247.64118978722445" y="598"/>
    </contour>
    <contour>
      <point x="288.64118978722445" y="772" type="curve" smooth="yes"/>
      <point x="123.64118978722445" y="755"/>
      <point x="4.641189787224448" y="578"/>
      <point x="34.64118978722445" y="336" type="curve" smooth="yes"/>
      <point x="66.64118978722445" y="78"/>
      <point x="228" y="-34"/>
      <point x="396.64118978722445" y="-25" type="curve" smooth="yes"/>
      <point x="593" y="-14"/>
      <point x="711" y="147"/>
      <point x="666.6411897872244" y="435" type="curve" smooth="yes"/>
      <point x="639" y="616"/>
      <point x="504.64118978722445" y="794"/>
    </contour>
  </outline>
</glyph>
<glyph name="P" format="2">
  <advance width="659"/>
  <unicode hex="0050"/>
  <outline>
    <contour>
      <point x="320" y="83" type="line" smooth="yes"/>
      <point x="320" y="61"/>
      <point x="351" y="60"/>
      <point x="351" y="32" type="curve" smooth="yes"/>
      <point x="351" y="5"/>
      <point x="318" y="-7"/>
      <point x="192" y="-7" type="curve" smooth="yes"/>
      <point x="71" y="-7"/>
      <point x="45" y="10"/>
      <point x="45" y="33" type="curve" smooth="yes"/>
      <point x="45" y="63"/>
      <point x="74" y="62"/>
      <point x="74" y="84" type="curve" smooth="yes"/>
      <point x="74" y="662" type="line" smooth="yes"/>
      <point x="74" y="670"/>
      <point x="40" y="690"/>
      <point x="40" y="710" type="curve" smooth="yes"/>
      <point x="40" y="730"/>
      <point x="78" y="754"/>
      <point x="179" y="754" type="curve" smooth="yes"/>
      <point x="438" y="754" type="line" smooth="yes"/>
      <point x="531.0" y="754.0"/>
      <point x="628.0" y="690"/>
      <point x="629.0" y="516" type="curve" smooth="yes"/>
      <point x="630.0" y="384"/>
      <point x="528.0" y="253.0"/>
      <point x="439.0" y="253" type="curve" smooth="yes"/>
      <point x="354.0" y="253" type="line" smooth="yes"/>
      <point x="334" y="253"/>
      <point x="320.0" y="244"/>
      <point x="320.0" y="210" type="curve" smooth="yes"/>
    </contour>
    <contour>
      <point x="329" y="657" type="curve" smooth="yes"/>
      <point x="313" y="653"/>
      <point x="306.0" y="624"/>
      <point x="306.0" y="519" type="curve" smooth="yes"/>
      <point x="306.0" y="425"/>
      <point x="313" y="389"/>
      <point x="329" y="384" type="curve" smooth="yes"/>
      <point x="344" y="379"/>
      <point x="354" y="379"/>
      <point x="364" y="384" type="curve" smooth="yes"/>
      <point x="387" y="396"/>
      <point x="419" y="448"/>
      <point x="419" y="518" type="curve" smooth="yes"/>
      <point x="419" y="596"/>
      <point x="391" y="652"/>
      <point x="364" y="657" type="curve" smooth="yes"/>
      <point x="353" y="659"/>
      <point x="341" y="660"/>
    </contour>
  </outline>
</glyph>
<glyph name="Q" format="2">
  <advance width="790"/>
  <unicode hex="0051"/>
  <outline>
    <contour>
      <point x="300" y="550.0"/>
      <point x="313" y="649.0"/>
      <point x="360" y="649.0" type="curve" smooth="yes"/>
      <point x="449" y="649.0"/>
      <point x="492" y="405.0"/>
      <point x="492" y="264.0" type="curve" smooth="yes"/>
      <point x="492" y="179.0"/>
      <point x="479" y="95.0"/>
      <point x="427" y="95.0" type="curve" smooth="yes"/>
      <point x="351" y="95.0"/>
      <point x="300" y="319.0"/>
      <point x="300" y="472.0" type="curve" smooth="yes"/>
    </contour>
    <contour>
      <point x="188" y="774.0"/>
      <point x="27" y="629.0"/>
      <point x="27" y="410.0" type="curve" smooth="yes"/>
      <point x="27" y="130.0"/>
      <point x="202" y="-25.0"/>
      <point x="405" y="-25.0" type="curve" smooth="yes"/>
      <point x="585" y="-25.0"/>
      <point x="760" y="67.0"/>
      <point x="760" y="326.0" type="curve" smooth="yes"/>
      <point x="760" y="520.0"/>
      <point x="664" y="774.0"/>
      <point x="380" y="774.0" type="curve" smooth="yes"/>
    </contour>
    <contour>
      <point x="57" y="6.0" type="curve" smooth="yes"/>
      <point x="57" y="-20.0"/>
      <point x="68" y="-31.0"/>
      <point x="87" y="-32.0" type="curve" smooth="yes"/>
      <point x="109" y="-33.0"/>
      <point x="105" y="-20.0"/>
      <point x="142" y="-20.0" type="curve" smooth="yes"/>
      <point x="236" y="-20.0"/>
      <point x="348" y="-150.0"/>
      <point x="580" y="-150.0" type="curve" smooth="yes"/>
      <point x="661" y="-150.0"/>
      <point x="787" y="-90.0"/>
      <point x="787" y="-42.0" type="curve" smooth="yes"/>
      <point x="787" y="-23.0"/>
      <point x="778" y="-3.0"/>
      <point x="763" y="-3.0" type="curve" smooth="yes"/>
      <point x="736" y="-3.0"/>
      <point x="722" y="-18.0"/>
      <point x="706" y="-18.0" type="curve" smooth="yes"/>
      <point x="641" y="-18.0"/>
      <point x="588" y="4.0"/>
      <point x="529" y="18.0" type="curve" smooth="yes"/>
      <point x="280" y="75.0" type="line"/>
      <point x="182" y="94.0"/>
      <point x="57" y="64.0"/>
    </contour>
  </outline>
</glyph>
<glyph name="R" format="2">
  <advance width="705"/>
  <unicode hex="0052"/>
  <outline>
    <contour>
      <point x="320" y="75" type="line" smooth="yes"/>
      <point x="320.0" y="53.0"/>
      <point x="355" y="54"/>
      <point x="355" y="26" type="curve" smooth="yes"/>
      <point x="355" y="-1"/>
      <point x="265" y="-5"/>
      <point x="192" y="-7" type="curve" smooth="yes"/>
      <point x="113" y="-9"/>
      <point x="46" y="10"/>
      <point x="45" y="33" type="curve" smooth="yes"/>
      <point x="43" y="60"/>
      <point x="74" y="62"/>
      <point x="74" y="84" type="curve"/>
      <point x="74" y="662" type="line" smooth="yes"/>
      <point x="74" y="670"/>
      <point x="40" y="690"/>
      <point x="40" y="710" type="curve" smooth="yes"/>
      <point x="40" y="730"/>
      <point x="78" y="754"/>
      <point x="179" y="754" type="curve"/>
      <point x="254" y="755"/>
      <point x="337" y="752"/>
      <point x="415" y="754" type="curve" smooth="yes"/>
      <point x="498" y="756"/>
      <point x="591" y="668"/>
      <point x="594" y="542" type="curve" smooth="yes"/>
      <point x="598" y="382"/>
      <point x="320.0" y="362.0"/>
      <point x="320" y="326" type="curve" smooth="yes"/>
    </contour>
    <contour>
      <point x="325.0" y="637" type="curve" smooth="yes"/>
      <point x="311.0" y="637"/>
      <point x="306.0" y="573"/>
      <point x="306.0" y="541" type="curve" smooth="yes"/>
      <point x="306" y="507"/>
      <point x="311.0" y="435"/>
      <point x="325.0" y="435" type="curve" smooth="yes"/>
      <point x="362" y="435"/>
      <point x="407.0" y="487"/>
      <point x="407.0" y="541" type="curve" smooth="yes"/>
      <point x="407.0" y="585"/>
      <point x="362" y="637"/>
    </contour>
    <contour>
      <point x="320" y="303" type="curve" smooth="yes"/>
      <point x="320" y="285" type="line"/>
      <point x="282" y="361" type="line"/>
      <point x="428" y="414" type="line"/>
      <point x="542" y="436" type="line"/>
      <point x="512" y="412"/>
      <point x="515" y="385"/>
      <point x="550" y="365" type="curve" smooth="yes"/>
      <point x="582" y="347"/>
      <point x="602" y="336"/>
      <point x="619" y="275" type="curve" smooth="yes"/>
      <point x="629" y="240"/>
      <point x="628" y="189"/>
      <point x="621" y="159" type="curve" smooth="yes"/>
      <point x="607" y="97"/>
      <point x="626" y="83"/>
      <point x="646" y="83" type="curve" smooth="yes"/>
      <point x="659" y="83"/>
      <point x="671" y="75"/>
      <point x="671" y="53" type="curve" smooth="yes"/>
      <point x="671" y="22"/>
      <point x="634" y="-7"/>
      <point x="542" y="-7" type="curve" smooth="yes"/>
      <point x="441" y="-7"/>
      <point x="417" y="59"/>
      <point x="406" y="98" type="curve" smooth="yes"/>
      <point x="393" y="146"/>
      <point x="417" y="173"/>
      <point x="399" y="241" type="curve" smooth="yes"/>
      <point x="388" y="281"/>
      <point x="382" y="297"/>
      <point x="357" y="312" type="curve" smooth="yes"/>
      <point x="327" y="330"/>
      <point x="320" y="318"/>
    </contour>
  </outline>
</glyph>
<glyph name="S" format="2">
  <advance width="690"/>
  <unicode hex="0053"/>
  <outline>
    <contour>
      <point x="314" y="774.0" type="curve" smooth="yes"/>
      <point x="414" y="774.0"/>
      <point x="455" y="750"/>
      <point x="479" y="744.0" type="curve" smooth="yes"/>
      <point x="495" y="740"/>
      <point x="513" y="768.0"/>
      <point x="555" y="768.0" type="curve" smooth="yes"/>
      <point x="600" y="768"/>
      <point x="636" y="640.0"/>
      <point x="636" y="566.0" type="curve" smooth="yes"/>
      <point x="636" y="527.0"/>
      <point x="616" y="512.0"/>
      <point x="595" y="512.0" type="curve" smooth="yes"/>
      <point x="558" y="512.0"/>
      <point x="438" y="658"/>
      <point x="335" y="658.0" type="curve" smooth="yes"/>
      <point x="291" y="658.0"/>
      <point x="275" y="637.0"/>
      <point x="274" y="604.0" type="curve" smooth="yes"/>
      <point x="272" y="544"/>
      <point x="381" y="518"/>
      <point x="473" y="467" type="curve" smooth="yes"/>
      <point x="591" y="401"/>
      <point x="664" y="347"/>
      <point x="664" y="210" type="curve" smooth="yes"/>
      <point x="664.0" y="105.0"/>
      <point x="599" y="-21"/>
      <point x="321" y="-21" type="curve" smooth="yes"/>
      <point x="239" y="-21"/>
      <point x="149" y="3"/>
      <point x="118" y="20" type="curve" smooth="yes"/>
      <point x="62" y="52"/>
      <point x="35.0" y="177"/>
      <point x="35.0" y="210" type="curve" smooth="yes"/>
      <point x="35.0" y="230"/>
      <point x="36" y="297"/>
      <point x="85" y="297" type="curve" smooth="yes"/>
      <point x="125" y="297"/>
      <point x="176" y="151"/>
      <point x="290" y="117" type="curve" smooth="yes"/>
      <point x="376" y="91"/>
      <point x="421" y="117"/>
      <point x="426" y="153" type="curve" smooth="yes"/>
      <point x="435" y="221"/>
      <point x="347" y="212"/>
      <point x="241" y="274" type="curve" smooth="yes"/>
      <point x="142" y="332"/>
      <point x="44" y="425"/>
      <point x="44" y="548.0" type="curve" smooth="yes"/>
      <point x="44" y="636"/>
      <point x="117" y="774"/>
    </contour>
  </outline>
</glyph>
<glyph name="T" format="2">
  <advance width="691"/>
  <unicode hex="0054"/>
  <outline>
    <contour>
      <point x="186" y="750" type="line" smooth="yes"/>
      <point x="168" y="750.0"/>
      <point x="129" y="766"/>
      <point x="100" y="766" type="curve" smooth="yes"/>
      <point x="37" y="766"/>
      <point x="13" y="636"/>
      <point x="13" y="574" type="curve" smooth="yes"/>
      <point x="13" y="547"/>
      <point x="33" y="513"/>
      <point x="62" y="513" type="curve" smooth="yes"/>
      <point x="123" y="513"/>
      <point x="151" y="624"/>
      <point x="194" y="641" type="curve" smooth="yes"/>
      <point x="214" y="649"/>
      <point x="226.0" y="635.0"/>
      <point x="226" y="621" type="curve" smooth="yes"/>
      <point x="226" y="82" type="line" smooth="yes"/>
      <point x="226" y="60"/>
      <point x="194" y="60"/>
      <point x="196" y="33" type="curve" smooth="yes"/>
      <point x="197" y="10"/>
      <point x="218" y="-7"/>
      <point x="344" y="-7" type="curve" smooth="yes"/>
      <point x="465" y="-7"/>
      <point x="507" y="6"/>
      <point x="507" y="33" type="curve" smooth="yes"/>
      <point x="507" y="61"/>
      <point x="472" y="60"/>
      <point x="472" y="82" type="curve" smooth="yes"/>
      <point x="472" y="621" type="line" smooth="yes"/>
      <point x="472.0" y="635.0"/>
      <point x="475" y="649"/>
      <point x="498" y="641" type="curve" smooth="yes"/>
      <point x="541" y="626"/>
      <point x="570" y="514"/>
      <point x="631" y="514" type="curve" smooth="yes"/>
      <point x="660" y="514"/>
      <point x="678" y="545"/>
      <point x="678" y="572" type="curve" smooth="yes"/>
      <point x="678" y="634"/>
      <point x="655" y="766"/>
      <point x="592" y="766" type="curve" smooth="yes"/>
      <point x="563" y="766"/>
      <point x="524" y="750.0"/>
      <point x="506" y="750" type="curve" smooth="yes"/>
    </contour>
  </outline>
</glyph>
<glyph name="U" format="2">
  <advance width="730"/>
  <unicode hex="0055"/>
  <outline>
    <contour>
      <point x="187" y="754" type="curve" smooth="yes"/>
      <point x="123.0" y="754.0"/>
      <point x="35" y="743"/>
      <point x="35" y="718" type="curve" smooth="yes"/>
      <point x="35" y="691"/>
      <point x="73" y="698"/>
      <point x="73" y="670" type="curve" smooth="yes"/>
      <point x="73" y="258" type="line" smooth="yes"/>
      <point x="73" y="145.0"/>
      <point x="143" y="-14"/>
      <point x="384" y="-14" type="curve" smooth="yes"/>
      <point x="605" y="-14"/>
      <point x="652.0" y="180"/>
      <point x="652" y="258" type="curve" smooth="yes"/>
      <point x="652" y="667" type="line" smooth="yes"/>
      <point x="652" y="695"/>
      <point x="719" y="682"/>
      <point x="722" y="719" type="curve" smooth="yes"/>
      <point x="724" y="740"/>
      <point x="661" y="754"/>
      <point x="581" y="754" type="curve" smooth="yes"/>
      <point x="471" y="754"/>
      <point x="440" y="745"/>
      <point x="441" y="718" type="curve" smooth="yes"/>
      <point x="442" y="682"/>
      <point x="513" y="698.0"/>
      <point x="513" y="666.0" type="curve" smooth="yes"/>
      <point x="513" y="290.0" type="line" smooth="yes"/>
      <point x="513" y="206.0"/>
      <point x="475" y="158.0"/>
      <point x="421" y="158.0" type="curve" smooth="yes"/>
      <point x="365" y="158.0"/>
      <point x="319.0" y="201.0"/>
      <point x="319" y="290" type="curve" smooth="yes"/>
      <point x="319" y="669" type="line" smooth="yes"/>
      <point x="319" y="698"/>
      <point x="356" y="688"/>
      <point x="356" y="719" type="curve" smooth="yes"/>
      <point x="356" y="747"/>
      <point x="251" y="754"/>
    </contour>
  </outline>
</glyph>
<glyph name="V" format="2">
  <advance width="728"/>
  <unicode hex="0056"/>
  <outline>
    <contour>
      <point x="173" y="759" type="curve" smooth="yes"/>
      <point x="109" y="759"/>
      <point x="9" y="754"/>
      <point x="10" y="732" type="curve" smooth="yes"/>
      <point x="11" y="714"/>
      <point x="35" y="713"/>
      <point x="45" y="692" type="curve" smooth="yes"/>
      <point x="128" y="510"/>
      <point x="148" y="117"/>
      <point x="230.00744244820677" y="25" type="curve" smooth="yes"/>
      <point x="255" y="-3"/>
      <point x="312" y="-8"/>
      <point x="341" y="-8" type="curve" smooth="yes"/>
      <point x="381" y="-8.0"/>
      <point x="441" y="12"/>
      <point x="456" y="35" type="curve" smooth="yes"/>
      <point x="509" y="117"/>
      <point x="579" y="648"/>
      <point x="601" y="687" type="curve" smooth="yes"/>
      <point x="614" y="710"/>
      <point x="727" y="700"/>
      <point x="728" y="734" type="curve" smooth="yes"/>
      <point x="729" y="755"/>
      <point x="597" y="755"/>
      <point x="559" y="755" type="curve" smooth="yes"/>
      <point x="507" y="755.0"/>
      <point x="394" y="749"/>
      <point x="394" y="735" type="curve" smooth="yes"/>
      <point x="395" y="701"/>
      <point x="509" y="719"/>
      <point x="506" y="679" type="curve" smooth="yes"/>
      <point x="498" y="573"/>
      <point x="458" y="244"/>
      <point x="424" y="244" type="curve" smooth="yes"/>
      <point x="389" y="244"/>
      <point x="314" y="604"/>
      <point x="306" y="681" type="curve" smooth="yes"/>
      <point x="303" y="710"/>
      <point x="351" y="700"/>
      <point x="351" y="731" type="curve" smooth="yes"/>
      <point x="351" y="748"/>
      <point x="237" y="759"/>
    </contour>
  </outline>
</glyph>
<glyph name="W" format="2">
  <advance width="1079"/>
  <unicode hex="0057"/>
  <outline>
    <contour>
      <point x="518" y="754" type="curve" smooth="yes"/>
      <point x="454" y="754"/>
      <point x="366" y="743"/>
      <point x="366" y="718" type="curve" smooth="yes"/>
      <point x="366" y="691"/>
      <point x="395" y="696"/>
      <point x="404" y="670" type="curve" smooth="yes"/>
      <point x="604" y="70" type="line" smooth="yes"/>
      <point x="623" y="14"/>
      <point x="669" y="-14"/>
      <point x="725" y="-14" type="curve" smooth="yes"/>
      <point x="781" y="-14"/>
      <point x="829" y="14"/>
      <point x="843" y="70" type="curve" smooth="yes"/>
      <point x="994" y="668" type="line" smooth="yes"/>
      <point x="1001" y="696"/>
      <point x="1069" y="683"/>
      <point x="1072" y="720" type="curve" smooth="yes"/>
      <point x="1074" y="741"/>
      <point x="1011" y="754"/>
      <point x="931" y="754" type="curve" smooth="yes"/>
      <point x="821" y="754"/>
      <point x="790" y="746"/>
      <point x="791" y="719" type="curve" smooth="yes"/>
      <point x="792" y="683"/>
      <point x="875" y="699"/>
      <point x="868" y="667" type="curve" smooth="yes"/>
      <point x="823.0" y="468" type="line" smooth="yes"/>
      <point x="809" y="406"/>
      <point x="798" y="363"/>
      <point x="762" y="363" type="curve" smooth="yes"/>
      <point x="730" y="363"/>
      <point x="719" y="403"/>
      <point x="702" y="469" type="curve" smooth="yes"/>
      <point x="650" y="669" type="line"/>
      <point x="646" y="698"/>
      <point x="687" y="688"/>
      <point x="687" y="719" type="curve" smooth="yes"/>
      <point x="687" y="747"/>
      <point x="582" y="754"/>
    </contour>
    <contour>
      <point x="615" y="667" type="line"/>
      <point x="489" y="667" type="line"/>
      <point x="444" y="468" type="line" smooth="yes"/>
      <point x="430" y="406"/>
      <point x="419" y="363"/>
      <point x="383" y="363" type="curve" smooth="yes"/>
      <point x="351" y="363"/>
      <point x="340" y="403"/>
      <point x="323" y="469" type="curve" smooth="yes"/>
      <point x="271" y="669" type="line"/>
      <point x="267" y="698"/>
      <point x="308" y="688"/>
      <point x="308" y="719" type="curve" smooth="yes"/>
      <point x="308" y="747"/>
      <point x="203" y="754"/>
      <point x="139" y="754" type="curve" smooth="yes"/>
      <point x="75" y="754"/>
      <point x="-13" y="743"/>
      <point x="-13" y="718" type="curve" smooth="yes"/>
      <point x="-13" y="691"/>
      <point x="16" y="696"/>
      <point x="25" y="670" type="curve" smooth="yes"/>
      <point x="225" y="70" type="line" smooth="yes"/>
      <point x="244" y="14"/>
      <point x="290" y="-14"/>
      <point x="346" y="-14" type="curve" smooth="yes"/>
      <point x="402" y="-14"/>
      <point x="450" y="14"/>
      <point x="464" y="70" type="curve" smooth="yes"/>
    </contour>
  </outline>
</glyph>
<glyph name="X" format="2">
  <advance width="757"/>
  <unicode hex="0058"/>
  <outline>
    <contour>
      <point x="443" y="658" type="curve" smooth="yes"/>
      <point x="95" y="99" type="line" smooth="yes"/>
      <point x="82" y="79"/>
      <point x="14" y="75"/>
      <point x="14" y="36" type="curve" smooth="yes"/>
      <point x="14" y="13"/>
      <point x="37" y="-7"/>
      <point x="163" y="-7" type="curve" smooth="yes"/>
      <point x="284" y="-7"/>
      <point x="326.0" y="6"/>
      <point x="326.0" y="33" type="curve" smooth="yes"/>
      <point x="326.0" y="61"/>
      <point x="267" y="62"/>
      <point x="279" y="82" type="curve" smooth="yes"/>
      <point x="637" y="658" type="line" smooth="yes"/>
      <point x="648" y="676"/>
      <point x="717" y="684"/>
      <point x="717" y="712" type="curve" smooth="yes"/>
      <point x="717" y="738"/>
      <point x="679" y="750"/>
      <point x="548" y="750" type="curve" smooth="yes"/>
      <point x="428" y="750"/>
      <point x="397" y="737"/>
      <point x="397" y="710" type="curve" smooth="yes"/>
      <point x="397" y="679"/>
      <point x="454" y="676"/>
    </contour>
    <contour>
      <point x="77" y="660" type="curve" smooth="yes"/>
      <point x="442" y="82" type="line" smooth="yes"/>
      <point x="454" y="62"/>
      <point x="430" y="60"/>
      <point x="432" y="33" type="curve" smooth="yes"/>
      <point x="433" y="10"/>
      <point x="454" y="-7"/>
      <point x="580" y="-7" type="curve" smooth="yes"/>
      <point x="701" y="-7"/>
      <point x="743" y="11"/>
      <point x="743.0" y="38" type="curve" smooth="yes"/>
      <point x="743.0" y="77"/>
      <point x="688" y="81"/>
      <point x="676" y="101" type="curve" smooth="yes"/>
      <point x="323" y="660" type="line" smooth="yes"/>
      <point x="312" y="677"/>
      <point x="343" y="686"/>
      <point x="343" y="714" type="curve" smooth="yes"/>
      <point x="343" y="740"/>
      <point x="305" y="752"/>
      <point x="174" y="752" type="curve" smooth="yes"/>
      <point x="54" y="752"/>
      <point x="23" y="739"/>
      <point x="23" y="712" type="curve" smooth="yes"/>
      <point x="23" y="681"/>
      <point x="66" y="677"/>
    </contour>
  </outline>
</glyph>
<glyph name="Y" format="2">
  <advance width="677"/>
  <unicode hex="0059"/>
  <outline>
    <contour>
      <point x="466" y="399" type="curve" smooth="yes"/>
      <point x="583" y="657" type="line" smooth="yes"/>
      <point x="591" y="675"/>
      <point x="674" y="684"/>
      <point x="674" y="712" type="curve" smooth="yes"/>
      <point x="674" y="738"/>
      <point x="673" y="750"/>
      <point x="542" y="750" type="curve" smooth="yes"/>
      <point x="422" y="750"/>
      <point x="407" y="738"/>
      <point x="407" y="711" type="curve" smooth="yes"/>
      <point x="407" y="677"/>
      <point x="475" y="686"/>
      <point x="463" y="660" type="curve" smooth="yes"/>
      <point x="415" y="552" type="line" smooth="yes"/>
      <point x="398" y="513"/>
      <point x="365" y="515"/>
      <point x="346" y="552" type="curve" smooth="yes"/>
      <point x="292" y="660" type="line" smooth="yes"/>
      <point x="281" y="681"/>
      <point x="326" y="686"/>
      <point x="326" y="714" type="curve" smooth="yes"/>
      <point x="326" y="740"/>
      <point x="288" y="752"/>
      <point x="157" y="752" type="curve" smooth="yes"/>
      <point x="37" y="752"/>
      <point x="6" y="739"/>
      <point x="6" y="712" type="curve" smooth="yes"/>
      <point x="6" y="681"/>
      <point x="58" y="677"/>
      <point x="66" y="660" type="curve" smooth="yes"/>
      <point x="192" y="396" type="line" smooth="yes"/>
      <point x="197" y="386"/>
      <point x="209.0" y="350.0"/>
      <point x="209" y="337" type="curve" smooth="yes"/>
      <point x="209" y="82" type="line" smooth="yes"/>
      <point x="209" y="60"/>
      <point x="177" y="60"/>
      <point x="179" y="33" type="curve" smooth="yes"/>
      <point x="180" y="10"/>
      <point x="201" y="-7"/>
      <point x="327" y="-7" type="curve" smooth="yes"/>
      <point x="448" y="-7"/>
      <point x="490" y="6"/>
      <point x="490" y="33" type="curve" smooth="yes"/>
      <point x="490" y="61"/>
      <point x="455" y="60"/>
      <point x="455" y="82" type="curve" smooth="yes"/>
      <point x="455" y="345" type="line" smooth="yes"/>
      <point x="455.0" y="364.0"/>
      <point x="458" y="382"/>
    </contour>
  </outline>
</glyph>
<glyph name="Z" format="2">
  <advance width="636"/>
  <unicode hex="005A"/>
  <outline>
    <contour>
      <point x="513" y="752" type="curve" smooth="yes"/>
      <point x="154" y="752" type="line" smooth="yes"/>
      <point x="135.0" y="752.0"/>
      <point x="131" y="763"/>
      <point x="110" y="763" type="curve" smooth="yes"/>
      <point x="72" y="763"/>
      <point x="35" y="616"/>
      <point x="35" y="555" type="curve" smooth="yes"/>
      <point x="35.0" y="503.3333333333333"/>
      <point x="101" y="473"/>
      <point x="126" y="524" type="curve" smooth="yes"/>
      <point x="145" y="563"/>
      <point x="181" y="630"/>
      <point x="200" y="646" type="curve" smooth="yes"/>
      <point x="225" y="667"/>
      <point x="270" y="650"/>
      <point x="275" y="633" type="curve" smooth="yes"/>
      <point x="280" y="617"/>
      <point x="266" y="590"/>
      <point x="253" y="561" type="curve" smooth="yes"/>
      <point x="60" y="111" type="line" smooth="yes"/>
      <point x="38" y="60"/>
      <point x="59.0" y="-1"/>
      <point x="126" y="-1" type="curve" smooth="yes"/>
      <point x="470" y="-1" type="line" smooth="yes"/>
      <point x="494" y="-1"/>
      <point x="504" y="-11"/>
      <point x="531" y="-11" type="curve"/>
      <point x="582" y="-11"/>
      <point x="613" y="109"/>
      <point x="610" y="151" type="curve" smooth="yes"/>
      <point x="607" y="192"/>
      <point x="588" y="246"/>
      <point x="548" y="247" type="curve" smooth="yes"/>
      <point x="525" y="247"/>
      <point x="521" y="231"/>
      <point x="508" y="198" type="curve" smooth="yes"/>
      <point x="494" y="165"/>
      <point x="481" y="134"/>
      <point x="451" y="120" type="curve" smooth="yes"/>
      <point x="429" y="110"/>
      <point x="389" y="111"/>
      <point x="373" y="133" type="curve" smooth="yes"/>
      <point x="359" y="152"/>
      <point x="370" y="177"/>
      <point x="379" y="197" type="curve" smooth="yes"/>
      <point x="581" y="652" type="line" smooth="yes"/>
      <point x="606" y="709"/>
      <point x="571" y="752"/>
    </contour>
  </outline>
</glyph>
<glyph name="grave" format="2">
  <advance width="239"/>
  <unicode hex="0060"/>
  <anchor x="108" y="784" name="_top"/>
  <outline>
    <contour>
      <point x="9.0" y="902.0" type="curve" smooth="yes"/>
      <point x="6.0" y="941.0"/>
      <point x="21.0" y="976.0"/>
      <point x="68.0" y="986.0" type="curve" smooth="yes"/>
      <point x="104.0" y="994.0"/>
      <point x="148.0" y="986.0"/>
      <point x="158.0" y="964.0" type="curve" smooth="yes"/>
      <point x="167.0" y="944.0"/>
      <point x="145.0" y="944.0"/>
      <point x="141.0" y="916.0" type="curve" smooth="yes"/>
      <point x="136.0" y="866.0"/>
      <point x="182.0" y="850.0"/>
      <point x="199.0" y="831.0" type="curve" smooth="yes"/>
      <point x="222.0" y="805.0"/>
      <point x="195.0" y="794.0"/>
      <point x="165.0" y="794.0" type="curve" smooth="yes"/>
      <point x="97.0" y="794.0"/>
      <point x="14.0" y="837.0"/>
    </contour>
  </outline>
</glyph>
<glyph name="a" format="2">
  <advance width="717"/>
  <unicode hex="0061"/>
  <outline>
    <contour>
      <point x="371.0" y="320" type="curve" smooth="yes"/>
      <point x="393.0" y="321"/>
      <point x="398" y="303"/>
      <point x="398.0" y="291" type="curve" smooth="yes"/>
      <point x="398.0" y="129" type="line" smooth="yes"/>
      <point x="398.0" y="114.0"/>
      <point x="385.0" y="88"/>
      <point x="366.0" y="88" type="curve" smooth="yes"/>
      <point x="310.0" y="87"/>
      <point x="295.0" y="143"/>
      <point x="297.0" y="202" type="curve" smooth="yes"/>
      <point x="299.0" y="258"/>
      <point x="341.0" y="319"/>
    </contour>
    <contour>
      <point x="380" y="570"/>
      <point x="395.0" y="500.52007601116804"/>
      <point x="395" y="414" type="curve" smooth="yes"/>
      <point x="395" y="396"/>
      <point x="393" y="382"/>
      <point x="389" y="379" type="curve" smooth="yes"/>
      <point x="373" y="366"/>
      <point x="319" y="377"/>
      <point x="242" y="367" type="curve" smooth="yes"/>
      <point x="107" y="350"/>
      <point x="34" y="283"/>
      <point x="34" y="189" type="curve" smooth="yes"/>
      <point x="34" y="43"/>
      <point x="121" y="-26"/>
      <point x="241" y="-25" type="curve"/>
      <point x="332" y="-25"/>
      <point x="377" y="46"/>
      <point x="399" y="42" type="curve" smooth="yes"/>
      <point x="413" y="40"/>
      <point x="420" y="30"/>
      <point x="430" y="15" type="curve" smooth="yes"/>
      <point x="438" y="3"/>
      <point x="463" y="-25"/>
      <point x="525" y="-25" type="curve" smooth="yes"/>
      <point x="633" y="-25"/>
      <point x="700" y="29"/>
      <point x="700" y="78" type="curve" smooth="yes"/>
      <point x="700" y="140"/>
      <point x="662" y="82"/>
      <point x="639" y="96" type="curve" smooth="yes"/>
      <point x="626" y="104"/>
      <point x="630" y="124"/>
      <point x="630" y="134" type="curve" smooth="yes"/>
      <point x="630" y="428" type="line" smooth="yes"/>
      <point x="630" y="577"/>
      <point x="488" y="631"/>
      <point x="335" y="631" type="curve" smooth="yes"/>
      <point x="118" y="631"/>
      <point x="54" y="559"/>
      <point x="54" y="492" type="curve" smooth="yes"/>
      <point x="54" y="443"/>
      <point x="106" y="398"/>
      <point x="179" y="398" type="curve" smooth="yes"/>
      <point x="241" y="398"/>
      <point x="298" y="446"/>
      <point x="298" y="496" type="curve" smooth="yes"/>
      <point x="298" y="523"/>
      <point x="284" y="541"/>
      <point x="284" y="553" type="curve" smooth="yes"/>
      <point x="284.0" y="565"/>
      <point x="299" y="573"/>
      <point x="326" y="572" type="curve" smooth="yes"/>
    </contour>
  </outline>
</glyph>
<glyph name="b" format="2">
  <advance width="716"/>
  <unicode hex="0062"/>
  <outline>
    <contour>
      <point x="65" y="9" type="curve" smooth="yes"/>
      <point x="93" y="-32"/>
      <point x="150" y="26"/>
      <point x="177" y="12" type="curve" smooth="yes"/>
      <point x="210" y="-5"/>
      <point x="267.01015620947766" y="-29"/>
      <point x="374.01015620947766" y="-29" type="curve" smooth="yes"/>
      <point x="516.0101562094776" y="-29"/>
      <point x="688.0101562094776" y="73"/>
      <point x="687.0101562094776" y="298" type="curve" smooth="yes"/>
      <point x="686.0101562094776" y="497"/>
      <point x="596.0101562094776" y="612"/>
      <point x="472.01015620947766" y="611" type="curve"/>
      <point x="378.01015620947766" y="611"/>
      <point x="311.01015620947766" y="512"/>
      <point x="311.01015620947766" y="535" type="curve" smooth="yes"/>
      <point x="311.01015620947766" y="717" type="line" smooth="yes"/>
      <point x="311.01015620947766" y="754.0"/>
      <point x="259.01015620947766" y="752"/>
      <point x="186.01015620947766" y="746" type="curve" smooth="yes"/>
      <point x="107.01015620947766" y="738"/>
      <point x="34.01015620947766" y="707"/>
      <point x="35.01015620947766" y="684" type="curve" smooth="yes"/>
      <point x="37.01015620947766" y="657"/>
      <point x="79.0" y="660.0"/>
      <point x="79" y="638" type="curve" smooth="yes"/>
      <point x="79" y="114" type="line" smooth="yes"/>
      <point x="79" y="54"/>
      <point x="56" y="22"/>
    </contour>
    <contour>
      <point x="347.0" y="479" type="curve" smooth="yes"/>
      <point x="378.0" y="475"/>
      <point x="419.0" y="405"/>
      <point x="419.0" y="249" type="curve" smooth="yes"/>
      <point x="419.0" y="100"/>
      <point x="398.0" y="47"/>
      <point x="357.0" y="48" type="curve" smooth="yes"/>
      <point x="322.0" y="49"/>
      <point x="314.0" y="93"/>
      <point x="314.0" y="120" type="curve" smooth="yes"/>
      <point x="314.0" y="427" type="line" smooth="yes"/>
      <point x="314.0" y="448"/>
      <point x="325.0" y="481"/>
    </contour>
  </outline>
</glyph>
<glyph name="c" format="2">
  <advance width="671"/>
  <unicode hex="0063"/>
  <outline>
    <contour>
      <point x="514" y="209"/>
      <point x="540" y="108.0"/>
      <point x="428" y="108.0" type="curve" smooth="yes"/>
      <point x="348" y="108.0"/>
      <point x="273" y="239.0"/>
      <point x="273" y="351.0" type="curve" smooth="yes"/>
      <point x="273" y="497.0"/>
      <point x="310" y="538.0"/>
      <point x="351" y="538.0" type="curve" smooth="yes"/>
      <point x="435" y="538.0"/>
      <point x="395" y="464.0"/>
      <point x="395" y="436.0" type="curve" smooth="yes"/>
      <point x="395" y="358.0"/>
      <point x="460" y="313.0"/>
      <point x="539" y="313.0" type="curve" smooth="yes"/>
      <point x="600" y="313.0"/>
      <point x="646" y="354.0"/>
      <point x="646" y="419.0" type="curve" smooth="yes"/>
      <point x="646" y="494.0"/>
      <point x="554" y="628.0"/>
      <point x="348" y="628.0" type="curve" smooth="yes"/>
      <point x="180" y="628.0"/>
      <point x="27" y="512.0"/>
      <point x="27" y="313.0" type="curve" smooth="yes"/>
      <point x="27" y="128.0"/>
      <point x="159" y="-32.0"/>
      <point x="361" y="-32.0" type="curve" smooth="yes"/>
      <point x="548" y="-32.0"/>
      <point x="617" y="92.0"/>
      <point x="620" y="149.0" type="curve" smooth="yes"/>
      <point x="621" y="171.0"/>
      <point x="622" y="209"/>
      <point x="585" y="209.0" type="curve" smooth="yes"/>
    </contour>
  </outline>
</glyph>
<glyph name="d" format="2">
  <advance width="716"/>
  <unicode hex="0064"/>
  <outline>
    <contour>
      <point x="375.0" y="510.0" type="curve" smooth="yes"/>
      <point x="344.0" y="506.0"/>
      <point x="303.0" y="436.0"/>
      <point x="303.0" y="280.0" type="curve" smooth="yes"/>
      <point x="303.0" y="131.0"/>
      <point x="324.0" y="78.0"/>
      <point x="365.0" y="79.0" type="curve" smooth="yes"/>
      <point x="400.0" y="80.0"/>
      <point x="408.0" y="124.0"/>
      <point x="408.0" y="151.0" type="curve" smooth="yes"/>
      <point x="408.0" y="458.0" type="line" smooth="yes"/>
      <point x="408.0" y="479.0"/>
      <point x="397.0" y="512.0"/>
    </contour>
    <contour>
      <point x="647" y="721" type="curve"/>
      <point x="649" y="116" type="line" smooth="yes"/>
      <point x="649" y="56"/>
      <point x="693" y="78"/>
      <point x="692" y="42" type="curve" smooth="yes"/>
      <point x="691" y="-7"/>
      <point x="638" y="-16"/>
      <point x="560" y="-26" type="curve" smooth="yes"/>
      <point x="502" y="-33"/>
      <point x="478" y="-30"/>
      <point x="460" y="-19" type="curve" smooth="yes"/>
      <point x="441" y="-8"/>
      <point x="441" y="19"/>
      <point x="427" y="19" type="curve" smooth="yes"/>
      <point x="414" y="19"/>
      <point x="378" y="-29"/>
      <point x="301" y="-29" type="curve" smooth="yes"/>
      <point x="149" y="-29"/>
      <point x="35" y="48"/>
      <point x="35" y="280" type="curve" smooth="yes"/>
      <point x="35" y="507"/>
      <point x="148" y="611"/>
      <point x="277" y="611" type="curve"/>
      <point x="371" y="611"/>
      <point x="411.0" y="561.0"/>
      <point x="411" y="584" type="curve" smooth="yes"/>
      <point x="411" y="642" type="line" smooth="yes"/>
      <point x="411.0" y="664.0"/>
      <point x="373" y="661"/>
      <point x="371" y="688" type="curve" smooth="yes"/>
      <point x="370" y="711"/>
      <point x="443" y="742"/>
      <point x="522" y="750" type="curve" smooth="yes"/>
      <point x="595" y="756"/>
      <point x="647" y="758"/>
    </contour>
  </outline>
</glyph>
<glyph name="e" format="2">
  <advance width="652"/>
  <unicode hex="0065"/>
  <guideline x="978" y="630" angle="0" identifier="uY4pmz8U0j"/>
  <outline>
    <contour>
      <point x="430" y="96.0" type="curve" smooth="yes"/>
      <point x="304" y="80.0"/>
      <point x="266" y="184"/>
      <point x="266" y="275.0" type="curve" smooth="yes"/>
      <point x="266" y="289"/>
      <point x="270" y="290"/>
      <point x="282" y="290.0" type="curve" smooth="yes"/>
      <point x="524" y="290.0" type="line" smooth="yes"/>
      <point x="584" y="290"/>
      <point x="629" y="328.0"/>
      <point x="629" y="393.0" type="curve" smooth="yes"/>
      <point x="629" y="475.0"/>
      <point x="492" y="641.0"/>
      <point x="329" y="641.0" type="curve" smooth="yes"/>
      <point x="172" y="641.0"/>
      <point x="27" y="512.0"/>
      <point x="27" y="336.0" type="curve" smooth="yes"/>
      <point x="27" y="128.0"/>
      <point x="157" y="-32.0"/>
      <point x="357" y="-32.0" type="curve" smooth="yes"/>
      <point x="542" y="-32.0"/>
      <point x="598" y="79.0"/>
      <point x="609" y="119.0" type="curve" smooth="yes"/>
      <point x="614" y="141.0"/>
      <point x="611" y="179.0"/>
      <point x="574" y="179.0" type="curve" smooth="yes"/>
      <point x="517" y="179.0"/>
      <point x="528" y="108.0"/>
    </contour>
    <contour>
      <point x="265" y="403" type="curve" smooth="yes"/>
      <point x="265" y="450"/>
      <point x="276" y="546"/>
      <point x="329" y="546" type="curve" smooth="yes"/>
      <point x="386" y="546"/>
      <point x="393" y="451"/>
      <point x="393" y="403" type="curve" smooth="yes"/>
      <point x="393" y="385"/>
      <point x="391" y="380"/>
      <point x="371" y="380" type="curve" smooth="yes"/>
      <point x="345" y="380.0"/>
      <point x="317" y="380"/>
      <point x="285" y="380" type="curve" smooth="yes"/>
      <point x="274" y="380"/>
      <point x="265" y="385"/>
    </contour>
  </outline>
</glyph>
<glyph name="f" format="2">
  <advance width="495"/>
  <unicode hex="0066"/>
  <outline>
    <contour>
      <point x="33.0" y="642" type="curve" smooth="yes"/>
      <point x="33.0" y="697"/>
      <point x="100" y="785"/>
      <point x="239.0" y="785" type="curve" smooth="yes"/>
      <point x="413" y="785"/>
      <point x="467.0" y="723"/>
      <point x="467.0" y="660" type="curve" smooth="yes"/>
      <point x="467" y="573"/>
      <point x="411.0" y="558"/>
      <point x="352.0" y="558" type="curve" smooth="yes"/>
      <point x="296.0" y="558"/>
      <point x="241.0" y="598"/>
      <point x="241.0" y="660" type="curve" smooth="yes"/>
      <point x="241.0" y="681"/>
      <point x="256" y="703"/>
      <point x="256.0" y="710" type="curve" smooth="yes"/>
      <point x="256.0" y="717"/>
      <point x="244.0" y="720"/>
      <point x="238.0" y="720" type="curve" smooth="yes"/>
      <point x="220.0" y="720"/>
      <point x="200" y="691"/>
      <point x="200.0" y="660" type="curve" smooth="yes"/>
      <point x="200.0" y="545"/>
      <point x="357" y="541"/>
      <point x="357" y="478.0" type="curve" smooth="yes"/>
      <point x="357" y="75.0" type="line" smooth="yes"/>
      <point x="357.0" y="62.0"/>
      <point x="401" y="48"/>
      <point x="401" y="23" type="curve" smooth="yes"/>
      <point x="401" y="-3"/>
      <point x="344" y="-13.0"/>
      <point x="235" y="-13.0" type="curve" smooth="yes"/>
      <point x="114" y="-13"/>
      <point x="60" y="0"/>
      <point x="60" y="23" type="curve" smooth="yes"/>
      <point x="60" y="50"/>
      <point x="97.0" y="57.0"/>
      <point x="97" y="75.0" type="curve" smooth="yes"/>
      <point x="97" y="478.0" type="line" smooth="yes"/>
      <point x="97" y="547"/>
      <point x="33.0" y="575"/>
    </contour>
    <contour>
      <point x="44" y="508.0" type="curve" smooth="yes"/>
      <point x="89" y="508.0" type="line" smooth="yes"/>
      <point x="96" y="508.0"/>
      <point x="86" y="526.0"/>
      <point x="85" y="528.0" type="curve"/>
      <point x="293" y="541.0" type="line"/>
      <point x="296" y="539.0"/>
      <point x="365.0" y="508.0"/>
      <point x="392" y="508.0" type="curve" smooth="yes"/>
      <point x="432" y="508.0" type="line" smooth="yes"/>
      <point x="442" y="508"/>
      <point x="452" y="497.0"/>
      <point x="452" y="490.0" type="curve" smooth="yes"/>
      <point x="452" y="397.0" type="line" smooth="yes"/>
      <point x="452" y="388.0"/>
      <point x="442" y="381"/>
      <point x="432" y="381.0" type="curve" smooth="yes"/>
      <point x="392" y="381.0" type="line" smooth="yes"/>
      <point x="372" y="381.0"/>
      <point x="357" y="367.0"/>
      <point x="357" y="355.0" type="curve"/>
      <point x="97" y="355.0" type="line"/>
      <point x="97" y="376.0"/>
      <point x="94" y="381.0"/>
      <point x="84" y="381.0" type="curve" smooth="yes"/>
      <point x="44" y="381.0" type="line" smooth="yes"/>
      <point x="33" y="381.0"/>
      <point x="28" y="390.0"/>
      <point x="28" y="397.0" type="curve" smooth="yes"/>
      <point x="28" y="490.0" type="line" smooth="yes"/>
      <point x="28" y="498.0"/>
      <point x="39" y="508.0"/>
    </contour>
  </outline>
</glyph>
<glyph name="g" format="2">
  <advance width="694"/>
  <unicode hex="0067"/>
  <outline>
    <contour>
      <point x="258" y="494"/>
      <point x="278" y="541"/>
      <point x="319" y="541" type="curve" smooth="yes"/>
      <point x="375" y="541"/>
      <point x="404" y="468"/>
      <point x="404" y="407" type="curve" smooth="yes"/>
      <point x="404" y="348"/>
      <point x="366" y="327"/>
      <point x="339" y="327" type="curve" smooth="yes"/>
      <point x="293" y="327"/>
      <point x="258" y="386"/>
      <point x="258" y="453" type="curve" smooth="yes"/>
    </contour>
    <contour>
      <point x="282" y="631" type="curve" smooth="yes"/>
      <point x="147" y="618"/>
      <point x="32" y="527"/>
      <point x="45" y="414" type="curve" smooth="yes"/>
      <point x="58" y="295"/>
      <point x="176" y="222"/>
      <point x="342" y="230" type="curve" smooth="yes"/>
      <point x="529" y="241"/>
      <point x="639" y="340"/>
      <point x="609" y="470" type="curve" smooth="yes"/>
      <point x="587" y="570"/>
      <point x="458" y="644"/>
    </contour>
    <contour>
      <point x="471" y="608" type="curve"/>
      <point x="557" y="512" type="line"/>
      <point x="596" y="506" type="line"/>
      <point x="611" y="524"/>
      <point x="635" y="554"/>
      <point x="635" y="595" type="curve" smooth="yes"/>
      <point x="635" y="620"/>
      <point x="629" y="687"/>
      <point x="587" y="681" type="curve" smooth="yes"/>
      <point x="572" y="679"/>
      <point x="557" y="630"/>
      <point x="521" y="614" type="curve" smooth="yes"/>
      <point x="499" y="604"/>
      <point x="496" y="603"/>
    </contour>
    <contour>
      <point x="143" y="295" type="line"/>
      <point x="101" y="260"/>
      <point x="26" y="199"/>
      <point x="44" y="139" type="curve" smooth="yes"/>
      <point x="50" y="119"/>
      <point x="63" y="101"/>
      <point x="80" y="86" type="curve"/>
      <point x="110" y="62"/>
      <point x="46" y="63"/>
      <point x="47" y="11" type="curve" smooth="yes"/>
      <point x="48" y="-45"/>
      <point x="84" y="-156"/>
      <point x="357" y="-156" type="curve" smooth="yes"/>
      <point x="561" y="-156"/>
      <point x="685" y="-65"/>
      <point x="685" y="64" type="curve" smooth="yes"/>
      <point x="685" y="134"/>
      <point x="645" y="190"/>
      <point x="568" y="208" type="curve" smooth="yes"/>
      <point x="470" y="231"/>
      <point x="334" y="154"/>
      <point x="205" y="204" type="curve" smooth="yes"/>
      <point x="164" y="220"/>
      <point x="173" y="246"/>
      <point x="211" y="272" type="curve"/>
    </contour>
    <contour>
      <point x="339" y="5" type="curve" smooth="yes"/>
      <point x="416" y="5"/>
      <point x="431" y="19"/>
      <point x="463" y="19" type="curve" smooth="yes"/>
      <point x="488" y="19"/>
      <point x="494" y="1"/>
      <point x="490" y="-11" type="curve" smooth="yes"/>
      <point x="482" y="-35"/>
      <point x="416" y="-56"/>
      <point x="349" y="-56" type="curve" smooth="yes"/>
      <point x="239" y="-56"/>
      <point x="159" y="0"/>
      <point x="207" y="23" type="curve"/>
      <point x="246" y="8"/>
      <point x="304" y="5"/>
    </contour>
  </outline>
</glyph>
<glyph name="h" format="2">
  <advance width="736"/>
  <unicode hex="0068"/>
  <outline>
    <contour>
      <point x="35" y="674.0" type="curve" smooth="yes"/>
      <point x="36" y="695"/>
      <point x="87" y="723"/>
      <point x="155" y="740.0" type="curve" smooth="yes"/>
      <point x="228" y="758"/>
      <point x="294" y="774"/>
      <point x="307" y="756.0" type="curve" smooth="yes"/>
      <point x="315" y="745"/>
      <point x="302" y="556"/>
      <point x="313" y="546" type="curve"/>
      <point x="318" y="68" type="line" smooth="yes"/>
      <point x="318" y="55"/>
      <point x="355" y="51"/>
      <point x="355" y="23" type="curve" smooth="yes"/>
      <point x="355" y="-4"/>
      <point x="274" y="-7"/>
      <point x="201" y="-9" type="curve" smooth="yes"/>
      <point x="122" y="-11"/>
      <point x="40" y="1"/>
      <point x="39" y="24" type="curve" smooth="yes"/>
      <point x="37" y="51"/>
      <point x="70.5" y="51"/>
      <point x="70.5" y="73" type="curve" smooth="yes"/>
      <point x="70.5" y="635.0" type="line" smooth="yes"/>
      <point x="70.5" y="649"/>
      <point x="34" y="654"/>
    </contour>
    <contour>
      <point x="315" y="437" type="curve" smooth="yes"/>
      <point x="315" y="427"/>
      <point x="302" y="556"/>
      <point x="313" y="546" type="curve" smooth="yes"/>
      <point x="328" y="532"/>
      <point x="378" y="592"/>
      <point x="453" y="611" type="curve" smooth="yes"/>
      <point x="538" y="633"/>
      <point x="669.0" y="586"/>
      <point x="669" y="478" type="curve" smooth="yes"/>
      <point x="669" y="68" type="line" smooth="yes"/>
      <point x="669" y="55"/>
      <point x="707" y="51"/>
      <point x="706" y="23" type="curve"/>
      <point x="707" y="-4"/>
      <point x="628" y="-7"/>
      <point x="555" y="-9" type="curve" smooth="yes"/>
      <point x="476" y="-11"/>
      <point x="386" y="1"/>
      <point x="385" y="24" type="curve" smooth="yes"/>
      <point x="383" y="51"/>
      <point x="415" y="51"/>
      <point x="415" y="73" type="curve" smooth="yes"/>
      <point x="419" y="437" type="line" smooth="yes"/>
      <point x="419" y="470"/>
      <point x="396" y="495"/>
      <point x="364" y="495" type="curve" smooth="yes"/>
      <point x="332" y="495"/>
      <point x="315" y="468"/>
    </contour>
  </outline>
</glyph>
<glyph name="i" format="2">
  <advance width="384"/>
  <unicode hex="0069"/>
  <outline>
    <contour>
      <point x="34" y="523" type="curve" smooth="yes"/>
      <point x="34" y="559"/>
      <point x="203" y="593"/>
      <point x="274" y="593" type="curve" smooth="yes"/>
      <point x="316" y="593"/>
      <point x="317.0" y="575.0"/>
      <point x="317" y="532" type="curve" smooth="yes"/>
      <point x="317" y="68" type="line" smooth="yes"/>
      <point x="317" y="55"/>
      <point x="354" y="51"/>
      <point x="354" y="23" type="curve" smooth="yes"/>
      <point x="354" y="-4"/>
      <point x="273" y="-7"/>
      <point x="200" y="-9" type="curve" smooth="yes"/>
      <point x="121" y="-11"/>
      <point x="39" y="1"/>
      <point x="38" y="24" type="curve" smooth="yes"/>
      <point x="36" y="51"/>
      <point x="68" y="51"/>
      <point x="68" y="73" type="curve" smooth="yes"/>
      <point x="71" y="463" type="line" smooth="yes"/>
      <point x="71" y="477"/>
      <point x="34" y="503"/>
    </contour>
    <contour>
      <point x="225" y="763" type="curve" smooth="yes"/>
      <point x="99" y="763"/>
      <point x="34" y="695"/>
      <point x="34" y="663" type="curve" smooth="yes"/>
      <point x="34" y="626"/>
      <point x="74" y="611"/>
      <point x="114" y="611" type="curve" smooth="yes"/>
      <point x="221" y="611"/>
      <point x="317" y="654"/>
      <point x="317" y="705" type="curve" smooth="yes"/>
      <point x="317" y="745"/>
      <point x="275" y="763"/>
    </contour>
  </outline>
</glyph>
<glyph name="j" format="2">
  <advance width="424"/>
  <unicode hex="006A"/>
  <outline>
    <contour>
      <point x="265" y="763" type="curve" smooth="yes"/>
      <point x="139" y="763"/>
      <point x="74" y="695"/>
      <point x="74" y="663" type="curve" smooth="yes"/>
      <point x="74" y="626"/>
      <point x="114" y="611"/>
      <point x="154" y="611" type="curve" smooth="yes"/>
      <point x="261" y="611"/>
      <point x="357" y="654"/>
      <point x="357" y="705" type="curve" smooth="yes"/>
      <point x="357" y="745"/>
      <point x="315" y="763"/>
    </contour>
    <contour>
      <point x="256" y="-16" type="curve" smooth="yes"/>
      <point x="256" y="-70"/>
      <point x="228" y="-85"/>
      <point x="219" y="-85" type="curve" smooth="yes"/>
      <point x="213" y="-85"/>
      <point x="210" y="-82"/>
      <point x="210" y="-75" type="curve" smooth="yes"/>
      <point x="210" y="-55"/>
      <point x="232" y="-54"/>
      <point x="232" y="-17" type="curve" smooth="yes"/>
      <point x="232" y="45"/>
      <point x="185" y="85"/>
      <point x="121" y="85" type="curve" smooth="yes"/>
      <point x="62" y="85"/>
      <point x="14" y="47"/>
      <point x="14" y="-25" type="curve" smooth="yes"/>
      <point x="14" y="-88"/>
      <point x="53" y="-150"/>
      <point x="178" y="-150" type="curve" smooth="yes"/>
      <point x="296.0" y="-150.0"/>
      <point x="357" y="-63"/>
      <point x="357" y="-8" type="curve" smooth="yes"/>
      <point x="357" y="532" type="line" smooth="yes"/>
      <point x="357" y="575"/>
      <point x="356" y="593"/>
      <point x="314" y="593" type="curve" smooth="yes"/>
      <point x="243" y="593"/>
      <point x="74" y="559"/>
      <point x="74" y="523" type="curve" smooth="yes"/>
      <point x="74" y="503"/>
      <point x="111" y="477"/>
      <point x="111" y="463" type="curve" smooth="yes"/>
      <point x="111" y="104" type="line"/>
      <point x="225" y="109"/>
      <point x="256" y="49"/>
    </contour>
  </outline>
</glyph>
<glyph name="k" format="2">
  <advance width="736"/>
  <unicode hex="006B"/>
  <outline>
    <contour>
      <point x="35" y="674.0" type="curve" smooth="yes"/>
      <point x="36" y="695"/>
      <point x="87" y="723"/>
      <point x="155" y="740.0" type="curve" smooth="yes"/>
      <point x="228" y="758"/>
      <point x="294" y="774"/>
      <point x="307" y="756.0" type="curve" smooth="yes"/>
      <point x="315" y="745"/>
      <point x="318.0" y="552.0"/>
      <point x="318" y="537" type="curve" smooth="yes"/>
      <point x="318" y="68" type="line" smooth="yes"/>
      <point x="318" y="55"/>
      <point x="355" y="51"/>
      <point x="355" y="23" type="curve" smooth="yes"/>
      <point x="355" y="-4"/>
      <point x="274" y="-7"/>
      <point x="201" y="-9" type="curve" smooth="yes"/>
      <point x="122" y="-11"/>
      <point x="40" y="1"/>
      <point x="39" y="24" type="curve" smooth="yes"/>
      <point x="37" y="51"/>
      <point x="71" y="51"/>
      <point x="71" y="73" type="curve" smooth="yes"/>
      <point x="71" y="635.0" type="line" smooth="yes"/>
      <point x="71" y="649"/>
      <point x="34" y="654"/>
    </contour>
    <contour>
      <point x="262" y="372" type="line"/>
      <point x="291" y="534" type="line"/>
      <point x="291" y="534" type="line"/>
      <point x="318" y="514" type="line"/>
      <point x="317" y="491"/>
      <point x="329" y="482"/>
      <point x="345" y="491" type="curve" smooth="yes"/>
      <point x="426" y="537" type="line" smooth="yes"/>
      <point x="436" y="543"/>
      <point x="441" y="548"/>
      <point x="439" y="553" type="curve" smooth="yes"/>
      <point x="436" y="560"/>
      <point x="402" y="569"/>
      <point x="402" y="588" type="curve" smooth="yes"/>
      <point x="402" y="607"/>
      <point x="425" y="623"/>
      <point x="537" y="623" type="curve" smooth="yes"/>
      <point x="644" y="623"/>
      <point x="689" y="614"/>
      <point x="690" y="589" type="curve" smooth="yes"/>
      <point x="691" y="570"/>
      <point x="659" y="566"/>
      <point x="644" y="561" type="curve" smooth="yes"/>
      <point x="631" y="557"/>
      <point x="623" y="552"/>
      <point x="616" y="547" type="curve" smooth="yes"/>
      <point x="365" y="369" type="line"/>
    </contour>
    <contour>
      <point x="539" y="423" type="curve" smooth="yes"/>
      <point x="696" y="66" type="line" smooth="yes"/>
      <point x="701" y="54"/>
      <point x="734" y="49"/>
      <point x="733" y="21" type="curve"/>
      <point x="734" y="-6"/>
      <point x="655" y="-9"/>
      <point x="582" y="-11" type="curve" smooth="yes"/>
      <point x="503" y="-13"/>
      <point x="483" y="-1"/>
      <point x="472" y="24" type="curve" smooth="yes"/>
      <point x="354" y="296" type="line" smooth="yes"/>
      <point x="339" y="330"/>
      <point x="318" y="320"/>
      <point x="318" y="287" type="curve" smooth="yes"/>
      <point x="318" y="279" type="line"/>
      <point x="234" y="370" type="line"/>
      <point x="560" y="508" type="line"/>
      <point x="545" y="497" type="line" smooth="yes"/>
      <point x="520" y="478"/>
      <point x="524" y="457"/>
    </contour>
  </outline>
</glyph>
<glyph name="l" format="2">
  <advance width="390"/>
  <unicode hex="006C"/>
  <outline>
    <contour>
      <point x="35" y="674.0" type="curve" smooth="yes"/>
      <point x="35" y="694"/>
      <point x="87" y="723"/>
      <point x="155" y="740.0" type="curve" smooth="yes"/>
      <point x="228" y="758"/>
      <point x="318.0" y="777"/>
      <point x="318" y="736.0" type="curve" smooth="yes"/>
      <point x="318" y="68" type="line"/>
      <point x="318" y="55"/>
      <point x="355" y="51"/>
      <point x="355" y="23" type="curve" smooth="yes"/>
      <point x="355" y="-4"/>
      <point x="274" y="-7"/>
      <point x="201" y="-9" type="curve" smooth="yes"/>
      <point x="122" y="-11"/>
      <point x="39" y="1"/>
      <point x="39" y="24" type="curve" smooth="yes"/>
      <point x="39" y="52"/>
      <point x="70.5" y="51"/>
      <point x="70.5" y="73" type="curve" smooth="yes"/>
      <point x="70.5" y="635.0" type="line" smooth="yes"/>
      <point x="70.5" y="649"/>
      <point x="35" y="654"/>
    </contour>
  </outline>
</glyph>
<glyph name="m" format="2">
  <advance width="1074"/>
  <unicode hex="006D"/>
  <outline>
    <contour>
      <point x="35.01939618822736" y="516.0" type="curve" smooth="yes"/>
      <point x="36.01939618822736" y="537"/>
      <point x="87.01939618822736" y="565"/>
      <point x="155.01939618822735" y="582.0" type="curve" smooth="yes"/>
      <point x="228.01939618822735" y="600"/>
      <point x="294" y="616"/>
      <point x="307" y="598.0" type="curve" smooth="yes"/>
      <point x="315" y="587"/>
      <point x="302.01939618822735" y="556"/>
      <point x="313.01939618822735" y="546" type="curve"/>
      <point x="318.01939618822735" y="68" type="line" smooth="yes"/>
      <point x="318.01939618822735" y="55"/>
      <point x="355.01939618822735" y="51"/>
      <point x="355.01939618822735" y="23" type="curve" smooth="yes"/>
      <point x="355.01939618822735" y="-4"/>
      <point x="274.1093870054909" y="-7"/>
      <point x="201.10938700549093" y="-9" type="curve" smooth="yes"/>
      <point x="122.1093870054909" y="-11"/>
      <point x="40.01939618822736" y="1"/>
      <point x="39.01939618822736" y="24" type="curve" smooth="yes"/>
      <point x="37.01939618822736" y="51"/>
      <point x="69.01939618822736" y="51"/>
      <point x="69.01939618822736" y="73" type="curve" smooth="yes"/>
      <point x="72.01939618822736" y="477.0" type="line" smooth="yes"/>
      <point x="72.01939618822736" y="491"/>
      <point x="34.01939618822736" y="496"/>
    </contour>
    <contour>
      <point x="315" y="437" type="curve" smooth="yes"/>
      <point x="315" y="427"/>
      <point x="302" y="556"/>
      <point x="313" y="546" type="curve" smooth="yes"/>
      <point x="328" y="532"/>
      <point x="378" y="592"/>
      <point x="453" y="611" type="curve" smooth="yes"/>
      <point x="538" y="633"/>
      <point x="669" y="586"/>
      <point x="669" y="478" type="curve" smooth="yes"/>
      <point x="669" y="68" type="line" smooth="yes"/>
      <point x="669" y="55"/>
      <point x="706" y="51"/>
      <point x="706" y="23" type="curve" smooth="yes"/>
      <point x="706" y="-4"/>
      <point x="628" y="-7"/>
      <point x="555" y="-9" type="curve" smooth="yes"/>
      <point x="476" y="-11"/>
      <point x="386" y="1"/>
      <point x="385" y="24" type="curve" smooth="yes"/>
      <point x="383" y="51"/>
      <point x="415" y="51"/>
      <point x="415" y="73" type="curve" smooth="yes"/>
      <point x="419" y="437" type="line" smooth="yes"/>
      <point x="419" y="457"/>
      <point x="413" y="473"/>
      <point x="399" y="484" type="curve" smooth="yes"/>
      <point x="390" y="491"/>
      <point x="377" y="495"/>
      <point x="364" y="495" type="curve" smooth="yes"/>
      <point x="351" y="495"/>
      <point x="340" y="491"/>
      <point x="332" y="484" type="curve" smooth="yes"/>
      <point x="320" y="474"/>
      <point x="315" y="455"/>
    </contour>
    <contour>
      <point x="669" y="437" type="curve" smooth="yes"/>
      <point x="669" y="427"/>
      <point x="642" y="548"/>
      <point x="653" y="538" type="curve" smooth="yes"/>
      <point x="668" y="524"/>
      <point x="725" y="592"/>
      <point x="800" y="611" type="curve" smooth="yes"/>
      <point x="885" y="633"/>
      <point x="1016" y="586"/>
      <point x="1016" y="478" type="curve" smooth="yes"/>
      <point x="1016" y="68" type="line" smooth="yes"/>
      <point x="1016" y="55"/>
      <point x="1053" y="51"/>
      <point x="1053" y="23" type="curve" smooth="yes"/>
      <point x="1053" y="-4"/>
      <point x="975" y="-7"/>
      <point x="902" y="-9" type="curve" smooth="yes"/>
      <point x="823" y="-11"/>
      <point x="733" y="1"/>
      <point x="732" y="24" type="curve" smooth="yes"/>
      <point x="730" y="51"/>
      <point x="762" y="51"/>
      <point x="762" y="73" type="curve" smooth="yes"/>
      <point x="766" y="437" type="line" smooth="yes"/>
      <point x="766" y="457"/>
      <point x="761" y="475"/>
      <point x="750" y="485" type="curve" smooth="yes"/>
      <point x="743" y="491"/>
      <point x="732" y="494"/>
      <point x="718" y="494" type="curve" smooth="yes"/>
      <point x="703" y="494"/>
      <point x="693" y="491"/>
      <point x="686" y="484" type="curve" smooth="yes"/>
      <point x="673" y="471"/>
      <point x="669" y="453"/>
    </contour>
  </outline>
</glyph>
<glyph name="n" format="2">
  <advance width="703"/>
  <unicode hex="006E"/>
  <outline>
    <contour>
      <point x="16.089990817263544" y="560" type="curve" smooth="yes"/>
      <point x="19.089990817263544" y="579"/>
      <point x="77.08999081726354" y="608"/>
      <point x="140.08999081726355" y="619" type="curve"/>
      <point x="214.08999081726355" y="632"/>
      <point x="298.0899908172635" y="636"/>
      <point x="310.0899908172635" y="622" type="curve" smooth="yes"/>
      <point x="317.0899908172635" y="614"/>
      <point x="320.0899908172635" y="597"/>
      <point x="307.0899908172635" y="586" type="curve" smooth="yes"/>
      <point x="297.0899908172635" y="577"/>
      <point x="297.0899908172635" y="569"/>
      <point x="297.0899908172635" y="564" type="curve" smooth="yes"/>
      <point x="299.0899908172635" y="62" type="line"/>
      <point x="300.0899908172635" y="49"/>
      <point x="336.0" y="45"/>
      <point x="336.0" y="17" type="curve" smooth="yes"/>
      <point x="336.0" y="-10"/>
      <point x="258.0899908172635" y="-13"/>
      <point x="185.08999081726355" y="-15" type="curve" smooth="yes"/>
      <point x="106.08999081726354" y="-17"/>
      <point x="16.089990817263544" y="-5"/>
      <point x="15.089990817263544" y="18" type="curve" smooth="yes"/>
      <point x="13.089990817263544" y="45"/>
      <point x="45.08999081726354" y="45"/>
      <point x="45.08999081726354" y="67" type="curve" smooth="yes"/>
      <point x="50.08999081726354" y="519" type="line" smooth="yes"/>
      <point x="50.08999081726354" y="533"/>
      <point x="13.089990817263544" y="541"/>
    </contour>
    <contour>
      <point x="297.0" y="464" type="curve" smooth="yes"/>
      <point x="297.0" y="454"/>
      <point x="277.0899908172635" y="535"/>
      <point x="295.0899908172635" y="551" type="curve" smooth="yes"/>
      <point x="317.0899908172635" y="570"/>
      <point x="341.0899908172635" y="597"/>
      <point x="417.0899908172635" y="610" type="curve" smooth="yes"/>
      <point x="491.0899908172635" y="623"/>
      <point x="627.0899908172636" y="610"/>
      <point x="650.0899908172636" y="544" type="curve" smooth="yes"/>
      <point x="670.0899908172636" y="486"/>
      <point x="645.0899908172636" y="127"/>
      <point x="653.0899908172636" y="62" type="curve" smooth="yes"/>
      <point x="654.0899908172636" y="49"/>
      <point x="691.0" y="45"/>
      <point x="690.0" y="17" type="curve"/>
      <point x="691.0" y="-10"/>
      <point x="612.0899908172636" y="-13"/>
      <point x="539.0899908172636" y="-15" type="curve" smooth="yes"/>
      <point x="460.0899908172635" y="-17"/>
      <point x="370.0899908172635" y="-5"/>
      <point x="369.0899908172635" y="18" type="curve" smooth="yes"/>
      <point x="367.0899908172635" y="45"/>
      <point x="399.0" y="45"/>
      <point x="399.0899908172635" y="67" type="curve" smooth="yes"/>
      <point x="403.0" y="461" type="line" smooth="yes"/>
      <point x="403.0" y="494"/>
      <point x="380.0" y="513"/>
      <point x="348.0" y="513" type="curve" smooth="yes"/>
      <point x="316.0" y="513"/>
      <point x="298.0" y="495"/>
    </contour>
  </outline>
</glyph>
<glyph name="o" format="2">
  <advance width="642"/>
  <unicode hex="006F"/>
  <outline>
    <contour>
      <point x="293.0" y="485" type="curve" smooth="yes"/>
      <point x="341.0" y="489"/>
      <point x="380.0" y="411"/>
      <point x="393.0" y="321" type="curve" smooth="yes"/>
      <point x="411.0" y="206"/>
      <point x="397.0" y="148"/>
      <point x="349.0" y="143" type="curve" smooth="yes"/>
      <point x="308.0" y="138"/>
      <point x="264.0" y="205"/>
      <point x="251.0" y="297" type="curve" smooth="yes"/>
      <point x="236.0" y="384"/>
      <point x="249.0" y="482"/>
    </contour>
    <contour>
      <point x="258.49941198690743" y="634" type="curve" smooth="yes"/>
      <point x="121.03256554004577" y="622"/>
      <point x="10.032565540045766" y="480"/>
      <point x="33.032565540045766" y="292" type="curve" smooth="yes"/>
      <point x="56.032565540045766" y="101"/>
      <point x="181.03256554004577" y="-22"/>
      <point x="351.03256554004577" y="-17" type="curve" smooth="yes"/>
      <point x="542.0325655400458" y="-11"/>
      <point x="645.0325655400458" y="149"/>
      <point x="605.4994119869074" y="360" type="curve" smooth="yes"/>
      <point x="574.0325655400458" y="526"/>
      <point x="436.03256554004577" y="649"/>
    </contour>
  </outline>
</glyph>
<glyph name="p" format="2">
  <advance width="689"/>
  <unicode hex="0070"/>
  <outline>
    <contour>
      <point x="30.008444424065175" y="560" type="curve" smooth="yes"/>
      <point x="33.008444424065175" y="579"/>
      <point x="91.00844442406517" y="608"/>
      <point x="154.00844442406517" y="619" type="curve"/>
      <point x="228.00844442406517" y="632"/>
      <point x="312.00844442406515" y="636"/>
      <point x="324.00844442406515" y="622" type="curve" smooth="yes"/>
      <point x="331.00844442406515" y="614"/>
      <point x="334.00844442406515" y="597"/>
      <point x="321.00844442406515" y="586" type="curve" smooth="yes"/>
      <point x="311.00844442406515" y="577"/>
      <point x="308.00844442406515" y="568"/>
      <point x="311.00844442406515" y="564" type="curve" smooth="yes"/>
      <point x="314.00844442406515" y="560"/>
      <point x="388.00844442406515" y="604"/>
      <point x="456.00844442406515" y="603" type="curve" smooth="yes"/>
      <point x="560.0084444240651" y="602"/>
      <point x="671.0084444240651" y="447"/>
      <point x="671.0084444240651" y="300" type="curve" smooth="yes"/>
      <point x="671.0084444240651" y="101"/>
      <point x="580.0084444240651" y="-8"/>
      <point x="456.00844442406515" y="-7" type="curve"/>
      <point x="362.00844442406515" y="-7"/>
      <point x="336.00844442406515" y="70"/>
      <point x="314.00844442406515" y="64" type="curve" smooth="yes"/>
      <point x="287.00844442406515" y="56"/>
      <point x="304.0094444240651" y="-71.399"/>
      <point x="305.00844442406515" y="-137" type="curve" smooth="yes"/>
      <point x="305.00844442406515" y="-150"/>
      <point x="341.00844442406515" y="-157"/>
      <point x="338.00844442406515" y="-185" type="curve" smooth="yes"/>
      <point x="336.00844442406515" y="-212"/>
      <point x="257.00844442406515" y="-207"/>
      <point x="184.00844442406517" y="-202" type="curve" smooth="yes"/>
      <point x="105.00844442406517" y="-196"/>
      <point x="17.008444424065175" y="-175"/>
      <point x="18.008444424065175" y="-152" type="curve" smooth="yes"/>
      <point x="19.008444424065175" y="-125"/>
      <point x="53.008444424065175" y="-128"/>
      <point x="53.008444424065175" y="-106" type="curve" smooth="yes"/>
      <point x="64.00844442406517" y="519" type="line" smooth="yes"/>
      <point x="64.00844442406517" y="533"/>
      <point x="27.008444424065175" y="541"/>
    </contour>
    <contour>
      <point x="327.00844442406515" y="505" type="curve" smooth="yes"/>
      <point x="305.00844442406515" y="507"/>
      <point x="294.00844442406515" y="484.0"/>
      <point x="294.00844442406515" y="465" type="curve" smooth="yes"/>
      <point x="294.00844442406515" y="178" type="line" smooth="yes"/>
      <point x="294.00844442406515" y="154"/>
      <point x="308.00844442406515" y="115"/>
      <point x="327.00844442406515" y="114" type="curve" smooth="yes"/>
      <point x="392.00844442406515" y="112"/>
      <point x="401.00844442406515" y="221"/>
      <point x="399.00844442406515" y="313" type="curve" smooth="yes"/>
      <point x="397.00844442406515" y="400"/>
      <point x="358.00844442406515" y="502"/>
    </contour>
  </outline>
</glyph>
<glyph name="q" format="2">
  <advance width="718"/>
  <unicode hex="0071"/>
  <outline>
    <contour>
      <point x="370.0" y="83.0" type="curve" smooth="yes"/>
      <point x="392.0" y="81.0"/>
      <point x="403.0" y="114.0"/>
      <point x="403.0" y="135.0" type="curve" smooth="yes"/>
      <point x="403.0" y="442.0" type="line" smooth="yes"/>
      <point x="403.0" y="469.0"/>
      <point x="395.0" y="513.0"/>
      <point x="360.0" y="514.0" type="curve" smooth="yes"/>
      <point x="319.0" y="515.0"/>
      <point x="298.0" y="462.0"/>
      <point x="298.0" y="313.0" type="curve" smooth="yes"/>
      <point x="298.0" y="157.0"/>
      <point x="339.0" y="87.0"/>
    </contour>
    <contour>
      <point x="649" y="-75" type="line" smooth="yes"/>
      <point x="649" y="-88"/>
      <point x="683" y="-87"/>
      <point x="683" y="-125" type="curve" smooth="yes"/>
      <point x="683" y="-152"/>
      <point x="648" y="-152"/>
      <point x="593" y="-152" type="curve" smooth="yes"/>
      <point x="459" y="-152"/>
      <point x="369" y="-118"/>
      <point x="369" y="-86" type="curve" smooth="yes"/>
      <point x="369" y="-44"/>
      <point x="410" y="-66"/>
      <point x="410" y="-10" type="curve" smooth="yes"/>
      <point x="410" y="96"/>
      <point x="368" y="-21"/>
      <point x="274" y="-21" type="curve"/>
      <point x="110" y="-21"/>
      <point x="30" y="149"/>
      <point x="30" y="338" type="curve" smooth="yes"/>
      <point x="30" y="527"/>
      <point x="199" y="619"/>
      <point x="343" y="619" type="curve" smooth="yes"/>
      <point x="450" y="619"/>
      <point x="524" y="589"/>
      <point x="550" y="589" type="curve" smooth="yes"/>
      <point x="579" y="589"/>
      <point x="627" y="631"/>
      <point x="652" y="594" type="curve" smooth="yes"/>
      <point x="661" y="581"/>
      <point x="649" y="536"/>
      <point x="649" y="476" type="curve" smooth="yes"/>
    </contour>
  </outline>
</glyph>
<glyph name="r" format="2">
  <advance width="562"/>
  <unicode hex="0072"/>
  <guideline x="538" y="630" angle="0" identifier="b5f4inpSgG"/>
  <outline>
    <contour>
      <point x="281" y="523" type="curve" smooth="yes"/>
      <point x="290" y="523"/>
      <point x="295" y="518"/>
      <point x="295" y="513" type="curve" smooth="yes"/>
      <point x="295" y="504"/>
      <point x="294" y="512"/>
      <point x="294" y="491" type="curve" smooth="yes"/>
      <point x="294" y="414"/>
      <point x="349" y="339"/>
      <point x="422" y="342" type="curve" smooth="yes"/>
      <point x="497" y="345"/>
      <point x="554" y="387"/>
      <point x="554" y="486" type="curve" smooth="yes"/>
      <point x="554" y="574"/>
      <point x="472" y="630"/>
      <point x="424" y="630" type="curve" smooth="yes"/>
      <point x="330" y="630"/>
      <point x="333" y="590"/>
      <point x="295" y="590" type="curve" smooth="yes"/>
      <point x="291" y="590"/>
      <point x="274" y="601"/>
      <point x="274" y="605" type="curve" smooth="yes"/>
      <point x="274" y="645"/>
      <point x="228" y="627"/>
      <point x="155" y="609" type="curve" smooth="yes"/>
      <point x="87" y="592"/>
      <point x="35" y="563"/>
      <point x="35" y="543" type="curve" smooth="yes"/>
      <point x="35" y="523"/>
      <point x="71.0" y="518.0"/>
      <point x="71" y="504" type="curve" smooth="yes"/>
      <point x="71" y="73" type="line" smooth="yes"/>
      <point x="71" y="51"/>
      <point x="39" y="52"/>
      <point x="39" y="24" type="curve" smooth="yes"/>
      <point x="39" y="1"/>
      <point x="122" y="-11"/>
      <point x="201" y="-9" type="curve" smooth="yes"/>
      <point x="274" y="-7"/>
      <point x="365" y="-4"/>
      <point x="365" y="23" type="curve" smooth="yes"/>
      <point x="365" y="56"/>
      <point x="318" y="64"/>
      <point x="318" y="77" type="curve" smooth="yes"/>
      <point x="318" y="321" type="line" smooth="yes"/>
      <point x="318.0" y="367.0"/>
      <point x="259" y="412"/>
      <point x="259" y="491" type="curve" smooth="yes"/>
      <point x="259" y="511"/>
      <point x="267" y="523"/>
    </contour>
  </outline>
</glyph>
<glyph name="s" format="2">
  <advance width="578"/>
  <unicode hex="0073"/>
  <outline>
    <contour>
      <point x="247" y="630" type="curve" smooth="yes"/>
      <point x="300" y="630"/>
      <point x="371" y="617"/>
      <point x="429" y="617" type="curve" smooth="yes"/>
      <point x="448" y="617"/>
      <point x="446" y="622"/>
      <point x="467" y="622" type="curve" smooth="yes"/>
      <point x="505" y="622"/>
      <point x="528" y="521"/>
      <point x="528" y="460" type="curve" smooth="yes"/>
      <point x="528" y="429"/>
      <point x="512" y="409"/>
      <point x="494" y="409" type="curve" smooth="yes"/>
      <point x="446" y="409"/>
      <point x="361" y="547"/>
      <point x="295" y="547" type="curve" smooth="yes"/>
      <point x="262" y="547"/>
      <point x="241" y="534"/>
      <point x="241" y="504" type="curve" smooth="yes"/>
      <point x="241" y="466"/>
      <point x="326" y="429"/>
      <point x="396" y="386" type="curve" smooth="yes"/>
      <point x="493" y="327"/>
      <point x="543" y="280"/>
      <point x="543" y="186" type="curve" smooth="yes"/>
      <point x="543" y="83"/>
      <point x="468" y="-10"/>
      <point x="357" y="-10" type="curve" smooth="yes"/>
      <point x="308" y="-10"/>
      <point x="210" y="5"/>
      <point x="166" y="5" type="curve" smooth="yes"/>
      <point x="142" y="5"/>
      <point x="130" y="-3"/>
      <point x="103" y="-3" type="curve" smooth="yes"/>
      <point x="52" y="-3"/>
      <point x="35" y="120"/>
      <point x="35" y="147" type="curve" smooth="yes"/>
      <point x="35" y="164"/>
      <point x="35" y="225"/>
      <point x="75" y="226" type="curve" smooth="yes"/>
      <point x="122" y="227"/>
      <point x="182" y="88"/>
      <point x="250" y="86" type="curve" smooth="yes"/>
      <point x="286" y="85"/>
      <point x="302" y="101"/>
      <point x="302" y="121" type="curve" smooth="yes"/>
      <point x="302" y="176"/>
      <point x="234" y="183"/>
      <point x="180" y="227" type="curve" smooth="yes"/>
      <point x="115" y="280"/>
      <point x="42" y="347"/>
      <point x="42" y="459" type="curve" smooth="yes"/>
      <point x="42" y="518"/>
      <point x="101" y="630"/>
    </contour>
  </outline>
</glyph>
<glyph name="t" format="2">
  <advance width="474"/>
  <unicode hex="0074"/>
  <outline>
    <contour>
      <point x="343" y="610" type="curve" smooth="yes"/>
      <point x="402" y="610" type="line" smooth="yes"/>
      <point x="416.0" y="610.0"/>
      <point x="425" y="603"/>
      <point x="425" y="591" type="curve" smooth="yes"/>
      <point x="425" y="500" type="line" smooth="yes"/>
      <point x="425" y="488"/>
      <point x="417.0" y="481.0"/>
      <point x="402" y="481" type="curve" smooth="yes"/>
      <point x="343" y="481" type="line" smooth="yes"/>
      <point x="327" y="481"/>
      <point x="318" y="467"/>
      <point x="318" y="453" type="curve" smooth="yes"/>
      <point x="318" y="202" type="line" smooth="yes"/>
      <point x="318.0" y="126.0"/>
      <point x="327" y="105"/>
      <point x="350" y="104" type="curve" smooth="yes"/>
      <point x="392" y="102"/>
      <point x="382" y="182"/>
      <point x="428" y="182" type="curve" smooth="yes"/>
      <point x="468" y="182"/>
      <point x="470" y="136"/>
      <point x="463" y="106" type="curve" smooth="yes"/>
      <point x="447" y="35"/>
      <point x="403" y="-32"/>
      <point x="276" y="-32" type="curve" smooth="yes"/>
      <point x="142" y="-32"/>
      <point x="71" y="74"/>
      <point x="71" y="194" type="curve" smooth="yes"/>
      <point x="71" y="452" type="line" smooth="yes"/>
      <point x="71" y="466"/>
      <point x="63" y="481"/>
      <point x="49" y="481" type="curve" smooth="yes"/>
      <point x="28" y="481" type="line" smooth="yes"/>
      <point x="18" y="481"/>
      <point x="13" y="490"/>
      <point x="13" y="496" type="curve" smooth="yes"/>
      <point x="13" y="550" type="line" smooth="yes"/>
      <point x="13" y="566.0"/>
      <point x="19" y="571"/>
      <point x="37" y="582" type="curve"/>
      <point x="100" y="616"/>
      <point x="155" y="661"/>
      <point x="202" y="709" type="curve"/>
      <point x="208" y="715"/>
      <point x="214.0" y="716.0"/>
      <point x="228" y="716" type="curve" smooth="yes"/>
      <point x="305" y="716" type="line" smooth="yes"/>
      <point x="312" y="716"/>
      <point x="318.0" y="713.0"/>
      <point x="318" y="701" type="curve" smooth="yes"/>
      <point x="318" y="634" type="line" smooth="yes"/>
      <point x="318" y="619"/>
      <point x="329" y="610"/>
    </contour>
  </outline>
</glyph>
<glyph name="u" format="2">
  <advance width="735"/>
  <unicode hex="0075"/>
  <outline>
    <contour>
      <point x="700.0" y="38.0" type="curve" smooth="yes"/>
      <point x="700" y="17"/>
      <point x="634" y="-7.0"/>
      <point x="466.0" y="-7.0" type="curve" smooth="yes"/>
      <point x="413" y="-7"/>
      <point x="433.0" y="48.0"/>
      <point x="422.0" y="58.0" type="curve"/>
      <point x="417.0" y="522.0" type="line" smooth="yes"/>
      <point x="417" y="535"/>
      <point x="380.0" y="539.0"/>
      <point x="380.0" y="567.0" type="curve" smooth="yes"/>
      <point x="380.0" y="594.0"/>
      <point x="486" y="609.0"/>
      <point x="613.0" y="609.0" type="curve" smooth="yes"/>
      <point x="652" y="609"/>
      <point x="663" y="596"/>
      <point x="663.0" y="531.0" type="curve" smooth="yes"/>
      <point x="663.0" y="83.0" type="line" smooth="yes"/>
      <point x="663.0" y="69.0"/>
      <point x="700.0" y="69"/>
    </contour>
    <contour>
      <point x="420" y="167" type="curve" smooth="yes"/>
      <point x="420" y="177"/>
      <point x="433" y="48"/>
      <point x="422" y="58" type="curve" smooth="yes"/>
      <point x="407" y="72"/>
      <point x="355" y="-12"/>
      <point x="239" y="-12" type="curve" smooth="yes"/>
      <point x="159" y="-12"/>
      <point x="66" y="35"/>
      <point x="66" y="126" type="curve" smooth="yes"/>
      <point x="66" y="512" type="line" smooth="yes"/>
      <point x="66" y="525"/>
      <point x="30" y="533"/>
      <point x="30" y="561" type="curve" smooth="yes"/>
      <point x="30" y="588"/>
      <point x="138" y="609"/>
      <point x="269" y="609" type="curve" smooth="yes"/>
      <point x="309" y="609"/>
      <point x="316" y="596"/>
      <point x="316" y="531" type="curve" smooth="yes"/>
      <point x="316" y="167" type="line" smooth="yes"/>
      <point x="316" y="134"/>
      <point x="339" y="109"/>
      <point x="371" y="109" type="curve" smooth="yes"/>
      <point x="403" y="109"/>
      <point x="420" y="136"/>
    </contour>
  </outline>
</glyph>
<glyph name="v" format="2">
  <advance width="666"/>
  <unicode hex="0076"/>
  <outline>
    <contour>
      <point x="153" y="607" type="curve" smooth="yes"/>
      <point x="89" y="607"/>
      <point x="7" y="602"/>
      <point x="8.008353157862018" y="574" type="curve" smooth="yes"/>
      <point x="9" y="551"/>
      <point x="30" y="560"/>
      <point x="46.00835315786202" y="524" type="curve" smooth="yes"/>
      <point x="127" y="342"/>
      <point x="184" y="109"/>
      <point x="214" y="56" type="curve" smooth="yes"/>
      <point x="236" y="17"/>
      <point x="276" y="-7"/>
      <point x="330.0157956060688" y="-8" type="curve" smooth="yes"/>
      <point x="377" y="-9"/>
      <point x="417" y="16"/>
      <point x="437" y="57" type="curve" smooth="yes"/>
      <point x="463" y="110"/>
      <point x="560" y="481"/>
      <point x="573" y="523" type="curve" smooth="yes"/>
      <point x="584" y="560"/>
      <point x="657" y="540"/>
      <point x="658" y="574" type="curve" smooth="yes"/>
      <point x="659" y="595"/>
      <point x="593.0083531578621" y="606"/>
      <point x="531.0083531578621" y="606" type="curve" smooth="yes"/>
      <point x="456.008353157862" y="606"/>
      <point x="385" y="600"/>
      <point x="385" y="575" type="curve" smooth="yes"/>
      <point x="385" y="546"/>
      <point x="481" y="564"/>
      <point x="477" y="524" type="curve" smooth="yes"/>
      <point x="469" y="445"/>
      <point x="418" y="245"/>
      <point x="384" y="245" type="curve" smooth="yes"/>
      <point x="349" y="245"/>
      <point x="301.008353157862" y="452"/>
      <point x="293.008353157862" y="529" type="curve" smooth="yes"/>
      <point x="290.008353157862" y="558"/>
      <point x="324" y="546"/>
      <point x="324" y="574" type="curve" smooth="yes"/>
      <point x="324" y="602"/>
      <point x="217" y="607"/>
    </contour>
    <contour>
      <point x="46.00835315786202" y="525" type="move"/>
    </contour>
  </outline>
</glyph>
<glyph name="w" format="2">
  <advance width="1078"/>
  <unicode hex="0077"/>
  <outline>
    <contour>
      <point x="154" y="619" type="curve" smooth="yes"/>
      <point x="50" y="619"/>
      <point x="4" y="610"/>
      <point x="4" y="581" type="curve" smooth="yes"/>
      <point x="4" y="551"/>
      <point x="25" y="564"/>
      <point x="39" y="527" type="curve" smooth="yes"/>
      <point x="210" y="78" type="line" smooth="yes"/>
      <point x="231" y="23"/>
      <point x="278" y="-23"/>
      <point x="353" y="-23" type="curve" smooth="yes"/>
      <point x="433" y="-23"/>
      <point x="479" y="23"/>
      <point x="495" y="78" type="curve" smooth="yes"/>
      <point x="625" y="531" type="line"/>
      <point x="445" y="477" type="line"/>
      <point x="454" y="448"/>
      <point x="459" y="423"/>
      <point x="453" y="400" type="curve" smooth="yes"/>
      <point x="438" y="340" type="line" smooth="yes"/>
      <point x="428" y="301"/>
      <point x="419" y="283"/>
      <point x="399" y="283" type="curve" smooth="yes"/>
      <point x="380" y="283"/>
      <point x="368" y="301"/>
      <point x="357" y="340" type="curve" smooth="yes"/>
      <point x="302" y="532" type="line" smooth="yes"/>
      <point x="294" y="561"/>
      <point x="330" y="552"/>
      <point x="330" y="581" type="curve" smooth="yes"/>
      <point x="330" y="610"/>
      <point x="268" y="619"/>
    </contour>
    <contour>
      <point x="527" y="619.0" type="curve" smooth="yes"/>
      <point x="423" y="619"/>
      <point x="384" y="610"/>
      <point x="384" y="581.0" type="curve" smooth="yes"/>
      <point x="384" y="551"/>
      <point x="412" y="564"/>
      <point x="426" y="527.0" type="curve" smooth="yes"/>
      <point x="597" y="78.0" type="line" smooth="yes"/>
      <point x="618" y="23"/>
      <point x="656" y="-23"/>
      <point x="726" y="-23.0" type="curve" smooth="yes"/>
      <point x="806" y="-23.0"/>
      <point x="852" y="23"/>
      <point x="868" y="78.0" type="curve" smooth="yes"/>
      <point x="998" y="531.0" type="line" smooth="yes"/>
      <point x="1009" y="569"/>
      <point x="1073" y="547.0"/>
      <point x="1074" y="582.0" type="curve" smooth="yes"/>
      <point x="1075" y="604.0"/>
      <point x="1044" y="618.0"/>
      <point x="943" y="618.0" type="curve" smooth="yes"/>
      <point x="822" y="618"/>
      <point x="793" y="609.0"/>
      <point x="793" y="583.0" type="curve" smooth="yes"/>
      <point x="793" y="553.0"/>
      <point x="868" y="571"/>
      <point x="858" y="531.0" type="curve" smooth="yes"/>
      <point x="811" y="340.0" type="line" smooth="yes"/>
      <point x="801" y="301"/>
      <point x="792" y="283.0"/>
      <point x="772" y="283.0" type="curve" smooth="yes"/>
      <point x="753" y="283.0"/>
      <point x="741" y="301"/>
      <point x="730" y="340.0" type="curve" smooth="yes"/>
      <point x="675" y="532.0" type="line" smooth="yes"/>
      <point x="667" y="561"/>
      <point x="703" y="552.0"/>
      <point x="703" y="581.0" type="curve" smooth="yes"/>
      <point x="703" y="610.0"/>
      <point x="641" y="619.0"/>
    </contour>
    <contour>
      <point x="518" y="158" type="line"/>
      <point x="524" y="196.0"/>
      <point x="558" y="196.0"/>
      <point x="567" y="157" type="curve"/>
      <point x="624" y="225" type="line"/>
      <point x="496" y="244" type="line"/>
    </contour>
  </outline>
</glyph>
<glyph name="x" format="2">
  <advance width="695"/>
  <unicode hex="0078"/>
  <outline>
    <contour>
      <point x="360.02329452211063" y="283" type="line"/>
      <point x="231.02329452211063" y="78" type="line" smooth="yes"/>
      <point x="208.02329452211063" y="42"/>
      <point x="284.02329452211063" y="61"/>
      <point x="284.02329452211063" y="31" type="curve" smooth="yes"/>
      <point x="284.02329452211063" y="5"/>
      <point x="255.02329452211063" y="-7"/>
      <point x="134.02329452211063" y="-7" type="curve" smooth="yes"/>
      <point x="33.02329452211063" y="-7"/>
      <point x="2.023294522110632" y="10"/>
      <point x="3.023294522110632" y="32" type="curve" smooth="yes"/>
      <point x="4.023294522110632" y="67"/>
      <point x="48.02329452211063" y="46"/>
      <point x="68.02329452211063" y="80" type="curve" smooth="yes"/>
      <point x="225.02329452211063" y="345" type="line"/>
    </contour>
    <contour>
      <point x="338.02329452211063" y="319.0" type="line"/>
      <point x="467.02329452211063" y="516.0" type="line" smooth="yes"/>
      <point x="491.02329452211063" y="553"/>
      <point x="411.02329452211063" y="538.0"/>
      <point x="411.02329452211063" y="568.0" type="curve" smooth="yes"/>
      <point x="411.02329452211063" y="594.0"/>
      <point x="440.02329452211063" y="606.0"/>
      <point x="561.0232945221106" y="606.0" type="curve" smooth="yes"/>
      <point x="662.0232945221106" y="606.0"/>
      <point x="693.0232945221106" y="589.0"/>
      <point x="692.0232945221106" y="567.0" type="curve" smooth="yes"/>
      <point x="691.0232945221106" y="532.0"/>
      <point x="643.0232945221106" y="548"/>
      <point x="624.0232945221106" y="516.0" type="curve" smooth="yes"/>
      <point x="467.02329452211063" y="259.0" type="line"/>
    </contour>
    <contour>
      <point x="610.0232945221106" y="88" type="line" smooth="yes"/>
      <point x="632.0232945221106" y="53"/>
      <point x="683.0232945221106" y="68"/>
      <point x="683.0232945221106" y="34" type="curve" smooth="yes"/>
      <point x="683.0232945221106" y="5"/>
      <point x="626.0232945221106" y="-6"/>
      <point x="522.0232945221106" y="-6" type="curve" smooth="yes"/>
      <point x="408.02329452211063" y="-6"/>
      <point x="357.02329452211063" y="5"/>
      <point x="357.02329452211063" y="34" type="curve" smooth="yes"/>
      <point x="357.02329452211063" y="63"/>
      <point x="404.02329452211063" y="56"/>
      <point x="385.02329452211063" y="83" type="curve" smooth="yes"/>
      <point x="75.02329452211063" y="513" type="line" smooth="yes"/>
      <point x="50.02329452211063" y="548"/>
      <point x="19.023294522110632" y="537"/>
      <point x="19.023294522110632" y="567" type="curve" smooth="yes"/>
      <point x="19.023294522110632" y="596"/>
      <point x="72.02329452211063" y="606"/>
      <point x="176.02329452211063" y="606" type="curve" smooth="yes"/>
      <point x="290.02329452211063" y="606"/>
      <point x="345.02329452211063" y="596"/>
      <point x="345.02329452211063" y="567" type="curve" smooth="yes"/>
      <point x="345.02329452211063" y="538"/>
      <point x="322.02329452211063" y="545"/>
      <point x="339.02329452211063" y="518" type="curve" smooth="yes"/>
    </contour>
  </outline>
</glyph>
<glyph name="y" format="2">
  <advance width="721"/>
  <unicode hex="0079"/>
  <outline>
    <contour>
      <point x="509" y="78" type="curve" smooth="yes"/>
      <point x="640" y="523" type="line" smooth="yes"/>
      <point x="651" y="561"/>
      <point x="715" y="539"/>
      <point x="716" y="574" type="curve" smooth="yes"/>
      <point x="717" y="596"/>
      <point x="686" y="613"/>
      <point x="585" y="613" type="curve" smooth="yes"/>
      <point x="464" y="613"/>
      <point x="435" y="601"/>
      <point x="435" y="575" type="curve" smooth="yes"/>
      <point x="435" y="545"/>
      <point x="510" y="563"/>
      <point x="500" y="523" type="curve" smooth="yes"/>
      <point x="453" y="340" type="line" smooth="yes"/>
      <point x="443" y="301"/>
      <point x="434" y="283"/>
      <point x="414" y="283" type="curve" smooth="yes"/>
      <point x="395" y="283"/>
      <point x="384" y="301"/>
      <point x="372" y="340" type="curve" smooth="yes"/>
      <point x="317" y="524" type="line" smooth="yes"/>
      <point x="308" y="553"/>
      <point x="345" y="544"/>
      <point x="345" y="573" type="curve" smooth="yes"/>
      <point x="345" y="602"/>
      <point x="285" y="612"/>
      <point x="171" y="612" type="curve" smooth="yes"/>
      <point x="67" y="612"/>
      <point x="19" y="602"/>
      <point x="19" y="573" type="curve" smooth="yes"/>
      <point x="19" y="543"/>
      <point x="39" y="556"/>
      <point x="54" y="519" type="curve" smooth="yes"/>
      <point x="225" y="96" type="line" smooth="yes"/>
      <point x="243" y="51"/>
      <point x="249" y="30"/>
      <point x="249" y="-6" type="curve" smooth="yes"/>
      <point x="249" y="-32"/>
      <point x="238" y="-45"/>
      <point x="221" y="-43" type="curve" smooth="yes"/>
      <point x="206" y="-41"/>
      <point x="199" y="-23"/>
      <point x="203" y="-5" type="curve" smooth="yes"/>
      <point x="217" y="59"/>
      <point x="188" y="111"/>
      <point x="119" y="113" type="curve" smooth="yes"/>
      <point x="49" y="115"/>
      <point x="5" y="63"/>
      <point x="5" y="18" type="curve" smooth="yes"/>
      <point x="5" y="-39"/>
      <point x="64" y="-151"/>
      <point x="234" y="-151" type="curve" smooth="yes"/>
      <point x="442.0" y="-151.0"/>
      <point x="474" y="-43"/>
    </contour>
  </outline>
</glyph>
<glyph name="z" format="2">
  <advance width="655"/>
  <unicode hex="007A"/>
  <outline>
    <contour>
      <point x="515.0" y="616" type="curve" smooth="yes"/>
      <point x="154" y="616.0" type="line" smooth="yes"/>
      <point x="133.0" y="616.0"/>
      <point x="135" y="621.0"/>
      <point x="113" y="621.0" type="curve" smooth="yes"/>
      <point x="73" y="621.0"/>
      <point x="42" y="513.0"/>
      <point x="42" y="452.0" type="curve" smooth="yes"/>
      <point x="42" y="421.0"/>
      <point x="65" y="401.0"/>
      <point x="84" y="401.0" type="curve" smooth="yes"/>
      <point x="97" y="401.0"/>
      <point x="125" y="406.0"/>
      <point x="138" y="421.0" type="curve" smooth="yes"/>
      <point x="174" y="459.0"/>
      <point x="203" y="537.0"/>
      <point x="225" y="543.0" type="curve" smooth="yes"/>
      <point x="249" y="550.0"/>
      <point x="279" y="546.0"/>
      <point x="284" y="529.0" type="curve" smooth="yes"/>
      <point x="290.0" y="513.0"/>
      <point x="274" y="486"/>
      <point x="258" y="458.0" type="curve" smooth="yes"/>
      <point x="57.0" y="102" type="line" smooth="yes"/>
      <point x="30" y="54"/>
      <point x="38.0" y="-2"/>
      <point x="112.0" y="-2" type="curve" smooth="yes"/>
      <point x="474.0" y="-2" type="line" smooth="yes"/>
      <point x="501.0" y="-2"/>
      <point x="512.0" y="-12"/>
      <point x="542.0" y="-12" type="curve"/>
      <point x="598.0" y="-12"/>
      <point x="624.0" y="87"/>
      <point x="620.0" y="129" type="curve" smooth="yes"/>
      <point x="617.0" y="170"/>
      <point x="596.0" y="224"/>
      <point x="552.0" y="225" type="curve" smooth="yes"/>
      <point x="526.0" y="225"/>
      <point x="522.0" y="209"/>
      <point x="507.0" y="176" type="curve" smooth="yes"/>
      <point x="492.0" y="143"/>
      <point x="454.0" y="103"/>
      <point x="436.0" y="97" type="curve" smooth="yes"/>
      <point x="413.0" y="89"/>
      <point x="380.0" y="91"/>
      <point x="377.0" y="111" type="curve" smooth="yes"/>
      <point x="373.0" y="133"/>
      <point x="389" y="156"/>
      <point x="400.0" y="175" type="curve" smooth="yes"/>
      <point x="590.0" y="516" type="line" smooth="yes"/>
      <point x="620" y="570"/>
      <point x="579" y="616"/>
    </contour>
  </outline>
</glyph>
<glyph name="bar" format="2">
  <advance width="306"/>
  <unicode hex="007C"/>
  <outline>
    <contour>
      <point x="266" y="-105" type="curve" smooth="yes"/>
      <point x="264" y="731" type="line" smooth="yes"/>
      <point x="264" y="761"/>
      <point x="251.0" y="778"/>
      <point x="150.0" y="778" type="curve" smooth="yes"/>
      <point x="52.0" y="778.0"/>
      <point x="42" y="759"/>
      <point x="42" y="731" type="curve" smooth="yes"/>
      <point x="42" y="-108" type="line" smooth="yes"/>
      <point x="42" y="-131"/>
      <point x="83" y="-148"/>
      <point x="150.0" y="-148" type="curve" smooth="yes"/>
      <point x="230" y="-148"/>
      <point x="266" y="-135"/>
    </contour>
  </outline>
</glyph>
<glyph name="exclamdown" format="2">
  <advance width="334"/>
  <unicode hex="00A1"/>
  <outline>
    <contour>
      <point x="170.0" y="632.0" type="curve" smooth="yes"/>
      <point x="98.0" y="632.0"/>
      <point x="40.0" y="575.0"/>
      <point x="40.0" y="505.0" type="curve" smooth="yes"/>
      <point x="40.0" y="435.0"/>
      <point x="98.0" y="379.0"/>
      <point x="170.0" y="379.0" type="curve" smooth="yes"/>
      <point x="242.0" y="379.0"/>
      <point x="300.0" y="435.0"/>
      <point x="300.0" y="505.0" type="curve" smooth="yes"/>
      <point x="300.0" y="575.0"/>
      <point x="242.0" y="632.0"/>
    </contour>
    <contour identifier="PJSld4tCVi">
      <point x="198.0" y="335.0"/>
      <point x="314.0" y="116.0"/>
      <point x="314.0" y="23.0" type="curve" smooth="yes"/>
      <point x="314.0" y="-68.0"/>
      <point x="253.0" y="-151.0"/>
      <point x="169.0" y="-151.0" type="curve" smooth="yes"/>
      <point x="84.0" y="-151.0"/>
      <point x="20.0" y="-68.0"/>
      <point x="20.0" y="23.0" type="curve" smooth="yes"/>
      <point x="20.0" y="118.0"/>
      <point x="137.0" y="335.0"/>
      <point x="169.0" y="335.0" type="curve" smooth="yes"/>
    </contour>
  </outline>
</glyph>
<glyph name="dieresis" format="2">
  <advance width="327"/>
  <unicode hex="00A8"/>
  <outline>
    <contour>
      <point x="81" y="789" type="curve" smooth="yes"/>
      <point x="115" y="789"/>
      <point x="142" y="811"/>
      <point x="142" y="845" type="curve" smooth="yes"/>
      <point x="142" y="879"/>
      <point x="115" y="902"/>
      <point x="81" y="902" type="curve" smooth="yes"/>
      <point x="47" y="902"/>
      <point x="20" y="879"/>
      <point x="20" y="845" type="curve" smooth="yes"/>
      <point x="20" y="811"/>
      <point x="47" y="789"/>
    </contour>
    <contour>
      <point x="246" y="789" type="curve" smooth="yes"/>
      <point x="280" y="789"/>
      <point x="307" y="811"/>
      <point x="307" y="845" type="curve" smooth="yes"/>
      <point x="307" y="879"/>
      <point x="280" y="902"/>
      <point x="246" y="902" type="curve" smooth="yes"/>
      <point x="212" y="902"/>
      <point x="185" y="879"/>
      <point x="185" y="845" type="curve" smooth="yes"/>
      <point x="185" y="811"/>
      <point x="212" y="789"/>
    </contour>
  </outline>
</glyph>
<glyph name="copyright" format="2">
  <advance width="864"/>
  <unicode hex="00A9"/>
  <outline>
    <contour>
      <point x="556" y="279"/>
      <point x="575" y="202"/>
      <point x="490" y="202" type="curve" smooth="yes"/>
      <point x="430" y="202"/>
      <point x="373" y="302"/>
      <point x="373" y="387" type="curve" smooth="yes"/>
      <point x="373" y="497"/>
      <point x="401" y="529"/>
      <point x="432" y="529" type="curve" smooth="yes"/>
      <point x="496" y="529"/>
      <point x="465" y="472"/>
      <point x="465" y="451" type="curve" smooth="yes"/>
      <point x="465" y="392"/>
      <point x="515" y="358"/>
      <point x="575" y="358" type="curve" smooth="yes"/>
      <point x="621" y="358"/>
      <point x="656" y="389"/>
      <point x="656" y="438" type="curve" smooth="yes"/>
      <point x="656" y="495"/>
      <point x="586" y="597"/>
      <point x="430" y="597" type="curve" smooth="yes"/>
      <point x="302" y="597"/>
      <point x="186" y="509"/>
      <point x="186" y="358" type="curve" smooth="yes"/>
      <point x="186" y="217"/>
      <point x="286" y="96"/>
      <point x="439" y="96" type="curve" smooth="yes"/>
      <point x="581" y="96"/>
      <point x="634" y="190"/>
      <point x="636" y="233" type="curve" smooth="yes"/>
      <point x="637" y="250"/>
      <point x="638" y="279"/>
      <point x="609" y="279" type="curve" smooth="yes"/>
    </contour>
    <contour>
      <point x="433.0" y="29" type="curve" smooth="yes"/>
      <point x="612" y="29"/>
      <point x="757" y="172"/>
      <point x="757" y="346" type="curve" smooth="yes"/>
      <point x="757" y="519"/>
      <point x="622" y="662"/>
      <point x="433.0" y="662" type="curve" smooth="yes"/>
      <point x="243" y="662"/>
      <point x="109" y="530"/>
      <point x="109" y="346" type="curve" smooth="yes"/>
      <point x="109" y="161"/>
      <point x="247" y="29"/>
    </contour>
    <contour>
      <point x="433.0" y="-50" type="curve" smooth="yes"/>
      <point x="210" y="-50"/>
      <point x="28" y="128"/>
      <point x="28" y="346" type="curve" smooth="yes"/>
      <point x="28" y="563"/>
      <point x="210" y="741.0"/>
      <point x="433.0" y="741.0" type="curve" smooth="yes"/>
      <point x="656" y="741.0"/>
      <point x="838" y="563"/>
      <point x="838" y="346" type="curve" smooth="yes"/>
      <point x="838" y="128"/>
      <point x="656" y="-50"/>
    </contour>
  </outline>
</glyph>
<glyph name="macron" format="2">
  <advance width="287"/>
  <unicode hex="00AF"/>
  <anchor x="138" y="763" name="_top"/>
  <outline>
    <contour>
      <point x="46" y="868.0" type="curve" smooth="yes"/>
      <point x="78" y="868.0"/>
      <point x="172.1490147068248" y="866.0"/>
      <point x="202.1490147068248" y="866.0" type="curve" smooth="yes"/>
      <point x="215.1490147068248" y="866.0"/>
      <point x="246" y="868"/>
      <point x="256.1490147068248" y="868.0" type="curve" smooth="yes"/>
      <point x="266" y="868.0"/>
      <point x="268" y="852"/>
      <point x="267" y="841.0" type="curve" smooth="yes"/>
      <point x="264" y="812"/>
      <point x="254" y="786"/>
      <point x="237" y="786.0" type="curve" smooth="yes"/>
      <point x="33" y="786.0" type="line" smooth="yes"/>
      <point x="23.0" y="786.0"/>
      <point x="19.1490147068248" y="796.0"/>
      <point x="20.1490147068248" y="806.0" type="curve" smooth="yes"/>
      <point x="24.1490147068248" y="834.0"/>
      <point x="30" y="868.0"/>
    </contour>
  </outline>
</glyph>
<glyph name="acute" format="2">
  <advance width="239"/>
  <unicode hex="00B4"/>
  <anchor x="124" y="784" name="_top"/>
  <outline>
    <contour>
      <point x="219.0" y="903" type="curve" smooth="yes"/>
      <point x="222.0" y="942"/>
      <point x="207" y="977"/>
      <point x="160" y="987" type="curve" smooth="yes"/>
      <point x="124" y="995"/>
      <point x="80" y="987"/>
      <point x="70" y="965" type="curve" smooth="yes"/>
      <point x="61" y="945"/>
      <point x="83.0" y="945"/>
      <point x="87.0" y="917" type="curve" smooth="yes"/>
      <point x="92.0" y="867"/>
      <point x="46" y="851"/>
      <point x="29" y="832" type="curve" smooth="yes"/>
      <point x="6" y="806"/>
      <point x="33.0" y="795"/>
      <point x="63.0" y="795" type="curve" smooth="yes"/>
      <point x="131.0" y="795"/>
      <point x="214.0" y="838"/>
    </contour>
  </outline>
</glyph>
<glyph name="questiondown" format="2">
  <advance width="635"/>
  <unicode hex="00BF"/>
  <outline>
    <contour>
      <point x="261.0" y="2.0" type="curve" smooth="yes"/>
      <point x="261.0" y="-43.0"/>
      <point x="279.0" y="-78.0"/>
      <point x="324.0" y="-78.0" type="curve" smooth="yes"/>
      <point x="351.0" y="-78.0"/>
      <point x="361.0" y="-60.0"/>
      <point x="361.0" y="-42.0" type="curve" smooth="yes"/>
      <point x="361.0" y="-22.0"/>
      <point x="346.0" y="-5.0"/>
      <point x="346.0" y="24.0" type="curve" smooth="yes"/>
      <point x="346.0" y="77.0"/>
      <point x="403.0" y="128.0"/>
      <point x="464.0" y="128.0" type="curve" smooth="yes"/>
      <point x="536.0" y="128.0"/>
      <point x="590.0" y="72.0"/>
      <point x="590.0" y="20.0" type="curve" smooth="yes"/>
      <point x="590.0" y="-51.0"/>
      <point x="530.0" y="-150.0"/>
      <point x="325.0" y="-150.0" type="curve" smooth="yes"/>
      <point x="181.0" y="-150.0"/>
      <point x="54.0" y="-96.0"/>
      <point x="54.0" y="53.0" type="curve" smooth="yes"/>
      <point x="54.0" y="151.0"/>
      <point x="163.0" y="226.0"/>
      <point x="224.0" y="275.0" type="curve" smooth="yes"/>
      <point x="244.0" y="291.0"/>
      <point x="253.0" y="311.0"/>
      <point x="257.0" y="322.0" type="curve" smooth="yes"/>
      <point x="267.0" y="351.0"/>
      <point x="288.0" y="359.0"/>
      <point x="334.0" y="358.0" type="curve" smooth="yes"/>
      <point x="373.0" y="358.0"/>
      <point x="409.0" y="366.0"/>
      <point x="409.0" y="264.0" type="curve" smooth="yes"/>
      <point x="409.0" y="178.0"/>
      <point x="260.0" y="97.0"/>
    </contour>
    <contour>
      <point x="324.0" y="646.0" type="curve" smooth="yes"/>
      <point x="252.0" y="646.0"/>
      <point x="194.0" y="589.0"/>
      <point x="194.0" y="519.0" type="curve" smooth="yes"/>
      <point x="194.0" y="449.0"/>
      <point x="252.0" y="393.0"/>
      <point x="324.0" y="393.0" type="curve" smooth="yes"/>
      <point x="396.0" y="393.0"/>
      <point x="454.0" y="449.0"/>
      <point x="454.0" y="519.0" type="curve" smooth="yes"/>
      <point x="454.0" y="589.0"/>
      <point x="396.0" y="646.0"/>
    </contour>
  </outline>
</glyph>
<glyph name="dotlessi" format="2">
  <advance width="384"/>
  <unicode hex="0131"/>
  <anchor x="187" y="675" name="top"/>
  <outline>
    <contour>
      <point x="34" y="539" type="curve" smooth="yes"/>
      <point x="34" y="575"/>
      <point x="203.0" y="609"/>
      <point x="274.0" y="609" type="curve" smooth="yes"/>
      <point x="316.0" y="609"/>
      <point x="317.0" y="591.0"/>
      <point x="317" y="548" type="curve" smooth="yes"/>
      <point x="317" y="68" type="line" smooth="yes"/>
      <point x="317" y="55"/>
      <point x="354" y="51"/>
      <point x="354" y="23" type="curve" smooth="yes"/>
      <point x="354" y="-4"/>
      <point x="273" y="-7"/>
      <point x="200" y="-9" type="curve" smooth="yes"/>
      <point x="121" y="-11"/>
      <point x="39" y="1"/>
      <point x="38" y="24" type="curve" smooth="yes"/>
      <point x="36" y="51"/>
      <point x="68" y="51"/>
      <point x="68" y="73" type="curve" smooth="yes"/>
      <point x="71" y="479" type="line" smooth="yes"/>
      <point x="71" y="493"/>
      <point x="34" y="519"/>
    </contour>
  </outline>
</glyph>
<glyph name="circumflex" format="2">
  <advance width="388"/>
  <unicode hex="02C6"/>
  <anchor x="194" y="762" name="_top"/>
  <outline>
    <contour>
      <point x="194" y="956" type="curve" smooth="yes"/>
      <point x="205" y="956"/>
      <point x="217" y="951"/>
      <point x="226" y="943" type="curve" smooth="yes"/>
      <point x="337" y="853" type="line" smooth="yes"/>
      <point x="361" y="834"/>
      <point x="368" y="815"/>
      <point x="368" y="803" type="curve" smooth="yes"/>
      <point x="368" y="787"/>
      <point x="352" y="778"/>
      <point x="336" y="778" type="curve" smooth="yes"/>
      <point x="313" y="778"/>
      <point x="275" y="785"/>
      <point x="221" y="830" type="curve" smooth="yes"/>
      <point x="215" y="835"/>
      <point x="203" y="841"/>
      <point x="194" y="841" type="curve" smooth="yes"/>
      <point x="185" y="841"/>
      <point x="173" y="834"/>
      <point x="167" y="830" type="curve" smooth="yes"/>
      <point x="111" y="791"/>
      <point x="75" y="778"/>
      <point x="52" y="778" type="curve" smooth="yes"/>
      <point x="36" y="778"/>
      <point x="20" y="787"/>
      <point x="20" y="803" type="curve" smooth="yes"/>
      <point x="20" y="815"/>
      <point x="27" y="834"/>
      <point x="50" y="852" type="curve" smooth="yes"/>
      <point x="162" y="943" type="line" smooth="yes"/>
      <point x="171" y="951"/>
      <point x="183" y="956"/>
    </contour>
  </outline>
</glyph>
<glyph name="caron" format="2">
  <advance width="388"/>
  <unicode hex="02C7"/>
  <anchor x="193" y="766" name="_top"/>
  <outline>
    <contour>
      <point x="194" y="778" type="curve" smooth="yes"/>
      <point x="205" y="778"/>
      <point x="217" y="783"/>
      <point x="226" y="791" type="curve" smooth="yes"/>
      <point x="337" y="881" type="line" smooth="yes"/>
      <point x="361" y="900"/>
      <point x="368" y="919"/>
      <point x="368" y="931" type="curve" smooth="yes"/>
      <point x="368" y="947"/>
      <point x="352" y="956"/>
      <point x="336" y="956" type="curve" smooth="yes"/>
      <point x="313" y="956"/>
      <point x="275" y="949"/>
      <point x="221" y="904" type="curve" smooth="yes"/>
      <point x="215" y="899"/>
      <point x="203" y="893"/>
      <point x="194" y="893" type="curve" smooth="yes"/>
      <point x="185" y="893"/>
      <point x="173" y="900"/>
      <point x="167" y="904" type="curve" smooth="yes"/>
      <point x="111" y="943"/>
      <point x="75" y="956"/>
      <point x="52" y="956" type="curve" smooth="yes"/>
      <point x="36" y="956"/>
      <point x="20" y="947"/>
      <point x="20" y="931" type="curve" smooth="yes"/>
      <point x="20" y="919"/>
      <point x="27" y="900"/>
      <point x="50" y="882" type="curve" smooth="yes"/>
      <point x="162" y="791" type="line" smooth="yes"/>
      <point x="171" y="783"/>
      <point x="183" y="778"/>
    </contour>
  </outline>
</glyph>
<glyph name="breve" format="2">
  <advance width="383"/>
  <unicode hex="02D8"/>
  <anchor x="192" y="758" name="_top"/>
  <outline>
    <contour>
      <point x="191" y="778" type="curve" smooth="yes"/>
      <point x="273" y="778"/>
      <point x="363" y="837"/>
      <point x="363" y="931" type="curve" smooth="yes"/>
      <point x="363" y="947"/>
      <point x="349" y="956"/>
      <point x="333" y="956" type="curve" smooth="yes"/>
      <point x="303" y="956"/>
      <point x="245" y="878"/>
      <point x="191" y="878" type="curve" smooth="yes"/>
      <point x="135" y="878"/>
      <point x="81" y="956"/>
      <point x="49" y="956" type="curve" smooth="yes"/>
      <point x="33" y="956"/>
      <point x="20" y="947"/>
      <point x="20" y="931" type="curve" smooth="yes"/>
      <point x="20" y="837"/>
      <point x="111" y="778"/>
    </contour>
  </outline>
</glyph>
<glyph name="dotaccent" format="2">
  <advance width="162"/>
  <unicode hex="02D9"/>
  <anchor x="81" y="780" name="_top"/>
  <outline>
    <contour>
      <point x="81" y="789" type="curve" smooth="yes"/>
      <point x="115" y="789"/>
      <point x="142" y="811"/>
      <point x="142" y="845" type="curve" smooth="yes"/>
      <point x="142" y="879"/>
      <point x="115" y="902"/>
      <point x="81" y="902" type="curve" smooth="yes"/>
      <point x="47" y="902"/>
      <point x="20" y="879"/>
      <point x="20" y="845" type="curve" smooth="yes"/>
      <point x="20" y="811"/>
      <point x="47" y="789"/>
    </contour>
  </outline>
</glyph>
<glyph name="tilde" format="2">
  <advance width="461"/>
  <unicode hex="02DC"/>
  <anchor x="228" y="771" name="_top"/>
  <outline>
    <contour>
      <point x="20" y="851"/>
      <point x="94" y="932"/>
      <point x="153" y="932" type="curve" smooth="yes"/>
      <point x="227" y="932"/>
      <point x="256" y="880"/>
      <point x="307" y="880" type="curve" smooth="yes"/>
      <point x="349" y="880"/>
      <point x="373" y="929"/>
      <point x="407" y="932" type="curve" smooth="yes"/>
      <point x="430" y="934"/>
      <point x="441" y="919"/>
      <point x="441" y="893" type="curve" smooth="yes"/>
      <point x="441" y="851"/>
      <point x="374" y="779"/>
      <point x="307" y="779" type="curve" smooth="yes"/>
      <point x="247" y="779"/>
      <point x="215" y="833"/>
      <point x="154" y="832" type="curve" smooth="yes"/>
      <point x="100" y="831"/>
      <point x="79" y="777"/>
      <point x="48" y="777" type="curve" smooth="yes"/>
      <point x="33" y="777"/>
      <point x="20" y="796"/>
      <point x="20" y="812" type="curve" smooth="yes"/>
    </contour>
  </outline>
</glyph>
<glyph name="endash" format="2">
  <advance width="644"/>
  <unicode hex="2013"/>
  <outline>
    <contour>
      <point x="90" y="487" type="curve" smooth="yes"/>
      <point x="166" y="487"/>
      <point x="388" y="481"/>
      <point x="460" y="481" type="curve" smooth="yes"/>
      <point x="492" y="481"/>
      <point x="566" y="487"/>
      <point x="590" y="487" type="curve" smooth="yes"/>
      <point x="622" y="487"/>
      <point x="619" y="461"/>
      <point x="618" y="438" type="curve" smooth="yes"/>
      <point x="614" y="361"/>
      <point x="586" y="265"/>
      <point x="545" y="265" type="curve" smooth="yes"/>
      <point x="515" y="265"/>
      <point x="527" y="269"/>
      <point x="496" y="269" type="curve" smooth="yes"/>
      <point x="421" y="269"/>
      <point x="149" y="266"/>
      <point x="54" y="266" type="curve" smooth="yes"/>
      <point x="30" y="266"/>
      <point x="20" y="292"/>
      <point x="23" y="320" type="curve" smooth="yes"/>
      <point x="31" y="395"/>
      <point x="51" y="487"/>
    </contour>
  </outline>
</glyph>
<glyph name="emdash" format="2">
  <advance width="1007"/>
  <unicode hex="2014"/>
  <outline>
    <contour>
      <point x="90" y="487" type="curve" smooth="yes"/>
      <point x="166" y="487"/>
      <point x="772" y="482"/>
      <point x="844" y="482" type="curve" smooth="yes"/>
      <point x="876" y="482"/>
      <point x="926" y="491"/>
      <point x="950" y="491" type="curve" smooth="yes"/>
      <point x="982" y="491"/>
      <point x="980" y="461"/>
      <point x="979" y="438" type="curve" smooth="yes"/>
      <point x="975" y="361"/>
      <point x="952" y="264"/>
      <point x="911" y="264" type="curve" smooth="yes"/>
      <point x="881" y="264"/>
      <point x="830" y="270"/>
      <point x="799" y="270" type="curve" smooth="yes"/>
      <point x="724" y="270"/>
      <point x="149" y="266"/>
      <point x="54" y="266" type="curve" smooth="yes"/>
      <point x="30" y="266"/>
      <point x="20" y="292"/>
      <point x="23" y="320" type="curve" smooth="yes"/>
      <point x="31" y="395"/>
      <point x="51" y="487"/>
    </contour>
  </outline>
</glyph>
<glyph name="quoteleft" format="2">
  <advance width="299"/>
  <unicode hex="2018"/>
  <outline>
    <contour identifier="PJSld4tCVi">
      <point x="178.0" y="626.0" type="curve" smooth="yes"/>
      <point x="225.0" y="622.0"/>
      <point x="276.0" y="569.0"/>
      <point x="276.0" y="497.0" type="curve" smooth="yes"/>
      <point x="276.0" y="425.0"/>
      <point x="224.0" y="362.0"/>
      <point x="152.0" y="362.0" type="curve" smooth="yes"/>
      <point x="80.0" y="362.0"/>
      <point x="26.0" y="425.0"/>
      <point x="27.0" y="497.0" type="curve" smooth="yes"/>
      <point x="28.0" y="588.0"/>
      <point x="101.0" y="719.0"/>
      <point x="122.0" y="746.0" type="curve" smooth="yes"/>
      <point x="136.0" y="765.0"/>
      <point x="153.0" y="776.0"/>
      <point x="177.0" y="776.0" type="curve" smooth="yes"/>
      <point x="203.0" y="776.0"/>
      <point x="225.0" y="755.0"/>
      <point x="220.0" y="736.0" type="curve" smooth="yes"/>
      <point x="217.0" y="725.0"/>
      <point x="195.0" y="698.0"/>
      <point x="175.0" y="666.0" type="curve" smooth="yes"/>
      <point x="158.0" y="639.0"/>
      <point x="163.0" y="627.0"/>
    </contour>
  </outline>
</glyph>
<glyph name="quoteright" format="2">
  <advance width="299"/>
  <unicode hex="2019"/>
  <outline>
    <contour identifier="PJSld4tCVi">
      <point x="124" y="505" type="curve" smooth="yes"/>
      <point x="77" y="509"/>
      <point x="26" y="562"/>
      <point x="26" y="634" type="curve" smooth="yes"/>
      <point x="26" y="706"/>
      <point x="78" y="769"/>
      <point x="150" y="769" type="curve" smooth="yes"/>
      <point x="222" y="769"/>
      <point x="276" y="706"/>
      <point x="275" y="634" type="curve" smooth="yes"/>
      <point x="274.0" y="543"/>
      <point x="201" y="412"/>
      <point x="180" y="385" type="curve" smooth="yes"/>
      <point x="166" y="366"/>
      <point x="149" y="355"/>
      <point x="125" y="355" type="curve" smooth="yes"/>
      <point x="99" y="355"/>
      <point x="77" y="376"/>
      <point x="82" y="395" type="curve" smooth="yes"/>
      <point x="85" y="406"/>
      <point x="107" y="433"/>
      <point x="127" y="465" type="curve" smooth="yes"/>
      <point x="144" y="492"/>
      <point x="139" y="504"/>
    </contour>
  </outline>
</glyph>
